<svg width="137" height="39" xmlns="http://www.w3.org/2000/svg"><path fill="#393b41" id="app-store" d="M35.55 19c-.02-2.65 2.2-3.92 2.28-3.98a4.98 4.98 0 00-3.88-2.08c-1.63-.18-3.2.96-4.04.96-.84 0-2.13-.94-3.51-.92a5.18 5.18 0 00-4.35 2.63c-1.89 3.22-.48 7.92 1.32 10.53.9 1.27 1.95 2.7 3.33 2.65 1.34-.07 1.85-.86 3.47-.86s2.09.86 3.49.81c1.45-.02 2.35-1.27 3.23-2.56.64-.9 1.14-1.91 1.47-2.97 0 0-2.77-1.03-2.81-4.2zm-2.64-7.77A4.58 4.58 0 0034 7.88a4.86 4.86 0 00-3.12 1.6 4.45 4.45 0 00-1.12 3.22c1.19.08 2.4-.57 3.16-1.47zm16.38 6.48l-3.56 10.9h1.82l.99-3.2h3.6l1.03 3.2h1.89l-3.58-10.9h-2.2zm-.42 6.35l.92-2.85.53-2.05h.04c.26 1.07.46 1.77.55 2.05l.92 2.85h-2.96zm12-3.48c-1.2 0-2.08.46-2.67 1.4h-.05l-.1-1.25h-1.57c.05.88.07 1.75.07 2.58v8.48h1.76v-4.12c.46.75 1.2 1.12 2.26 1.12.92.01 1.82-.36 2.45-1.03a4.37 4.37 0 001.1-3.18c0-1.2-.3-2.16-.94-2.89a2.78 2.78 0 00-2.3-1.11zm.95 6.06c-.36.5-.94.8-1.56.77-.53.02-1.03-.2-1.38-.6a2.1 2.1 0 01-.53-1.44v-1.31c0-.18.03-.36.09-.53A2 2 0 0160.57 22c.52.06.98.34 1.3.76.36.55.54 1.21.52 1.88 0 .71-.19 1.41-.57 2.01zm8.2-6.06c-1.2 0-2.08.46-2.67 1.4h-.05l-.1-1.25h-1.56c.04.88.06 1.75.06 2.58v8.48h1.76v-4.12c.46.75 1.23 1.12 2.26 1.12.93.01 1.82-.36 2.46-1.03a4.46 4.46 0 001.1-3.18c0-1.2-.31-2.16-.95-2.89a2.84 2.84 0 00-2.3-1.11zm.93 6.06c-.36.5-.95.8-1.56.77-.53.02-1.04-.2-1.38-.6a2.1 2.1 0 01-.53-1.44v-1.31c0-.18.03-.36.09-.53A2 2 0 0169.7 22c.52.06.98.34 1.3.76.36.55.54 1.21.52 1.88-.02.83-.2 1.5-.57 2.01zm9.8-4.31a6.4 6.4 0 01-1.6-.83 1.36 1.36 0 01-.06-2.06c.42-.33.94-.5 1.47-.46a4.4 4.4 0 012.1.5l.45-1.42a5.3 5.3 0 00-2.5-.52c-1.13 0-2.03.28-2.7.85a2.76 2.76 0 00-1.04 2.19c0 1.38.97 2.4 2.9 3.13a4.7 4.7 0 011.51.83c.3.3.47.7.47 1.12.02.46-.19.9-.55 1.18-.38.3-.88.44-1.56.44-.9 0-1.78-.23-2.55-.68l-.41 1.44c.72.46 1.66.68 2.85.68 1.27 0 2.28-.33 3-.96.65-.57 1.02-1.4 1-2.26.02-.69-.23-1.36-.69-1.88a5.58 5.58 0 00-2.08-1.29zm6.68-3.55l-1.73.53v1.44h-1.17v1.32h1.17v3.96c0 .98.2 1.7.59 2.12.43.44 1.03.67 1.64.64.47.01.94-.05 1.39-.2l-.05-1.33c-.26.05-.52.08-.79.08-.68 0-1.03-.48-1.03-1.44v-3.81h1.95v-1.31h-1.95v-2h-.02zm6.89 1.8c-1.2 0-2.17.4-2.9 1.16a4.2 4.2 0 00-1.07 3 4.2 4.2 0 001.03 2.89c.7.76 1.62 1.14 2.79 1.14 1.2 0 2.17-.4 2.92-1.2a4.26 4.26 0 001.05-2.99c0-1.2-.33-2.12-1.01-2.86a3.7 3.7 0 00-2.81-1.14zm1.51 5.93c-.39.64-.92.96-1.58.96a1.77 1.77 0 01-1.6-.94 3.6 3.6 0 01-.48-1.86c-.03-.66.14-1.31.48-1.88.33-.6.95-.95 1.63-.94.66-.02 1.27.35 1.58.94a3.75 3.75 0 01-.03 3.72zm7.62-5.93c-.46 0-.9.14-1.27.41a2.6 2.6 0 00-.88 1.25h-.04l-.07-1.5h-1.54c.05.74.05 1.57.05 2.47v5.38h1.75v-4.12c-.02-.55.14-1.09.44-1.55.33-.46.88-.73 1.45-.7.18 0 .37.02.55.04V20.6l-.44-.02zm5.05-.02a3.41 3.41 0 00-2.79 1.27 4.45 4.45 0 00-.99 2.95c0 1.2.35 2.17 1.06 2.9.7.71 1.66 1.06 2.9 1.06.9.03 1.8-.13 2.65-.48l-.29-1.2c-.68.25-1.41.38-2.15.37a2.61 2.61 0 01-1.73-.55c-.5-.45-.78-1.1-.77-1.77h5.29c.05-.26.07-.52.07-.79a4.22 4.22 0 00-.7-2.47c-.55-.86-1.41-1.3-2.55-1.3zm-2.06 3.28c.03-.5.21-.97.52-1.36.32-.46.85-.73 1.4-.72.57-.04 1.11.24 1.41.72.24.4.37.87.35 1.34l-3.68.02zM50.36 13.16c.6-.48.88-1.2.88-2.17 0-.85-.26-1.51-.81-1.97-.49-.42-1.21-.61-2.15-.61-.5 0-1 .03-1.5.1v5.26c.43.05.85.07 1.28.07.98 0 1.75-.22 2.3-.68zm-2.72-4.03c.23-.05.47-.07.7-.07.64 0 1.14.18 1.47.5.36.4.54.92.5 1.45 0 .7-.17 1.23-.54 1.6-.37.37-.88.55-1.54.55-.2 0-.4 0-.59-.02V9.13zm6.32.72a1.89 1.89 0 00-1.43.57c-.36.4-.54.93-.52 1.47-.02.52.16 1.03.5 1.42.35.38.85.59 1.36.57.54.02 1.06-.2 1.43-.6.36-.4.55-.92.53-1.46a2.09 2.09 0 00-.5-1.42 1.8 1.8 0 00-1.37-.55zm.72 2.93a.88.88 0 01-.76.46.9.9 0 01-.8-.46c-.16-.27-.24-.6-.23-.91-.01-.33.07-.65.24-.92.15-.3.46-.48.79-.46.32-.01.62.17.76.46.17.27.25.6.25.92.01.32-.07.64-.25.91zm3.71 1.01l.55-1.68c.14-.41.24-.83.31-1.25h.02c.09.41.18.83.3 1.25l.51 1.68h.8l1.22-3.85h-.85l-.49 1.8c-.1.45-.2.87-.26 1.26h-.02c-.09-.41-.18-.83-.3-1.27l-.54-1.8h-.7l-.55 1.85c-.15.5-.26.9-.33 1.22h-.02c-.06-.39-.15-.8-.26-1.24l-.44-1.84h-.9l1.14 3.85h.81v.02zm7.97 0v-2.3c0-.57-.15-.98-.46-1.27a1.23 1.23 0 00-.9-.35 1.44 1.44 0 00-1.25.68h-.02l-.05-.59h-.77c.03.4.03.77.03 1.1v2.75h.87V11.5c0-.24.09-.47.25-.65.15-.2.39-.3.63-.29.53 0 .8.35.8 1.03v2.21h.87zm1.25-5.62h.88v5.62h-.88V8.17zm3.86 1.68a1.89 1.89 0 00-1.42.57c-.36.4-.55.93-.53 1.47-.01.52.17 1.03.5 1.42.36.38.87.59 1.39.57.54.02 1.06-.2 1.42-.6.36-.4.54-.92.5-1.46a2.09 2.09 0 00-.5-1.42 1.8 1.8 0 00-1.36-.55zm.75 2.93a.85.85 0 01-.77.46.9.9 0 01-.79-.46c-.16-.27-.25-.6-.24-.91-.02-.33.06-.65.24-.92.15-.3.46-.48.8-.46a.9.9 0 01.78.46c.17.27.25.6.24.92-.01.32-.1.63-.26.91zm5.05.1v-1.43c0-1.07-.5-1.6-1.54-1.6-.47-.02-.93.1-1.34.33l.18.57c.3-.2.65-.3 1-.29.56 0 .82.27.82.77v.07c-.72 0-1.3.1-1.69.37-.38.22-.6.63-.6 1.07a1.12 1.12 0 001.21 1.14c.45.02.87-.18 1.15-.53h.02l.06.44h.8a2.8 2.8 0 01-.07-.92zm-.86-.4l-.02.15a.79.79 0 01-.3.46.9.9 0 01-.53.18.55.55 0 01-.42-.16.63.63 0 01-.18-.46c0-.52.49-.78 1.45-.78v.6zm3.5 1.4a1.3 1.3 0 001.24-.7h.02l.05.61h.77c-.03-.33-.05-.65-.05-1.05V8.17h-.88v2.2c-.21-.34-.57-.52-1.1-.52-.46 0-.9.2-1.2.55-.34.43-.52.96-.5 1.5-.03.52.14 1.03.46 1.43.29.35.72.55 1.18.55zm-.5-2.98c.18-.25.47-.4.78-.37.2 0 .42.07.57.22.16.13.27.32.3.52a.9.9 0 01.03.27v.63c0 .26-.09.5-.24.7a.8.8 0 01-.69.3.97.97 0 01-.76-.36c-.19-.27-.28-.6-.27-.92-.01-.35.09-.7.29-.99zm7.56 2.98c.54.02 1.06-.2 1.42-.6.36-.4.54-.92.51-1.46a2.09 2.09 0 00-.5-1.42A1.82 1.82 0 0087 9.83a1.89 1.89 0 00-1.42.57c-.36.4-.55.93-.53 1.47-.02.52.16 1.02.5 1.42.36.4.87.61 1.4.59zm-.77-2.93c.15-.3.46-.48.79-.46.32-.01.62.17.77.46.16.27.25.6.24.92 0 .32-.08.64-.24.91a.88.88 0 01-.77.46.9.9 0 01-.79-.46c-.16-.27-.25-.6-.24-.91 0-.33.09-.64.24-.92zm4.63 2.84v-2.3c0-.24.08-.47.24-.65.16-.2.4-.3.64-.29.53 0 .79.35.79 1.03v2.21h.88v-2.3c.03-.46-.13-.92-.44-1.27a1.23 1.23 0 00-.9-.35c-.28 0-.56.07-.8.22-.18.11-.33.27-.43.46h-.02l-.05-.59h-.76c.02.4.02.77.02 1.1v2.75h.83v-.02zm7.86-3.22v-.63h-.97v-.96l-.85.26v.7h-.57v.63h.57v1.95c0 .48.08.83.28 1.05.22.21.51.32.81.3.23.02.46-.01.68-.08l-.02-.65c-.13.02-.26.04-.4.04-.32 0-.5-.24-.5-.72v-1.89h.97zm1.82.9c0-.1.01-.2.04-.3.1-.38.45-.63.84-.62.52 0 .79.35.79 1.05v2.21h.88v-2.3c.03-.47-.13-.93-.44-1.29a1.2 1.2 0 00-.9-.35c-.48-.02-.93.22-1.17.64h-.02V8.17h-.88v5.62h.88v-2.32h-.02zm6.78 2.17l-.13-.6c-.34.14-.7.2-1.05.18-.31.02-.61-.08-.86-.26-.26-.22-.4-.54-.37-.88h2.6c.03-.13.04-.26.03-.39.02-.43-.1-.85-.35-1.2a1.45 1.45 0 00-1.27-.62c-.53-.02-1.04.2-1.36.62-.33.4-.5.92-.49 1.44-.02.53.17 1.04.53 1.42.38.37.9.56 1.43.53.44 0 .88-.07 1.3-.24zm-2.15-2.85c.15-.22.4-.35.68-.35.28-.02.54.11.68.35.12.2.18.43.18.66h-1.8c.03-.24.12-.46.26-.66zM129.9 0H6.62C2.97 0 .01 2.53 0 5.65v27.2c0 3.14 2.98 5.68 6.65 5.68h123.27c3.67 0 6.65-2.54 6.65-5.67V5.65c-.03-3.13-3-5.65-6.67-5.65zm5.26 32.86c-.02 2.52-2.41 4.56-5.37 4.57H6.52c-2.96 0-5.35-2.05-5.36-4.57V5.65c.01-2.52 2.41-4.55 5.36-4.56h123.27c2.96.02 5.35 2.06 5.37 4.58v27.19z" fill-rule="nonzero"/></svg>
