<svg width="80" height="80" xmlns="http://www.w3.org/2000/svg" xmlns:xlink="http://www.w3.org/1999/xlink">
    <defs>
        <rect id="a" x="0" y="0" width="80" height="80" rx="18.824"/>
        <path id="c" d="M0 .023h40.671v30.33H.001z"/>
    </defs>
    <g fill="none" fill-rule="evenodd">
        <mask id="b" fill="#fff">
            <use xlink:href="#a"/>
        </mask>
        <use fill="#FFF" xlink:href="#a"/>
        <g mask="url(#b)">
            <g transform="translate(6 27.37)">
                <mask id="d" fill="#fff">
                    <use xlink:href="#c"/>
                </mask>
                <path d="M22.293 12.057l.033-.022L39.818.03l-4.652.006-14.705 10.091-.063.043-.016-.017-5.724-5.684C10.938.847 8-.06 4.034.029l12.722 12.642L0 24.169l4.627.011 14.024-9.623.02.02 10.935 10.886c3.414 3.27 7.094 4.972 11.065 4.888L22.293 12.057z" fill="#D8353B" mask="url(#d)"/>
            </g>
            <path d="M67.889 40.649c-2.1 7.206-7.799 9.204-14.45 8.984-7.957-.264-10.191-4.15-8.02-11.145 2.206-7.104 8.039-9.187 14.395-9.255 5.1-.055 7.714 2.093 8.652 4.195.735 1.707.176 4.639-.577 7.22m-7.095-13.645c-9.305-.102-17.464 2.38-20.425 11.14-2.747 8.126.31 13.395 11.563 13.718 9.408.27 17.683-1.632 20.889-10.852 1.096-3.152 1.495-6.828.456-8.915-1.327-2.573-4.508-5.004-12.483-5.091z" fill="#646771"/>
        </g>
    </g>
</svg>
