<svg width="36" height="50" xmlns="http://www.w3.org/2000/svg">
  <g fill="none" fill-rule="evenodd">
    <path d="M4 4v42h28V4H4zM0 0h36v50H0V0z" fill="#44423E" fill-rule="nonzero"/>
    <path fill="#44423E" d="M7 32h22v4H7zm0 7h22v4H7z"/>
    <path d="M13.422 21.23c0-.514-.127-.917-.381-1.21-.254-.293-.7-.57-1.338-.83a27.251 27.251 0 01-1.767-.792 6.131 6.131 0 01-1.397-.927 3.644 3.644 0 01-.898-1.221c-.209-.462-.313-1.022-.313-1.68 0-1.1.371-2.007 1.113-2.72.743-.712 1.732-1.127 2.97-1.245v-2.06h1.552v2.1c1.191.175 2.127.665 2.808 1.47.68.803 1.02 1.824 1.02 3.06h-3.3c0-.676-.131-1.197-.391-1.562-.26-.364-.632-.547-1.114-.547-.43 0-.763.135-1 .406-.238.27-.357.643-.357 1.118 0 .482.137.864.41 1.147.274.284.713.554 1.318.81.606.258 1.177.525 1.714.802.537.276 1.001.59 1.392.942.39.352.697.762.918 1.23.221.47.332 1.032.332 1.69 0 1.113-.353 2.021-1.06 2.725-.706.703-1.668 1.113-2.885 1.23v1.963h-1.553v-1.973c-1.42-.15-2.508-.636-3.267-1.46-.758-.823-1.137-1.909-1.137-3.257h3.29c0 .743.165 1.307.494 1.695.329.387.796.58 1.401.58.443 0 .791-.131 1.045-.395.254-.263.38-.626.38-1.089z" fill="#FFF" fill-rule="nonzero"/>
  </g>
</svg>
