<svg width="36" height="51" xmlns="http://www.w3.org/2000/svg">
  <g fill="none" fill-rule="evenodd">
    <path fill="#44423E" d="M10.939 40.981h15v4h-15zm0-6h15v4h-15zm3.001 12h9a4 4 0 01-4 4h-1a4 4 0 01-4-4z"/>
    <path d="M28.11 8.789c-5.076-5.077-14.265-5.077-19.342 0-5.077 5.076-5.077 13.308-.006 18.378 4.015 3.998 6.177 7.882 6.177 11.814h-1 8c0-3.93 2.162-7.813 6.175-11.81 5.074-5.077 5.073-13.306-.003-18.382zm2.83 21.213c-3.334 3.32-5 6.312-5 8.979h-15c0-2.667-1.667-5.66-5-8.98C-.7 23.364-.7 12.6 5.94 5.962c6.638-6.64 18.36-6.64 25 0 6.638 6.638 6.638 17.402 0 24.04z" fill="#44423E" fill-rule="nonzero"/>
    <path d="M18.44 21.273c-1.1 1.66-2.709 2.708-4.5 2.708-3.314 0-6-3.582-6-8h4c0 1.305.37 2.476.957 3.257.402.536.77.743 1.042.743.274 0 .641-.207 1.043-.743.586-.781.957-1.952.957-3.257h5c0 1.305.372 2.476.958 3.257.402.536.77.743 1.042.743.274 0 .641-.207 1.043-.743.586-.781.957-1.952.957-3.257h4c0 4.418-2.686 8-6 8-1.792 0-3.4-1.048-4.5-2.708z" fill="#FFF" fill-rule="nonzero"/>
  </g>
</svg>
