<svg width="50" height="50" xmlns="http://www.w3.org/2000/svg">
  <g fill="none" fill-rule="evenodd">
    <path d="M25 46c11.598 0 21-9.402 21-21S36.598 4 25 4 4 13.402 4 25s9.402 21 21 21zm0 4C11.193 50 0 38.807 0 25S11.193 0 25 0s25 11.193 25 25-11.193 25-25 25z" fill="#44423E" fill-rule="nonzero"/>
    <path d="M23 11.142V7h4v4.142a14.119 14.119 0 00-4 0zm7.198.855l2.07-3.585 3.464 2-2.071 3.587a13.985 13.985 0 00-3.463-2.002zm5.803 4.342l3.587-2.071 2 3.464-3.585 2.07a13.985 13.985 0 00-2.002-3.463zM38.858 23H43v4h-4.142a14.119 14.119 0 000-4zm-.855 7.198l3.585 2.07-2 3.464-3.587-2.071a13.985 13.985 0 002.002-3.463zm-4.342 5.803l2.071 3.587-3.464 2-2.07-3.585a13.985 13.985 0 003.463-2.002zM27 38.858V43h-4v-4.142a14.119 14.119 0 004 0zm-7.198-.855l-2.07 3.585-3.464-2 2.071-3.587a13.985 13.985 0 003.463 2.002zm-5.803-4.342l-3.587 2.071-2-3.464 3.585-2.07a13.985 13.985 0 002.002 3.463zM11.142 27H7v-4h4.142a14.119 14.119 0 000 4zm.855-7.198l-3.585-2.07 2-3.464 3.587 2.071a13.985 13.985 0 00-2.002 3.463zm4.342-5.803l-2.071-3.587 3.464-2 2.07 3.585a13.985 13.985 0 00-3.463 2.002z" fill="#44423E"/>
    <path fill="#FFF" d="M23 7h4v20h-4z"/>
    <path fill="#FFF" d="M37 23v4H23v-4z"/>
  </g>
</svg>
