<svg width="50" height="47" xmlns="http://www.w3.org/2000/svg">
  <g fill="none">
    <path d="M40 13a6 6 0 110 12v4c5.523 0 10-4.477 10-10S45.523 9 40 9v4z" fill="#FFF"/>
    <path d="M22 25V11H4v14h18zM4 7h22v22H4a4 4 0 01-4-4V11a4 4 0 014-4z" fill="#44423E"/>
    <path d="M16.685 43h2.522l-2.545-14h-5.704l5.727 14zM5 25h15l4 22h-7.315a4 4 0 01-3.702-2.485L5 25zm33 6.935V4.065l-12 7.2v13.47l12 7.2zM22 27V9L35.942.635A4 4 0 0142 4.065v27.87a4 4 0 01-6.058 3.43L22 27z" fill="#44423E"/>
  </g>
</svg>
