<svg width="202" height="181" xmlns="http://www.w3.org/2000/svg"><g fill-rule="nonzero" stroke="#393B41" fill="none"><g transform="translate(59.5)"><path d="M41 162a194.5 194.5 0 0 0 11.8-70V67 46C52.8 14.5 48.3.4 41.5.4 34.4.5 29.3 15 29.3 45.9V92c0 26.2 4 49.6 11.7 70z"/><path d="M34.5 8.3h13" stroke-linecap="square"/><rect fill="#FFF" x="38.9" y="125.4" width="4.2" height="37.4" rx="2.1"/><path d="M.5 162v8.7l40 4 41.1-4V162l-40.1-7.8-41 7.8z" fill="#FFF"/><path d="M36.2 173.8v-8.3H0M45.9 173.8v-8.3h35.8"/><path d="M41 152c-1.6 0-2.6 3.4-2.6 10 0 3.9.8 17.8 2.6 17.8 2 0 2.7-13.9 2.7-18 0-9.1-2.1-9.8-2.8-9.8" fill="#FFF"/></g><path d="M99.3 27.9c-4.3 2-7.5 4-9.4 6.1 2.1 1.8 3 2.5 4.8 3.8 1-1 2.6-2.1 4.6-3.2V28zM101 27.8v6.8c2.2 1 3.9 2.1 5 3.2 2-1.3 3-2 5.2-3.8-2.1-2-5.5-4-10.3-6.2zM89.2 43.2h4v-3l-4-3.5M112 43.2h-4v-3l4-3.5"/><g><path d="M76.6 115l2.5 5.7h4.5l2.5-5.8V98.3c0-2-1.6-3.5-3.5-3.5H80c-2 0-3.5 1.6-3.5 3.5V115z"/><path d="M77 98.3h8.3" stroke-linecap="square"/><path d="M77 100.4l-76-13V76l88.2-5.3"/><path d="M45.5 95v-4.2l31.5 5M34.2 92.6v-4.4L4.5 83.8M92.7 134.5l-7-6.1-1.7-7.9"/></g><g><path d="M125.4 115l-2.5 5.7h-4.5l-2.5-5.8V98.3c0-2 1.6-3.5 3.5-3.5h2.5c2 0 3.5 1.6 3.5 3.5V115z"/><path d="M125 98.3h-8.3" stroke-linecap="square"/><path d="M125 100.4l76-13V76l-88.2-5.3"/><path d="M156.5 95v-4.2l-31.5 5M167.8 92.6v-4.4l29.7-4.4M109.3 134.5l7-6.1 1.7-7.9"/></g></g></svg>