<svg width="52" height="58" xmlns="http://www.w3.org/2000/svg">
  <g fill="#D8353B">
    <path d="M48.2 3.5l-5.4 48.8a2.5 2.5 0 01-1 1.6h-.1a2.1 2.1 0 01-1.6.6H11.4a3 3 0 01-1.8-.6 3.4 3.4 0 01-.8-1.7L3.4 3.5h44.8zm3.3-3H0l5.8 52.2a5.7 5.7 0 001.8 3.5 5.702 5.702 0 003.8 1.4h28.7a5.7 5.7 0 005.6-4.9L51.5.5z"/>
    <path d="M1.9 17.5l3.9 35.2a5.7 5.7 0 001.8 3.5 5.8 5.8 0 002.6 1.3h31.1a5 5 0 002.5-1.3 5.3 5.3 0 001.9-3.5l3.9-35.2H1.9zm31.3 29.2a9.8 9.8 0 01-3.2 3.2 8.8 8.8 0 01-4.2 1.1 8.9 8.9 0 01-4.3-1.1 9.8 9.8 0 01-3.2-3.2 8.8 8.8 0 01-1.1-4.2 11.6 11.6 0 011.3-4.9 31.4 31.4 0 013-5 36.9 36.9 0 012.9-4l1.4-1.6 1.3 1.6a37.9 37.9 0 013 4 39.4 39.4 0 012.9 5 11.6 11.6 0 011.3 4.9 8.8 8.8 0 01-1.1 4.2z"/>
  </g>
</svg>
