<svg width="255" height="255" xmlns="http://www.w3.org/2000/svg" xmlns:xlink="http://www.w3.org/1999/xlink"><defs><linearGradient x1="50%" y1="-31.489%" x2="50%" y2="91.317%" id="a"><stop stop-color="#FFD7D7" offset="0%"/><stop stop-color="#EA3A3A" offset="100%"/></linearGradient><linearGradient x1="50%" y1="-64.855%" x2="50%" y2="120.725%" id="d"><stop stop-color="#FFFEFE" offset="0%"/><stop stop-color="#F88" offset="100%"/></linearGradient><linearGradient x1="50%" y1="-12.228%" x2="50%" y2="174.985%" id="f"><stop stop-color="#FFF" offset="0%"/><stop stop-color="#FFA8A8" offset="100%"/></linearGradient><linearGradient x1="50%" y1="-12.228%" x2="50%" y2="173.764%" id="h"><stop stop-color="#FFA8A8" offset="0%"/><stop stop-color="#FFF" offset="100%"/></linearGradient><linearGradient x1="50%" y1="-12.228%" x2="50%" y2="174.985%" id="j"><stop stop-color="#FFF" offset="0%"/><stop stop-color="#FFA8A8" offset="100%"/></linearGradient><linearGradient x1="50%" y1="-12.228%" x2="50%" y2="174.985%" id="l"><stop stop-color="#FFA8A8" offset="0%"/><stop stop-color="#FFF" offset="100%"/></linearGradient><linearGradient x1="50%" y1="-12.228%" x2="50%" y2="100%" id="n"><stop stop-color="#FFEFEF" offset="0%"/><stop stop-color="#FF8181" offset="100%"/></linearGradient><linearGradient x1="50%" y1="-12.228%" x2="50%" y2="100%" id="o"><stop stop-color="#FFB9B9" offset="0%"/><stop stop-color="#FF8181" offset="100%"/></linearGradient><linearGradient x1="155.937%" y1="50.09%" x2=".09%" y2="50.09%" id="p"><stop stop-color="#FFF" offset="0%"/><stop stop-color="#FFD6D6" offset="76.251%"/><stop stop-color="#FFD7D7" offset="100%"/></linearGradient><path d="M.179 9.65C7.42 3.276 37.259 0 37.259 0h59.816c13.335 0 33.777 4.857 33.777 9.65 0 4.792-20.442 9.649-33.777 9.649H37.26S7.42 16.022.179 9.649z" id="c"/><path id="g" d="M13.555.025L10.4 38.09 3.924 71.081 0 73.744l13.475-.826L48.365.025z"/><path d="M23.756.036L12.457 24.329s-1.455 3.808-5.861 3.808H.038L4.983 0l18.773.036z" id="k"/><filter x="-11.3%" y="-10.4%" width="122.6%" height="120.8%" filterUnits="objectBoundingBox" id="b"><feOffset dx="-5" dy="9" in="SourceAlpha" result="shadowOffsetOuter1"/><feColorMatrix values="0 0 0 0 0.776470588 0 0 0 0 0.149019608 0 0 0 0 0.17254902 0 0 0 0.8 0" in="shadowOffsetOuter1" result="shadowMatrixOuter1"/><feMerge><feMergeNode in="shadowMatrixOuter1"/><feMergeNode in="SourceGraphic"/></feMerge></filter></defs><g transform="translate(-14 -6)" fill="none" fill-rule="evenodd"><ellipse fill="url(#a)" cx="141.2" cy="133.03" rx="127.2" ry="127.03"/><path d="M219.713 89.599c-24.097-43.474-78.875-59.18-122.348-35.083-29.228 16.201-45.905 46.269-46.374 77.446m11.29 44.903c24.099 43.473 78.876 59.18 122.35 35.083 29.591-16.403 46.318-47.021 46.383-78.613" stroke="#FFD1D1" stroke-width="16.934" stroke-linejoin="bevel"/><path fill="#FFD1D1" d="M228.554 62.558l-.559 31.996L196 93.995zM54 202.995L54.558 171l31.996.558z"/><g filter="url(#b)" transform="translate(69 49)"><g transform="translate(22.19 73.719)"><mask id="e" fill="#fff"><use xlink:href="#c"/></mask><use fill="url(#d)" xlink:href="#c"/><path fill="#C6262C" opacity=".5" mask="url(#e)" d="M37.055 10.372l-24.03 6.755L-3.618 9.65h40.673z"/></g><path d="M126.965 78.573a6.253 6.253 0 00-1.567-.623L125.89 75c1.014.104 1.93.26 2.757.46l-1.682 3.112zm2.51-2.89c6.901 2.057 6.87 7.242 6.87 7.242h-7.052c0-1.899-.704-3.102-1.637-3.875l1.819-3.366zm-4.896 2.104c-.91-.131-1.593-.084-1.593-.084v-2.848c.732 0 1.416.028 2.07.074l-.477 2.858zm2.386 10.376l1.682 3.112c-.827.2-1.743.356-2.757.46l-.492-2.95a6.243 6.243 0 001.567-.622zm2.51 2.889l-1.82-3.366c.934-.774 1.638-1.977 1.638-3.875h7.053s.03 5.185-6.871 7.24zm-4.896-2.103l.476 2.858c-.653.046-1.337.074-2.069.074v-2.848s.682.047 1.593-.084z" fill="#FE7070"/><path fill="url(#f)" d="M59.45 73.719l-3.155-38.065-6.476-32.991L45.895 0 59.37.826 94.26 73.72z"/><g transform="translate(45.895 92.992)"><mask id="i" fill="#fff"><use xlink:href="#g"/></mask><use fill="url(#h)" xlink:href="#g"/><path fill="#C6262C" opacity=".5" mask="url(#i)" d="M47.208 4.444H16.38v6.704l-5.722 5.655V-2.146h44.026z"/></g><path d="M26.65 83.332L15.352 59.04s-1.455-3.808-5.86-3.808H2.932l4.944 28.137 18.774-.036z" fill="url(#j)"/><g transform="translate(2.894 83.368)"><mask id="m" fill="#fff"><use xlink:href="#k"/></mask><use fill="url(#l)" xlink:href="#k"/><path fill="#C6262C" opacity=".5" mask="url(#m)" d="M23.756 1.684L-1.93 11.77 3.86.206 21.466 0z"/></g><path d="M62.275 73.897V63.088l-1.532-.477h-13.83c-7.25 0-13.32 3.577-13.32 3.577v4.61s6.07 3.576 13.32 3.576h13.83l1.532-.477z" fill="url(#n)"/><path d="M62.275 103.663v-10.81l-1.532-.477h-13.83c-7.25 0-13.32 3.577-13.32 3.577v4.61s6.07 3.576 13.32 3.576h13.83l1.532-.476z" fill="url(#o)"/><path d="M26.662 81.888l32.583.623v1.714l-32.581.623c-2.824.29-6.489.465-10.493.465C7.241 85.313 0 84.442 0 83.368s7.24-1.945 16.171-1.945c4.004 0 7.667.175 10.49.465z" fill="url(#p)"/></g></g></svg>