<svg width="346" height="230" xmlns="http://www.w3.org/2000/svg" xmlns:xlink="http://www.w3.org/1999/xlink"><defs><linearGradient x1="50%" y1="37.606%" x2="50%" y2="100%" id="a"><stop stop-color="#C6262C" offset="0%"/><stop stop-color="#FF8F93" offset="100%"/></linearGradient><linearGradient x1="50%" y1=".179%" x2="50%" y2="100%" id="d"><stop stop-color="#C6262C" offset="0%"/><stop stop-color="#FFABAB" offset="75.016%"/><stop stop-color="#FFD6D7" offset="100%"/></linearGradient><linearGradient x1="50%" y1="-118.2%" x2="50%" y2="208.324%" id="e"><stop stop-color="#FFD7D7" offset="0%"/><stop stop-color="#FE5757" offset="100%"/></linearGradient><linearGradient x1="50%" y1="0%" x2="50%" y2="87.6%" id="f"><stop stop-color="#FFD7D7" offset="0%"/><stop stop-color="#FE5757" offset="100%"/></linearGradient><linearGradient x1="116.244%" y1="58.92%" x2="-6.781%" y2="60.531%" id="g"><stop stop-color="#C6262C" offset="0%"/><stop stop-color="#FE7070" offset="100%"/></linearGradient><linearGradient x1="50%" y1="-118.2%" x2="50%" y2="208.324%" id="h"><stop stop-color="#FFD7D7" offset="0%"/><stop stop-color="#FE5757" offset="100%"/></linearGradient><linearGradient x1="50%" y1="0%" x2="50%" y2="100%" id="i"><stop stop-color="#FFD7D7" offset="0%"/><stop stop-color="#FE5757" offset="100%"/></linearGradient><filter x="-8.7%" y="-16.7%" width="117.3%" height="133.3%" filterUnits="objectBoundingBox" id="c"><feGaussianBlur stdDeviation="24" in="SourceAlpha" result="shadowBlurInner1"/><feOffset dy="-12" in="shadowBlurInner1" result="shadowOffsetInner1"/><feComposite in="shadowOffsetInner1" in2="SourceAlpha" operator="arithmetic" k2="-1" k3="1" result="shadowInnerInner1"/><feColorMatrix values="0 0 0 0 0.882352941 0 0 0 0 0.250980392 0 0 0 0 0.196078431 0 0 0 1 0" in="shadowInnerInner1"/></filter><path d="M0 230c55.003 0 173-49.742 173-180v180H0zm346 0H173V50c0 130.258 117.997 180 173 180z" id="b"/></defs><g fill="none" fill-rule="evenodd"><g><use fill="url(#a)" xlink:href="#b"/><use fill="#000" filter="url(#c)" xlink:href="#b"/></g><path d="M106 230c21.302 0 67-45.873 67-166v166h-67zm134 0h-67V64c0 120.127 45.698 166 67 166z" fill="url(#d)"/><path d="M299.761 69.397L172.39 54.013a.987.987 0 00-.322 0L46.24 69.397c0 1.512-.538 3.603 0 3.603H299.76c.538 0 0-1.099 0-1.637v-1.966z" fill="url(#e)"/><path d="M158 76.487C158.67 85.18 165.476 92 172.77 92c3.87 0 6.622-1.9 9.17-5.007 2.25-2.754 3.748-6.434 4.06-10.506l-.692-58.354C185.308 8.691 180.511 0 172.769 0c-3.87 0-7.963 2.196-10.328 5.545-2.357 3.347-3.749 7.867-3.749 12.588L158 76.487z" fill="url(#f)"/><path d="M158 80.725C158 90.227 164.296 98 172 98s14-7.773 14-17.275L185.932 75c-.31 4.096-1.801 7.796-4.041 10.565-2.535 3.126-6.04 5.073-9.891 5.073-7.257 0-13.266-6.896-13.932-15.638L158 80.725z" fill="#FE5757"/><path d="M46.007 70.527c.177-1.225-.403-1.38 1.233-1.653L158.385 55.69l.086-7.147h-10.788c-.103 0-.186-.117-.186-.263 0-.525.269-.974.635-1.06l10.377-1.804.333-27.53c0-4.657 1.4-9.114 3.77-12.416C164.993 2.167 169.108 0 173 0v98c-7.786 0-14.923-7.624-14.923-16.944l.07-5.615.007-.597S48.45 72.477 46.748 72.477c-.87 0-.741-.658-.741-1.95z" fill="url(#g)"/><path d="M231.324 42.22l-59.248-7.216a.653.653 0 00-.152 0l-59.248 7.216c-.903.1-1.564.616-1.564 1.22 0 .166-.252 5.56 0 5.56h121.776c.252 0 0-5.394 0-5.56 0-.604-.661-1.12-1.564-1.22z" fill="url(#h)"/><path d="M173.8 35.262L175 80.9c.027.605-1.482 1.1-2.57 1.1h-1.125c-1.089 0-2.333-.495-2.305-1.1l2.4-45.638c.016-.381 1.182-1.569 1.2-1.187l1.2 1.187zM299.333 74L298 69.143 300.64 57H302v17zM47.667 74L49 69.143 46.36 57H45v17z" fill="#C6262C"/><path d="M186 79.243c.382 4.895 3.833 8.757 8 8.757 2.212 0 4.224-1.09 5.68-2.84 1.286-1.552 2.142-3.624 2.32-5.917l-.395-12.052C201.605 61.875 198.424 57 194 57c-2.212 0-4.11 1.217-5.462 3.102-1.347 1.886-2.143 4.43-2.143 7.09L186 79.241z" fill="url(#i)"/><path d="M186 65.314c0-2.347 1.224-3.913 2.564-5.576C189.91 58.074 191.8 57 194 57v31c-4.402 0-8-3.842-8-8.538V65.314z" fill="#FE5757"/><path d="M200 81c0 2.762-2.686 5-6 5s-6-2.238-6-5 2.686-5 6-5 6 2.238 6 5" fill="#C6262C"/><path d="M143 79.243c.382 4.895 3.833 8.757 8 8.757 2.212 0 4.224-1.09 5.68-2.84 1.286-1.552 2.142-3.624 2.32-5.917l-.395-12.052C158.605 61.875 155.424 57 151 57c-2.212 0-7.605 7.532-7.605 10.191L143 79.243z" fill="url(#i)"/><path d="M143 65.314c0-2.347 1.224-3.913 2.564-5.576C146.91 58.074 148.8 57 151 57v31c-4.402 0-8-3.842-8-8.538V65.314z" fill="#FE5757"/><path d="M157 81c0 2.762-2.686 5-6 5s-6-2.238-6-5 2.686-5 6-5 6 2.238 6 5" fill="#C6262C"/></g></svg>