<svg width="238" height="232" xmlns="http://www.w3.org/2000/svg" xmlns:xlink="http://www.w3.org/1999/xlink"><defs><linearGradient x1="50%" y1=".179%" x2="50%" y2="99.76%" id="a"><stop stop-color="#FFD7D7" offset="0%"/><stop stop-color="#FE5757" offset="100%"/></linearGradient><linearGradient x1="50%" y1=".179%" x2="50%" y2="100%" id="d"><stop stop-color="#FFD7D7" offset="0%"/><stop stop-color="#FE5757" offset="100%"/></linearGradient><linearGradient x1="50%" y1="0%" x2="50%" y2="114.743%" id="i"><stop stop-color="#EC3E3E" offset="0%"/><stop stop-color="#FE5757" offset="16.987%"/><stop stop-color="#FFD7D7" offset="100%"/></linearGradient><linearGradient x1="50%" y1="-82.725%" x2="50%" y2="100%" id="j"><stop stop-color="#FE5757" offset="0%"/><stop stop-color="#FFD7D7" offset="100%"/></linearGradient><linearGradient x1="50%" y1="-20.3%" x2="50%" y2="114.618%" id="m"><stop stop-color="#FFD7D7" offset="0%"/><stop stop-color="#F53232" offset="100%"/></linearGradient><linearGradient x1="50%" y1="-64.855%" x2="50%" y2="120.725%" id="p"><stop stop-color="#FFD7D7" offset="0%"/><stop stop-color="#FE5757" offset="100%"/></linearGradient><filter x="-8.4%" y="-10.3%" width="116.8%" height="120.6%" filterUnits="objectBoundingBox" id="c"><feGaussianBlur stdDeviation="11" in="SourceAlpha" result="shadowBlurInner1"/><feOffset dy="-11" in="shadowBlurInner1" result="shadowOffsetInner1"/><feComposite in="shadowOffsetInner1" in2="SourceAlpha" operator="arithmetic" k2="-1" k3="1" result="shadowInnerInner1"/><feColorMatrix values="0 0 0 0 0.776470588 0 0 0 0 0.149019608 0 0 0 0 0.17254902 0 0 0 1 0" in="shadowInnerInner1"/></filter><filter x="-39.3%" y="-15.3%" width="178.6%" height="130.6%" filterUnits="objectBoundingBox" id="f"><feGaussianBlur stdDeviation="11" in="SourceAlpha" result="shadowBlurInner1"/><feOffset dy="-11" in="shadowBlurInner1" result="shadowOffsetInner1"/><feComposite in="shadowOffsetInner1" in2="SourceAlpha" operator="arithmetic" k2="-1" k3="1" result="shadowInnerInner1"/><feColorMatrix values="0 0 0 0 0.776470588 0 0 0 0 0.149019608 0 0 0 0 0.17254902 0 0 0 1 0" in="shadowInnerInner1"/></filter><filter x="-39.3%" y="-15.3%" width="178.6%" height="130.6%" filterUnits="objectBoundingBox" id="h"><feGaussianBlur stdDeviation="11" in="SourceAlpha" result="shadowBlurInner1"/><feOffset dy="-11" in="shadowBlurInner1" result="shadowOffsetInner1"/><feComposite in="shadowOffsetInner1" in2="SourceAlpha" operator="arithmetic" k2="-1" k3="1" result="shadowInnerInner1"/><feColorMatrix values="0 0 0 0 0.776470588 0 0 0 0 0.149019608 0 0 0 0 0.17254902 0 0 0 1 0" in="shadowInnerInner1"/></filter><filter x="-21.4%" y="-10.7%" width="142.8%" height="142.7%" filterUnits="objectBoundingBox" id="k"><feOffset dy="11" in="SourceAlpha" result="shadowOffsetOuter1"/><feGaussianBlur stdDeviation="5.5" in="shadowOffsetOuter1" result="shadowBlurOuter1"/><feColorMatrix values="0 0 0 0 0.776470588 0 0 0 0 0.149019608 0 0 0 0 0.17254902 0 0 0 1 0" in="shadowBlurOuter1"/></filter><filter x="-11.1%" y="-28.9%" width="122.2%" height="215.8%" filterUnits="objectBoundingBox" id="n"><feOffset dy="11" in="SourceAlpha" result="shadowOffsetOuter1"/><feGaussianBlur stdDeviation="5.5" in="shadowOffsetOuter1" result="shadowBlurOuter1"/><feColorMatrix values="0 0 0 0 0.776470588 0 0 0 0 0.149019608 0 0 0 0 0.17254902 0 0 0 1 0" in="shadowBlurOuter1"/></filter><path d="M26.422 33.443C26.905 18.84 39.142 7 53.762 7h132.475c14.617 0 26.857 11.83 27.341 26.443L218 167H22l4.422-133.557z" id="b"/><path d="M12.7 123H42v95.3c0 7.014-5.686 12.7-12.7 12.7H12.7C5.687 231 0 225.314 0 218.3v-82.6c0-7.014 5.686-12.7 12.7-12.7z" id="e"/><path d="M196 123h29.3c7.014 0 12.7 5.686 12.7 12.7v82.6c0 7.014-5.686 12.7-12.7 12.7h-16.6c-7.014 0-12.7-5.686-12.7-12.7V123z" id="g"/><path d="M78.928 79.784C79.82 71.067 87.65 64 96.41 64h44.178c8.763 0 16.592 7.08 17.483 15.784l7.635 74.586c.714 6.975-4.395 12.63-11.413 12.63H82.706c-7.017 0-12.128-5.648-11.413-12.63l7.635-74.586z" id="l"/><path d="M29.078 168.308C26.578 159.302 32.142 152 41.486 152h156.027c9.354 0 14.908 7.304 12.408 16.308l-3.191 11.496c-1.564 5.631-7.566 10.196-13.422 10.196H45.692c-5.85 0-11.859-4.565-13.422-10.196l-3.192-11.496z" id="o"/></defs><g fill="none" fill-rule="evenodd"><g><use fill="url(#a)" xlink:href="#b"/><use fill="#000" filter="url(#c)" xlink:href="#b"/></g><g><use fill="url(#d)" xlink:href="#e"/><use fill="#000" filter="url(#f)" xlink:href="#e"/></g><g><use fill="url(#d)" xlink:href="#g"/><use fill="#000" filter="url(#h)" xlink:href="#g"/></g><path d="M48.5 124.541l6.765 7.16A6.35 6.35 0 0157 136.064v86.528A8.41 8.41 0 0148.5 231a8.593 8.593 0 01-8.5-8.593v-94.485a4.922 4.922 0 018.5-3.38zM190.5 124.543l-6.767 7.168a6.35 6.35 0 00-1.733 4.36V222.5a8.5 8.5 0 0017 0v-94.579a4.921 4.921 0 00-8.5-3.378z" fill="#C6262C"/><path d="M39 186h161v39.138a6.863 6.863 0 01-6.866 6.862H45.866A6.864 6.864 0 0139 225.138V186z" fill="#E63B41"/><path d="M79.179 20.698C80.485 12.028 88.651 5 97.411 5h44.178c8.763 0 16.927 7.032 18.232 15.698l6.288 41.747C167.153 69.379 162.312 75 155.294 75H83.706c-7.017 0-11.859-5.625-10.815-12.555l6.288-41.747z" fill="url(#i)" transform="rotate(-180 119.5 40)"/><path d="M78.75 15.637C80.291 7 88.65 0 97.41 0h44.178c8.763 0 17.118 7 18.662 15.637l5.513 30.85C166.999 53.399 162.312 59 155.294 59H83.706c-7.017 0-11.705-5.604-10.47-12.512l5.513-30.851z" fill="url(#j)" transform="rotate(-180 119.5 29.5)"/><g><use fill="#000" filter="url(#k)" xlink:href="#l"/><use fill="url(#m)" xlink:href="#l"/></g><path stroke="#FFD1D1" stroke-width="16.934" stroke-linejoin="bevel" d="M75 118.038L103.236 146 182 68"/><g><use fill="#000" filter="url(#n)" xlink:href="#o"/><use fill="url(#p)" xlink:href="#o"/></g></g></svg>