<svg width="136" height="39" xmlns="http://www.w3.org/2000/svg"><path id="google-play" fill="#393b41" d="M129.391 0H6.113C2.732.01-.003 2.546 0 5.67v27.211c0 3.131 2.748 5.67 6.137 5.67h123.278c3.389 0 6.137-2.539 6.137-5.67V5.67c-.021-3.132-2.77-5.663-6.16-5.67zm5.042 32.881c-.013 2.522-2.226 4.564-4.959 4.576H6.034c-2.733-.012-4.946-2.054-4.959-4.576V5.67c.013-2.522 2.226-4.563 4.959-4.575h123.44c2.733.012 4.946 2.053 4.959 4.575v27.211zm-85.344-11.8h-5.925v1.752h4.191c-.197 2.452-2.26 3.503-4.191 3.503a4.702 4.702 0 01-4.697-4.707 4.702 4.702 0 014.719-4.685 4.522 4.522 0 013.16 1.27l1.229-1.27a6.265 6.265 0 00-4.455-1.751c-3.687.022-6.518 3.108-6.518 6.436a6.516 6.516 0 001.962 4.594 6.548 6.548 0 004.644 1.864c3.467 0 5.99-2.364 5.99-5.867a4.912 4.912 0 00-.109-1.138zm5.048-1.269a4.164 4.164 0 00-4.148 4.174 4.165 4.165 0 004.177 4.145 4.165 4.165 0 004.162-4.16c-.044-2.758-2.194-4.159-4.191-4.159zm0 6.655c-1.317 0-2.37-1.05-2.37-2.517 0-1.467 1.03-2.518 2.37-2.518 1.207 0 2.326.963 2.326 2.518 0 1.554-1.12 2.517-2.326 2.517zm9.173-6.655a4.164 4.164 0 00-4.148 4.174 4.165 4.165 0 004.177 4.145 4.165 4.165 0 004.163-4.16c-.022-2.758-2.195-4.159-4.192-4.159zm.022 6.655c-1.317 0-2.37-1.05-2.37-2.517 0-1.467 1.031-2.518 2.37-2.518 1.207 0 2.326.963 2.326 2.518 0 1.554-1.12 2.517-2.326 2.517zm11.214-5.714a2.95 2.95 0 00-2.238-.941c-2.239 0-3.994 1.948-3.994 4.138 0 2.495 2.04 4.159 3.95 4.159 1.185 0 1.821-.46 2.282-1.007v.81c0 1.423-.878 2.277-2.194 2.277a2.306 2.306 0 01-2.13-1.467l-1.601.657c.57 1.204 1.712 2.452 3.73 2.452 2.217 0 3.907-1.402 3.907-4.313v-7.443h-1.734v.678h.022zm-2.107 5.714c-1.185 0-2.304-.963-2.304-2.496 0-1.598 1.141-2.539 2.326-2.539 1.098 0 2.217.941 2.217 2.518 0 1.62-1.12 2.517-2.239 2.517zm15.406-4.247c-.548-1.313-1.8-2.43-3.445-2.43-2.107 0-3.885 1.664-3.885 4.138 0 2.605 1.976 4.16 4.082 4.16 1.756 0 2.831-.964 3.49-1.818l-1.427-.963a2.334 2.334 0 01-2.04 1.138 2.147 2.147 0 01-2.042-1.248l5.575-2.298-.308-.679zm-5.574 1.62c-.154-1.204.988-2.43 2.173-2.43a1.651 1.651 0 011.536.876L82.27 23.84zm-4.587-8.21h1.822v12.216h-1.822V15.631zm24.514 0h1.821v12.216h-1.821V15.631zm-5.267 0h-4.433v12.238h1.821v-4.444h2.59a3.902 3.902 0 003.917-3.886 3.902 3.902 0 00-3.895-3.907zm0 5.955h-2.59V17.47h2.59a2.06 2.06 0 012.063 2.057 2.06 2.06 0 01-2.063 2.058zm21.507 3.656l-2.392-5.45h-1.997l3.401 7.727-1.91 4.313h1.998l5.31-12.04h-1.996l-2.414 5.45zm-12.729-4.115l1.47.985c1.076-1.861 4.104-1.423 4.302.569-.91-.27-1.86-.38-2.81-.329-1.404.132-2.61 1.03-2.808 2.496-.11.788.066 1.773.614 2.364.856.92 2.283 1.051 3.446.723a3.073 3.073 0 001.58-1.073v.985h1.821v-4.4c.308-4.51-5.442-5.582-7.615-2.32zm3.797 5.21c-2.107.569-2.634-2.846.505-2.386a6.962 6.962 0 011.514.372 2.77 2.77 0 01-2.02 2.014zm-82.758-7.64l-11.455-6.218a1.398 1.398 0 00-.395-.131l9.129 9.085 2.721-2.736zm-12.509-6.24c-.263.154-.46.482-.46 1.007 0 1.117.087 15.85.087 16.791 0 .482.154.854.417 1.03l9.349-9.436-9.393-9.392zm16.898 8.648l-3.884-2.124-2.831 2.846 2.831 2.824 3.884-2.123c.461-.263.966-.898 0-1.423zM15.051 31.305c.085-.027.165-.064.242-.11l11.433-6.26-2.721-2.693-8.954 9.063zM51.921 11.1c.346-.11.667-.288.943-.525.284-.234.516-.525.68-.854.182-.375.273-.788.263-1.204.01-.417-.08-.83-.263-1.204a2.694 2.694 0 00-.68-.876c-.281-.23-.6-.407-.944-.525a3.52 3.52 0 00-1.031-.175H49v5.516h1.888c.35.026.703-.026 1.031-.153zm-2.152-.525V6.458h.966c.345-.005.687.055 1.01.175.267.095.508.253.702.46.179.19.32.414.417.657a2.296 2.296 0 010 1.532 2.086 2.086 0 01-.417.657 1.782 1.782 0 01-.702.46c-.323.12-.665.18-1.01.175h-.966zm7.681-1.97a1.41 1.41 0 00.769-.767 1.64 1.64 0 00.11-.569 1.328 1.328 0 00-.154-.7 1.258 1.258 0 00-.417-.482 2.26 2.26 0 00-.615-.263 3.874 3.874 0 00-.746-.087h-1.69v5.516h.768V8.8h.725l1.47 2.474h.922l-1.58-2.54a1.29 1.29 0 00.438-.13zm-1.953-.482V6.458h.856c.177.002.353.017.527.044.14.024.275.076.395.153.097.071.178.16.241.263.065.12.095.257.088.394a.682.682 0 01-.307.613 1.627 1.627 0 01-.944.219h-.856v-.022zm4.302 2.474a2.86 2.86 0 002.063.832 2.79 2.79 0 001.14-.22 2.821 2.821 0 001.537-1.532c.153-.367.227-.762.22-1.16a2.877 2.877 0 00-.22-1.16 2.86 2.86 0 00-2.677-1.751 2.79 2.79 0 00-1.142.218 2.82 2.82 0 00-1.536 1.533 2.877 2.877 0 00-.22 1.16c-.007.398.068.793.22 1.16.145.343.353.655.615.92zm.11-2.912c.09-.259.232-.497.416-.7.187-.202.41-.365.659-.482a2.288 2.288 0 011.755 0c.253.109.478.274.659.481.184.204.326.442.417.701.097.274.149.563.153.854.003.291-.05.58-.153.854-.091.258-.233.497-.417.7-.187.201-.41.365-.659.482a2.288 2.288 0 01-1.755 0 1.832 1.832 0 01-.659-.482 2.052 2.052 0 01-.417-.7 2.68 2.68 0 01-.153-.854 2.184 2.184 0 01.153-.854zm5.771-1.926h.768v5.516h-.768V5.758zm4.872 5.341c.347-.11.668-.288.944-.525.284-.234.516-.525.68-.854.182-.375.273-.788.263-1.204.01-.417-.08-.83-.263-1.204a2.694 2.694 0 00-.68-.876c-.281-.23-.6-.407-.944-.525a3.52 3.52 0 00-1.031-.175h-1.888v5.516h1.888c.35.023.702-.029 1.031-.153zm-2.15-.525V6.458h.965c.344-.005.687.055 1.01.175.267.095.508.253.702.46.179.19.32.414.417.657a2.296 2.296 0 010 1.532 2.086 2.086 0 01-.417.657 1.782 1.782 0 01-.703.46c-.322.12-.665.18-1.009.175h-.966zm8.427-4.816l-2.414 5.516h.833l.593-1.4h2.612l.592 1.4h.834l-2.392-5.516h-.658zm-.703 3.415l1.01-2.43 1.01 2.43h-2.02zm5.026-.35h.834c.259.007.517-.023.768-.088.221-.054.43-.151.614-.285a1.2 1.2 0 00.395-.481c.198-.43.206-.922.022-1.358a1.202 1.202 0 00-.395-.481 1.758 1.758 0 00-.614-.285 2.846 2.846 0 00-.768-.087h-1.624v5.516h.768V8.822zm0-2.387h.812c.316-.025.631.051.9.22a.685.685 0 01.285.634.733.733 0 01-.285.635 1.475 1.475 0 01-.9.219h-.812V6.436zm6.628-.306a1.758 1.758 0 00-.615-.285 2.847 2.847 0 00-.768-.087h-1.624v5.516h.768V8.822h.834c.259.008.517-.022.768-.087.221-.054.43-.151.615-.285a1.2 1.2 0 00.395-.481c.197-.43.205-.922.022-1.358a1.724 1.724 0 00-.395-.481zm-.527 1.795a1.475 1.475 0 01-.9.219h-.812V6.458h.812c.316-.025.631.051.9.219a.685.685 0 01.285.635.72.72 0 01-.285.613zm7.55 3.262a2.821 2.821 0 001.535-1.533c.153-.367.228-.762.22-1.16a2.877 2.877 0 00-.22-1.16 2.86 2.86 0 00-2.677-1.751 2.79 2.79 0 00-1.141.218 2.82 2.82 0 00-1.536 1.533 2.877 2.877 0 00-.22 1.16c-.008.398.067.793.22 1.16a2.82 2.82 0 001.536 1.533 3.08 3.08 0 002.282 0zm-2.7-1.117a2.052 2.052 0 01-.417-.7 2.68 2.68 0 01-.154-.854c-.002-.292.05-.581.154-.854.09-.259.232-.497.417-.7.186-.202.41-.365.658-.482a2.288 2.288 0 011.756 0c.253.11.478.274.658.482.185.203.327.441.417.7.097.275.15.563.154.854.002.292-.05.581-.154.854-.09.259-.232.497-.417.7-.186.202-.41.365-.658.482a2.288 2.288 0 01-1.756 0 2.431 2.431 0 01-.658-.482zm9.173-.022l-2.963-4.29h-.855v5.516h.768V6.94l2.962 4.334h.856V5.758h-.768v4.29zm-62.611-.153h2.611l.593 1.401h.856l-2.392-5.538h-.68l-2.415 5.516h.834l.593-1.379zm1.317-3.152l1.01 2.43h-2.02l1.01-2.43zm4.016.197l2.962 4.334h.834V5.758h-.746v4.29l-2.963-4.29h-.855v5.516h.768V6.94z" fill-rule="nonzero"/></svg>
