<svg width="123" height="126" xmlns="http://www.w3.org/2000/svg">
        <path d="M61.297 3.005s5.21 8.012 5.21 18.63c0 10.716-.5 26.341-.5 26.341s46.601 26.743 49.307 28.245c2.706 1.502 3.308 4.307 3.308 4.307l1.503 7.712-2.405-3.405s-45.199-11.82-47.203-12.52c-.401-.1-.702-.2-1.103-.2-1.703 0-3.407 1.101-3.407 1.101l-.1 3.806 1.302.3.902-1 5.713.1s1.603 2.002.802 7.712c-.802 5.709-2.606 13.22-2.606 13.22h-3.909v2.505l-4.209.5-.5 4.007s16.635 11.318 18.44 12.42c1.803 1.101 1.703 3.705 1.703 3.705l.1 2.905-22.148-7.011h-.4l-21.949 6.81.1-2.904s-.1-2.604 1.704-3.706c1.804-1.102 18.24-12.42 18.24-12.42l-.501-4.006-4.21-.5v-2.304h-3.808s-1.803-7.412-2.605-13.121c-.802-5.71.802-7.713.802-7.713l5.612-.1.902 1.102 1.303-.3-.2-3.907s-1.705-1.101-3.408-1.101c-.401 0-.702.1-1.103.2-1.904.701-46.601 12.52-46.601 12.52L2.969 88.24l1.504-7.712s.601-2.805 3.307-4.307c2.706-1.502 48.806-28.245 48.806-28.245s-.5-15.625-.5-26.342c0-10.617 5.21-18.63 5.21-18.63zm0-3.005c-1.003 0-2.005.5-2.506 1.402-.3.3-5.712 8.814-5.712 20.232 0 8.514.3 20.232.4 24.64-8.017 4.707-44.797 26.04-47.102 27.243-3.808 2.103-4.71 5.91-4.81 6.31v.1L.062 87.639c-.3 1.402.501 2.805 1.804 3.305.4.2.802.2 1.203.2.902 0 1.904-.4 2.405-1.301l1.804-2.504c6.815-1.803 26.758-7.112 37.983-10.116-.401 1.602-.602 3.906-.1 7.11.801 5.81 2.505 13.122 2.605 13.422a3.008 3.008 0 0 0 2.906 2.304h.902c.2 1.302 1.303 2.303 2.606 2.504l1.604.2c-5.312 3.606-15.133 10.316-16.436 11.118-3.007 1.803-3.107 5.408-3.107 6.21l-.1 2.804c0 1.002.4 1.903 1.202 2.504.501.4 1.203.601 1.804.601.301 0 .602 0 .902-.1l21.247-6.51 21.446 6.51c.301.1.602.1.902.1.602 0 1.303-.2 1.804-.601.802-.6 1.203-1.502 1.203-2.504l-.1-2.804c0-.802-.1-4.407-3.107-6.21-1.303-.802-11.225-7.412-16.636-11.118l1.703-.2c1.303-.1 2.406-1.202 2.606-2.504h.902a3.008 3.008 0 0 0 2.906-2.304c.1-.3 1.804-7.612 2.606-13.421.501-3.205.2-5.509-.2-7.111 11.424 3.004 31.669 8.313 38.483 10.116l1.804 2.504a2.99 2.99 0 0 0 2.406 1.202c.4 0 .801-.1 1.202-.301 1.303-.6 2.005-1.903 1.704-3.305l-1.503-7.712v-.1c-.1-.401-1.003-4.207-4.81-6.31-2.206-1.002-39.387-22.336-47.504-26.943.1-4.407.4-16.226.4-24.64 0-11.418-5.512-19.931-5.712-20.332C63.201.501 62.3 0 61.297 0z"
          fill="currentColor"
          fill-rule="nonzero"
        />
      </svg>
