<svg width="152" height="186" xmlns="http://www.w3.org/2000/svg" xmlns:xlink="http://www.w3.org/1999/xlink"><defs><path id="a" d="M0 0h67v56.5H0z"/><path id="c" d="M0 0h.5v1H0z"/><path id="d" d="M0 0h17.8v156H0z"/></defs><g fill="none" fill-rule="evenodd"><path d="M84.7 117.7v1.3c0 3.2-.7 10.1-1.7 17.4l4.3-4.9c-.8-4.6-2.1-16-2.1-22.6 0-2.2.1-4.1.3-5.7l-.8-.2v14.7z" fill="#FFF"/><path d="M87.5 131l-4.3 4.9-.2 1.7 4.7-5.4v-.2l-.2-1M64 132.1l5.2 6v-.7L64 132v.1" fill="#393B41"/><path d="M66 109c0 6.4-1.2 17.6-2 22.4l4.7 5c-.9-6.6-1.6-12.8-1.8-16.3V103l-1.1.3c.2 1.5.3 3.5.3 5.7" fill="#FFF"/><path d="M69 136l-4.8-5-.2 1.2 5.1 5.4c0-.6 0-1-.2-1.6" fill="#393B41"/><path d="M5.2 105.3c-1.1.9-4.2 3.5-4.2 6.8v4.2l23.3-6.5 2.8-.8-.7-2 29.2-9.2.1-.3h1L67 94.3V70L6 107l-.9-1.7zM65.4 102.2l1.2-.3V99l-1.6.4.4 2.8M50.5 102.3l4-1.1.4-2.2-4.9 1.8.5 1.5zM65 67l-1 .7.8 2.2 2-1.3V65c-.4.7-1 1.4-1.7 2M60 97.2h5l.2.4.2.6 1.8-.5V95l-6.9 2.1-.3.1zM1 118l53.4-13.3c0-1 .2-2 .3-2.7L1 116.9v1zM63.7 70l-.7-2-11.2 7.3-36.8 23L52.4 77l11.3-7zM49.4 101L33 107l16.8-4.6z" fill="#FFF"/><g transform="translate(0 63.1)"><mask id="b" fill="#fff"><use xlink:href="#a"/></mask><path d="M54.3 42L1 55.4v-1H.6l-.3-.9.6-.1V49c0-3.2 3.1-5.9 4.3-6.7l-.3-.5.4-.2 10.1-5.8 36.8-23s7.1-4.5 11.2-7.3l-.2-.4.9-.4V5l1.2-.8c.7-.5 1.3-1.2 1.7-2V0a7.2 7.2 0 0 1-2.3 3.5c-3 2.2-13 8.5-13 8.5L5 41.2C4.9 41.2 0 44.6 0 49v7.5L54.3 43v-1" fill="#393B41" mask="url(#b)"/></g><path d="M66.1 103.2l1-.2v-1l-1.1.3.1 1M64.7 70.4l-.7-2.1-.1-.3-.9.3.2.5.7 2z" fill="#393B41"/><path fill="#FFF" d="M6 105.1L52.5 77 15 98.3 5 104l.4-.2z"/><path fill="#393B41" d="M64.2 70.8l-11.4 6.8-46.3 28.2-.6-1.3-.5.2-.4.2.2.5.9 1.7 61-37V69l-2 1.3zM33.1 107.7H33l17-4.7zM51 102.1l4-1.1-4 1.1zM65 98.5l1.8-.5-1.8.5zM26.8 109l-2.8.8 2.9-.8zM65.2 99.4l1.6-.4v-1l-1.8.5.2 1"/><path d="M50.6 102.5l-1 .3v-.4l-17 4.6-4.8 1.8-.4.2-.5.1-.2-.4-2.8.7L.6 116l-.6.2.3.9.3-.1L54.3 102l.1-1-4 1.1.2.4z" fill="#393B41"/><path d="M50.2 101.1l4.9-1.8V99l-5.1 1.6.2.5zM60 97.1l.4-.1zM33.5 107.6l16.4-6-.2-.6-21.7 6.7.6 1.7 4.8-1.8zM28 109z" fill="#FFF"/><path d="M26.8 109.2l.1.5.5-.2.4-.1-.6-1.7L49 101l-.1-.4.9-.3.1.4 5.1-1.6.3-1.1-29.2 9 .8 2.2zM60.2 97.2h.4l6.8-2.2v-1L57 97.2z" fill="#393B41"/><path fill="#393B41" d="M49.8 102.6l.1.5 1-.3-.2-.4-.5-1.5-.2-.5-.1-.4-.9.3.1.4.2.6z"/><path fill="#FFF" d="M118.8 107l-16.3-6-.5 1.4zM145 106.3L85 70v24.2l10 3h1.1l.1.4 29.1 9.1-.7 2.1 2.8.8 23.3 6.5v-4.2c0-3.3-3-6-4.2-6.8l-.8 1.7-.8-.5zM86.7 70.3l.8-2.1a55 55 0 0 1-1.1-.8c-.6-.4-1-.9-1.4-1.4v3.3l1.7 1zM98.4 77l37.3 21.3-36.7-23L87.7 68l-.7 2 11.4 7zM100.7 100.7L96 99l.4 2.1 3.8 1.1.5-1.5zM97.3 104.7l53.2 13.2v-1L97 102l.3 2.7M85 95v2.7l1.6.5.1-.7.1-.4h5l-.4-.1-6.4-2zM85 102l1 .2c0-1.2.2-2.1.4-2.8L85 99v3z"/><path d="M151.7 112.1c0-4.5-5-7.7-5.1-7.9l-46.6-29c0-.1-10-6.4-13-8.6a6.4 6.4 0 0 1-2-2.6v1.9c.4.5.8 1 1.4 1.4l1 .8.2-.3.9.4-.2.4c4 2.8 11.1 7.3 11.2 7.3l36.8 23 10 5.7.4.2-.2.6c1.2.8 4.2 3.5 4.2 6.7v4.3l.6.1-.1.5-.1.4h-.4v1l-53.2-13.2v1l54.2 13.4v-7.5zM85 103l.8.2.1-1-.9-.2v1z" fill="#393B41"/><path fill="#393B41" d="M86.8 70.9l.8-2 .1-.6-.8-.3-.1.3-.8 2z"/><path fill="#FFF" d="M145.4 105.1l.6-1.3.4.2-10-5.7L99 77z"/><path fill="#393B41" d="M145.3 105.5l-46.4-28-11.4-7-.8-.5-1.7-1v1.1l60 36.3.7.5.8-1.7.2-.5-.4-.2-.4-.2zM100.8 102l-3.8-1 3.8 1zM85 98l1.6.4L85 98zM126.8 109.8l-2.8-.8zM102 103l17 4.7h-.2zM85 99l1.4.4.2-1L85 98v1z"/><path d="M124.5 108.6l-.2.5-.8-.3-4.8-1.8-17-4.7-.1.5-1-.3.2-.4L97 101l.2 1 53.5 14.8.3.1.1-.4.2-.5-.6-.1-23.3-6.5-2.9-.8z" fill="#393B41"/><path fill="#FFF" d="M91.3 97.1h.1L91 97zM101 100.5L96 99v.3l4.8 1.8.2-.6zM123.9 107.7l-21.7-6.7-.2.6 16.4 6 4.9 1.8z"/><path fill="#393B41" d="M85 95l6.4 2 .5.1H95L85 94zM101.4 100.2l1 .3-.2.4 21.6 6.7-.6 1.7 1 .3.1-.4.8-2.2L96 98l.3 1 5 1.6.1-.4z"/><path fill="#393B41" d="M102.5 101.3l.2-.6.1-.4-.9-.3-.1.4-.2.5-.5 1.5-.1.4.9.3.2-.5z"/><path d="M65.2 108.4c0-5.6-.8-9.3-1-10.4h-8c-.3 1-1.2 4.8-1.2 10.4 0 6.6 2.5 18.4 3.5 22.9v.2H63c.7-4 2.2-16.3 2.2-23" fill="#FFF"/><path d="M58.4 131.2c-1-4.4-3.5-16.3-3.5-22.8 0-5.7 1-9.4 1.3-10.5H64c.2 1.1 1 4.8 1 10.5 0 6.8-1.5 19-2.2 23h-4.4v-.2zm5.4.7l.2-1.1c.8-4.8 2-16 2-22.4A55.5 55.5 0 0 0 65 98l-.1-.7-.1-.3H55.4v.3l-.3 1.1-.1.3-.4 2.2a43.5 43.5 0 0 0-.6 7.5c0 6.6 2.5 18.5 3.5 23l.2 1h6v-.3l.1-.2z" fill="#393B41"/><path d="M95 98h-8c-.2 1-1 4.8-1 10.4 0 6.8 1.5 19.1 2.2 23.1h4.5v-.2c1-4.5 3.5-16.3 3.5-22.9 0-5.7-1-9.3-1.2-10.4" fill="#FFF"/><path d="M96.1 108.4c0 6.6-2.5 18.4-3.4 22.8v.3h-4.5c-.7-4-2.3-16.4-2.3-23.1 0-5.7.9-9.4 1.1-10.5h8c.2 1.1 1.1 4.8 1.1 10.5m.8-3.8a44.6 44.6 0 0 0-.4-3.7l-.4-2.1v-.3l-.4-1.1V97h-9.4v.3l-.3.7a27.5 27.5 0 0 0-.7 4.7c-.2 1.6-.3 3.5-.3 5.7a181.8 181.8 0 0 0 2.3 23.6v.4h6l.3-1c1-4.5 3.5-16.3 3.5-23a52 52 0 0 0-.2-3.8" fill="#393B41"/><path d="M72.7 21.1l-.4.8-.2-.4c-.3.5-.4 1.3-.4 1.3l-.1.4h-3v-.5c.1-2.1 1-4.4 1-4.5l.2-.6h-.1l.2-.5c.4-.7 1-2 2.2-3a5.5 5.5 0 0 1 3.4-1.4h.7s1.9 0 3.3 1.4c1.2 1 1.9 2.3 2.2 3l.2.4v.1l.2.6s.8 2.4.9 4.5v.5h-3v-.4l-.4-1.3-.3.4-.3-.8s-.4-.8-1.2-1c-.8-.5-1.7-.5-1.7-.5h-.6s-.9 0-1.7.4c-.7.3-1.1 1.1-1.1 1.1zM74.4 155a29 29 0 0 1-.5-6.1c-.2-5.3.8-18.4.8-18.5l.2-6.8h2.4l.2 6.8c0 .5 1 13.3.8 18.5 0 3.5-.3 5.3-.6 6l.3.2.9.6c.6-3 1.4-6.8 2.2-12 1.5-9.8 2.7-21.2 2.7-25.4V26.6C83.9 14.9 77.7 1 75.8 1 73.8 1 68 14.6 68 26.6v92.8a345.6 345.6 0 0 0 5.4 36.2l1-.6v-.1z" fill="#FFF"/><g transform="translate(67 .1)"><mask id="e" fill="#fff"><use xlink:href="#d"/></mask><path d="M16 135.8c1-7.3 1.7-14.2 1.7-17.5V26.6c0-11-5.9-26.5-9-26.5C5.4 0 0 15.3 0 26.5v92.9a297.2 297.2 0 0 0 3.3 25.7c.5 2.7 1.2 7 2.2 11l.8-.6A345.6 345.6 0 0 1 1 117.2V26.5C1 14.5 6.8 1 8.6 1c2 0 8.2 14 8.2 25.6v91.7a232.8 232.8 0 0 1-5 37.3l.9.6a181.5 181.5 0 0 0 3.4-20.3" fill="#393B41" mask="url(#e)"/></g><path fill="#FFF" d="M49 182.4l2.8-1v-.4zM56 179.3l13.5-4.6v1l5.7-2V172v-2l-6.2 2.7-13 6.6zM50.4 174V172l-2.2 1.4c-3.6 2.2-5.2 4.2-5.2 6.2v4.4l4.5-1.5.1-4.3 4.8-1.7v.6l.3.7c1.5-.5 13.8-5.8 22.3-9.5V158l-24.6 16zM57 167.2l11.4-6.5 5.8-3.8v-.9L57 167.2"/><path d="M75 173l-5.7 2v.6h-.5L53.2 181v.2h-1v-.4l-2.8 1-1 .5v.2h-1l-4.5 1.4v-4.3c0-2.1 1.7-4 5.2-6.3l2.3-1.4v-.8h.4l6.8-3.9L74.8 156a236.5 236.5 0 0 1-.1-1h-.1l-1 .7-.9.5-25 16.3c-4 2.4-5.7 4.6-5.7 7v5.8L75 174v-1" fill="#393B41"/><path d="M51.8 179.8l3.6-1.2 13-6.6a321 321 0 0 1-16.2 6.8c-.5 0-.8-.5-1-1l-3.1 1-.1 3.6 1-.6 2.8-1.4v-.6z" fill="#FFF"/><path d="M52 177.8v-.6L47 179l-.1 4.3h1v-3.6l3.2-1.1c.1.5.4 1 1 1a321 321 0 0 0 22.3-9.5v-1c-8.4 3.7-20.8 9-22.3 9.5a2 2 0 0 1-.2-.7" fill="#393B41"/><path fill="#FFF" d="M51.5 172.5L69 161l-11.3 6.5-6.8 3.8h.5z"/><path d="M68.6 160.8L51 172.4v-1.2H50V174l24.5-16V157l-5.9 3.8z" fill="#393B41"/><path fill="#FFF" d="M68.2 176L53 181v.7l15.6-5.4h-.4z"/><path fill="#393B41" d="M55.6 178.5l-3.6 1.2v1.5h.9v-.8l15.2-5v.2h1V174z"/><path d="M96.3 179.3l-13-6.6L77 170v3.8l5.8 2v-1l13.5 4.5zM100 181.5l2.8 1-2.8-1.5zM77 158v10.2l22.4 9.5.2-.6v-.6l4.9 1.6.1 4.3 4.5 1.6v-4.4c0-2-1.7-4-5.2-6.3l-2.2-1.4v2.2L77 158zM84 160.8l11.3 6.5L78 156v.9l6 3.9z" fill="#FFF"/><path d="M78.4 155.7l-1-.6-.1-.1-.2.5v.5l17.3 11.2 6.8 3.9h.5v.8l2.2 1.4c3.6 2.2 5.2 4.2 5.2 6.3v4.4l-4.5-1.6v.1h-1v-.2l-1-.5-2.8-1v.4H99v-.2l-15.6-5.4h-.5v-.6l-5.8-2v1l33 11.3v-5.7c0-2.4-1.7-4.7-5.6-7l-25.1-16.4-.9-.5" fill="#393B41"/><path d="M104.3 178.9l-3-1c-.2.4-.6.9-1 .9s-5.8-2.3-16.3-6.8l13 6.6 3.6 1.2v.6l2.8 1.4 1 .6v-3.5z" fill="#FFF"/><path d="M99.7 176.3v.5l-.3.7c-1.5-.5-14-5.8-22.4-9.5v1a3613.6 3613.6 0 0 0 22.5 9.5c.5 0 .8-.5 1-1l3 1 .2 3.6v.2h1l-.2-4.4-4.8-1.6z" fill="#393B41"/><path fill="#FFF" d="M100.7 172.5v-1.2h.4l-6.7-3.8L83 161z"/><path d="M101.6 172.4L84 161l-6-3.9v1.1l24.6 16v-2.9h-1v1.2z" fill="#393B41"/><path fill="#FFF" d="M99.6 181l-15.1-5v.3H84l15.6 5.4z"/><path fill="#393B41" d="M100 179.7l-3.5-1.2L83 174v1.6h.9v-.3l15.2 5.1v.8h1v-.9z"/><path d="M77.5 153.4c.2-1 .3-2.4.3-4.4.1-4.7-.6-15.7-.8-18v21.7l.5.7M75.8 153.2V132c-.2 3-.9 13.1-.8 17.6 0 2 .2 3.3.3 4.3l.5-.7M76 156l.1 15.9c0 4.5 0 8 .3 8.8H76.7c.3-.7.3-4.3.3-8.8L77 156H76z" fill="#FFF"/><path d="M74.8 155.8c0-.7.1-1.6.4-2.2a43 43 0 0 1-.2-4.3c-.1-4.4.5-14.6.8-17.6v-7h.9v6.6c.2 2.3 1 13.3.8 18 0 2-.1 3.5-.3 4.5.4.7.5 1.6.5 2h-1v16c0 4.4 0 8-.3 8.7H76.1c-.3-.7-.3-4.3-.3-8.8a1674 1674 0 0 0-.1-15.8h-.9zm2.8 17.7a932.9 932.9 0 0 0 0-3.8v-1a1705.5 1705.5 0 0 1 .1-11.4v-1a153.6 153.6 0 0 0 .2-.9c.2-.8.5-2.5.6-6 .1-5.3-.9-18-.9-18.6l-.2-6.8H75l-.1 6.8c0 .2-1 13.3-.9 18.5a29.2 29.2 0 0 0 .8 7.1v1a386.5 386.5 0 0 0 0 11.3v5.8c.1 5.7.2 6.7.9 6.9v.3l.5-.2.6.1v-.2c.7-.2.8-1.2.8-7v-1z" fill="#393B41"/><path d="M77 156c0-1-.3-1.8-.5-2-.2.2-.4 1.1-.5 2h1zM75 156z" fill="#FFF"/><path d="M75.5 155.9h.4c.1-.9.3-1.8.5-2 .2.1.5 1 .6 2h1c0-.5-.2-1.4-.5-2l-.5-.8v.3h-1v-.4c-.2.1-.4.3-.5.6-.3.7-.5 1.6-.5 2.2h.5zM76 152.7h1V124h-1v28.3z" fill="#393B41"/><path d="M79.7 20.3l1.5-2.5c-.3-.6-.9-1.8-2-2.7-.7-.8-1.6-1-2.2-1.1v5c.4 0 1 .2 1.6.5.5.2.9.5 1.1.8" fill="#FFF"/><path d="M76.8 14c.6 0 1.5.3 2.3 1 1 1 1.6 2.2 2 2.8l-1.6 2.5c-.2-.3-.6-.6-1-.8-.7-.3-1.3-.5-1.7-.5v-5zm-.8 5.8h.3s.9.1 1.7.5c.7.3 1.1 1.1 1.1 1.1l.4.8.3-.4-.2-.3 2.3-4 .2.4-.2-.5c-.4-.7-1-2-2.2-3a5.5 5.5 0 0 0-3.4-1.4h-.2v6.8H76z" fill="#393B41"/><path d="M80 21.7l.3 1h1.2c0-1-.3-2-.5-2.7l-1 1.7z" fill="#FFF"/><path d="M80.4 23l-.3-1 1-1.7.5 2.7h-1.2zM79 22l.1.2c.3.5.4 1.3.4 1.4v.4h3v-.5c0-2.1-.8-4.4-.9-4.5l-.2-.6-.1-.4-2.3 4z" fill="#393B41"/><path d="M71 17.8l1.5 2.5c.3-.3.6-.6 1.1-.8.6-.3 1.2-.4 1.6-.5v-5c-.5 0-1.5.3-2.2 1-1 1-1.7 2.2-2 2.8" fill="#FFF"/><path d="M75.3 19c-.4 0-1 .2-1.6.5-.5.2-.9.5-1.1.8L71 17.8c.3-.6.9-1.8 2-2.7.7-.8 1.7-1 2.2-1.1v5zm.8.8h.2V13h-.5s-2 0-3.4 1.4a10 10 0 0 0-2.2 3l-.2.4v.1l.2-.4 2.3 4-.1.2.2.5.4-.8s.4-.8 1.1-1a6 6 0 0 1 1.7-.5h.3z" fill="#393B41"/><path d="M70 22.7h1.2l.3-1-1-1.7-.5 2.7" fill="#FFF"/><path d="M71.2 23H70c0-1 .3-2 .5-2.7l1 1.7-.3 1zm1.4-1l-2.3-4-.2.4-.2.6s-.8 2.4-.9 4.5v.4h3v-.3l.4-1.4.2-.2z" fill="#393B41"/></g></svg>