<svg width="338" height="338" xmlns="http://www.w3.org/2000/svg">
  <g fill="none" fill-rule="evenodd">
    <circle fill="#EDEEF2" cx="169" cy="169" r="169"/>
    <g transform="translate(19 52)" fill="#FFF">
      <rect x="87" width="116" height="235" rx="19"/>
      <path d="M200.412 38.324l15.955-5.24c4.795-1.575 10.046.943 11.67 5.594 3.232 9.264-9.432 19.7-20.478 26.448L197.5 72.928l2.912-34.604zM0 280.897c17.097-20.054 21.337-55.138 21.064-66.276-1.153-46.972 3.625-37.76 38.604-122.206 3.586-9.742-4.896-30.983 7.5-31.286 7.746-.19 10.148-.658 16.364 13.255 5.69 11.512 5.53 21.496 1.133 36.414L78.96 151.39s16.008 17.87 20.823 43.93c9.762 52.843-28.79 64.88-36.568 84.028L0 280.897zm208.803-96.529c8.836 0 12.105-13.134 10.838-19.479-1.267-6.344-6.334-16.934-17.313-16.934 0 4.669-9.712 11.614-9.712 19.56 0 7.23 3.17 13.095 9.205 15.575 2.013.827 4.343 1.278 6.982 1.278zm-7.436 8.098c-2.137 3.794-7.452 8.695-7.452 14.146 0 8.274 4.829 14.464 13.875 14.464 7.573 0 10.376-11.272 9.29-16.718-.543-2.723-1.9-6.357-4.298-9.31m-8.478-51.204c7.867.824 12.225-3.123 12.908-11.95.96-12.43-5.583-20.73-15.357-21.755-.425 4.244-9.704 9.652-10.428 16.876-.747 7.454 2.296 13.69 9.004 15.994a17.56 17.56 0 003.873.835z"/>
      <path d="M147 224.277c-3.5 26.723-46.085 34.73-49.542 56.227H54.5C62.167 269.834 70 261.5 78 255.5c12-9 18-15.947 22.75-31.223 14.057 0 28.25.223 46.25 0z"/>
    </g>
    <path d="M117.262 208.243V65.647c0-8.7 7.025-15.747 15.686-15.747h76.477c8.66 0 15.686 7.047 15.686 15.747v96.355c0 .528.105 1.032.296 1.492l3.604-1.492V65.647c0-10.85-8.769-19.647-19.586-19.647h-76.477c-10.817 0-19.586 8.796-19.586 19.647v144.21l3.9-1.614zm0-142.596c0-8.7 7.025-15.747 15.686-15.747h76.477c8.66 0 15.686 7.047 15.686 15.747v96.355c0 .528.105 1.032.296 1.492l3.604-1.492V65.647c0-10.85-8.769-19.647-19.586-19.647h-76.477c-10.817 0-19.586 8.796-19.586 19.647v144.21l3.9-1.614V65.647zm107.612 200.626l4.137-.497c-1.802 8.898-9.776 15.605-19.342 15.605h-77.013c-3.732 0-7.222-1.02-10.198-2.795l9.363-1.126c.277.014.556.021.835.021h77.013c7.138 0 13.284-4.67 15.205-11.208zm4.137-.497c-1.802 8.898-9.776 15.605-19.342 15.605h-77.013c-3.732 0-7.222-1.02-10.198-2.795l9.363-1.126c.277.014.556.021.835.021h77.013c7.138 0 13.284-4.67 15.205-11.208l4.137-.497z" fill="#44423E" fill-rule="nonzero"/>
    <path d="M145.199 47.95v3.02c0 4.094 3.178 7.385 7.063 7.385h39.148c3.885 0 7.064-3.292 7.064-7.385v-3.02h-53.275z" stroke="#44423E" stroke-width="3.9"/>
    <path d="M232.51 116.19c12.51-7.83 19.673-15.985 17.844-21.227-.916-2.625-3.976-4.092-6.77-3.174l-15.955 5.24c-.07.023-.14.044-.212.063l-1.005-3.768 15.955-5.24c4.795-1.575 10.046.943 11.67 5.594 3.232 9.264-9.432 19.7-20.478 26.448l-1.05-3.937zm17.844-21.227c-.916-2.625-3.976-4.092-6.77-3.174l-15.955 5.24c-.07.023-.14.044-.212.063l-1.005-3.768 15.955-5.24c4.795-1.575 10.046.943 11.67 5.594 3.232 9.264-9.432 19.7-20.478 26.448l-1.05-3.937c12.511-7.828 19.674-15.984 17.845-21.226zM29.216 326.793l-4.216.104c10.5-27.397 21.337-55.138 21.064-66.276-1.153-46.972 3.625-37.76 38.604-122.206 3.586-9.742-4.896-30.983 7.5-31.286 7.746-.19 10.148-.658 16.364 13.255 5.69 11.512 5.53 21.496 1.133 36.414-2.443 16.831-4.345 30.362-5.705 40.591 0 0 30.54 54.611 17.81 84.015-8.94 21.287-28.292 30.988-33.555 43.943l-3.9.096a3.895 3.895 0 01.287-1.564c1.251-3.08 3.171-6.04 5.862-9.249 2.557-3.049 13.419-14.016 13.317-13.908 6.791-7.176 11.278-13.41 14.41-20.868 3.337-7.706 3.603-18.134 1.19-30.594-1.712-8.836-4.693-18.319-8.584-28.025a224.07 224.07 0 00-7.065-15.813 184.083 184.083 0 00-2.32-4.543 113.667 113.667 0 00-.855-1.586l-.633-1.132.17-1.285c1.362-10.248 3.266-23.793 5.711-40.638l.04-.275.079-.267c4.313-14.63 4.128-23.434-.888-33.585l-.064-.137c-2.414-5.403-4.135-8.334-5.594-9.746-1.232-1.191-2.01-1.333-6.676-1.212l-.44.011c-1.764.044-2.373.608-2.845 2.573-.526 2.195-.524 4.71-.154 10.84l.03.49c.46 7.658.364 11.221-.965 14.833l-.057.145c-8.724 21.06-12.543 29.66-24.74 56.429-6.952 15.256-9.434 21.37-11.207 28.222-2.273 8.776-2.814 17.541-2.362 35.967.138 5.63-2.024 14.484-6.345 27.346-3.164 9.42-6.114 17.317-14.049 38.003l-.287.75-.065.168zm-4.216.104c10.5-27.397 21.337-55.138 21.064-66.276-1.153-46.972 3.625-37.76 38.604-122.206 3.586-9.742-4.896-30.983 7.5-31.286 7.746-.19 10.148-.658 16.364 13.255 5.69 11.512 5.53 21.496 1.133 36.414-2.443 16.831-4.345 30.362-5.705 40.591 0 0 30.54 54.611 17.81 84.015-8.94 21.287-28.292 30.988-33.555 43.943l-3.9.096a3.895 3.895 0 01.287-1.564c1.251-3.08 3.171-6.04 5.862-9.249 2.557-3.049 13.419-14.016 13.317-13.908 6.791-7.176 11.278-13.41 14.41-20.868 3.337-7.706 3.603-18.134 1.19-30.594-1.712-8.836-4.693-18.319-8.584-28.025a224.07 224.07 0 00-7.065-15.813 184.083 184.083 0 00-2.32-4.543 113.667 113.667 0 00-.855-1.586l-.633-1.132.17-1.285c1.362-10.248 3.266-23.793 5.711-40.638l.04-.275.079-.267c4.313-14.63 4.128-23.434-.888-33.585l-.064-.137c-2.414-5.403-4.135-8.334-5.594-9.746-1.232-1.191-2.01-1.333-6.676-1.212l-.44.011c-1.764.044-2.373.608-2.845 2.573-.526 2.195-.524 4.71-.154 10.84l.03.49c.46 7.658.364 11.221-.965 14.833l-.057.145c-8.724 21.06-12.543 29.66-24.74 56.429-6.952 15.256-9.434 21.37-11.207 28.222-2.273 8.776-2.814 17.541-2.362 35.967.138 5.63-2.024 14.484-6.345 27.346-3.164 9.42-6.114 17.317-14.049 38.003l-.287.75-.065.168-4.216.104z" fill="#44423E" fill-rule="nonzero"/>
    <path d="M227.924 205.998c-.302.903-.795 1.853-1.468 2.912-.438.688-.943 1.41-1.63 2.345-.252.344-1.452 1.955-1.781 2.404-3.099 4.228-4.48 7.02-4.48 9.857 0 6.67 2.886 11.67 7.997 13.77 1.81.744 3.898 1.132 6.24 1.132 6.073 0 10.368-9.929 8.927-17.147-1.57-7.861-6.584-14.426-13.805-15.273zm-1.633 32.677c-.242.362-.513.75-.822 1.176-.346.48-1.608 2.176-1.818 2.463-2.623 3.584-3.786 5.939-3.786 8.298 0 7.667 4.39 12.514 11.925 12.514 4.981 0 8.584-8.338 7.378-14.387-.54-2.706-1.771-5.63-3.496-7.942l-9.38-2.122zm4.216-47.77c6.762.708 10.162-2.424 10.76-10.162.808-10.451-4.039-17.799-12.038-19.423-.365.787-.897 1.6-1.592 2.492a40.61 40.61 0 01-1.71 2.023c-.143.162-1.451 1.618-1.838 2.057-3.023 3.434-4.47 5.813-4.722 8.318-.688 6.868 2.113 12.037 7.697 13.955 1.049.36 2.199.609 3.443.74zm0 0s0 0 0 0h0s0 0 0 0z" stroke="#44423E" stroke-width="3.9"/>
    <path d="M171 116h2v-10h-2zm24.177 10L194 124.822l6.823-6.822 1.177 1.178zM203 150h10v-2h-10zm-3.178 29L193 172.178l1.178-1.178 6.822 6.822zM169 190h2v-10h-2zm-27.822-12L140 176.822l6.822-6.822 1.178 1.178zM129 148h10v-2h-10zm18.822-23L141 118.178l1.178-1.178 6.822 6.822z" fill="#44423E"/>
    <path d="M169.135 142.06L152.5 156.8v3.44l16.643-8.924v6.62l-5.737 5.616v2.948l8.594-4.87 8.596 4.87v-2.948l-5.737-5.616v-6.622l16.641 8.926v-3.44l-16.633-14.738-.008-10.012c0-4.064-1.287-7.55-2.859-7.55s-2.857 3.39-2.857 7.55l-.008 10.01z" fill="#D8353B"/>
    <rect fill="#D8353B" x="135" y="222" width="73" height="18" rx="5.2"/>
    <path d="M171 279.277c-3.5 26.723-46.085 34.73-49.542 56.227" stroke="#44423E" stroke-width="3.9"/>
    <path d="M227.011 194v13.5" stroke="#44423E" stroke-width="4" stroke-linecap="round"/>
  </g>
</svg>
