<svg width="342" height="338" xmlns="http://www.w3.org/2000/svg">
  <g fill="none" fill-rule="evenodd">
    <circle fill="#EDEEF2" cx="172" cy="169" r="169"/>
    <path d="M159.477 67.11c0-2.027.017-22.445.017-22.445 0-9.328 2.954-16.93 6.567-16.93s6.57 7.817 6.57 16.93c0 0 .019 20.418.019 22.45l38.233 33.047v7.713l-38.251-20.014v14.848l13.186 12.593v6.61l-19.757-10.92-19.753 10.92v-6.61l13.186-12.593V87.865l-38.255 20.01v-7.713l38.238-33.052zm0 188.353c0-2.027.017-22.446.017-22.446 0-9.328 2.954-16.929 6.567-16.929s6.57 7.817 6.57 16.93c0 0 .019 20.418.019 22.45l38.233 33.046v7.714l-38.251-20.015v14.848l13.186 12.593v6.61l-19.757-10.92-19.753 10.92v-6.61l13.186-12.593v-14.844l-38.255 20.01v-7.713l38.238-33.051zm64.66-97.12c0-2.027.018-22.445.018-22.445 0-9.328 2.954-16.93 6.567-16.93 3.612 0 6.57 7.818 6.57 16.93 0 0 .019 20.418.019 22.45l38.232 33.047v7.713l-38.25-20.014v14.848l13.186 12.593v6.61l-19.757-10.92-19.753 10.92v-6.61l13.186-12.593v-14.844l-38.255 20.01v-7.713l38.237-33.051zM40.442 67.11c0-2.027.018-22.445.018-22.445 0-9.328 2.953-16.93 6.566-16.93s6.571 7.817 6.571 16.93c0 0 .018 20.418.018 22.45l38.233 33.047v7.713L53.597 87.861v14.848l13.187 12.593v6.61l-19.758-10.92-19.753 10.92v-6.61l13.187-12.593V87.865l-38.256 20.01v-7.713L40.442 67.11zm245.417 0c0-2.027.018-22.445.018-22.445 0-9.328 2.954-16.93 6.566-16.93 3.613 0 6.571 7.817 6.571 16.93 0 0 .018 20.418.018 22.45l38.233 33.047v7.713l-38.25-20.014v14.848l13.186 12.593v6.61l-19.758-10.92-19.752 10.92v-6.61l13.186-12.593V87.865l-38.255 20.01v-7.713l38.237-33.052zM38.972 255.463c0-2.027.018-22.446.018-22.446 0-9.328 2.954-16.929 6.567-16.929 3.612 0 6.57 7.817 6.57 16.93 0 0 .018 20.418.018 22.45l38.233 33.046v7.714l-38.25-20.015v14.848l13.186 12.593v6.61l-19.757-10.92-19.753 10.92v-6.61l13.186-12.593v-14.844L.735 296.227v-7.713l38.237-33.051zm243.948 0c0-2.027.018-22.446.018-22.446 0-9.328 2.954-16.929 6.566-16.929 3.613 0 6.571 7.817 6.571 16.93 0 0 .018 20.418.018 22.45l38.233 33.046v7.714l-38.25-20.015v14.848l13.186 12.593v6.61l-19.758-10.92-19.753 10.92v-6.61l13.187-12.593v-14.844l-38.255 20.01v-7.713l38.237-33.051zm-185.165-97.12c0-2.027.018-22.445.018-22.445 0-9.328 2.953-16.93 6.566-16.93s6.571 7.818 6.571 16.93c0 0 .018 20.418.018 22.45l38.233 33.047v7.713l-38.251-20.014v14.848l13.187 12.593v6.61l-19.758-10.92-19.753 10.92v-6.61l13.187-12.593v-14.844l-38.256 20.01v-7.713l38.238-33.051z" fill="#FFF"/>
    <path d="M126.74 95.848v4.55l38.254-20.01V98.35l-13.186 12.592v3.426l18.253-10.09 18.257 10.09v-3.426L175.132 98.35V80.383l38.25 20.014v-4.55L175.15 62.802v-.686l-.009-11.143v-.843l-.006-7.24-.003-3.224c0-8.409-2.704-15.43-5.071-15.43-2.398 0-5.067 6.876-5.067 15.431l-.002 3.222-.006 7.24-.001.842-.008 11.14v.686l-38.238 33.052zm64.66 91.233v4.55l38.255-20.01v17.963l-13.186 12.592v3.426l18.253-10.09 18.257 10.09v-3.426l-13.186-12.592v-17.968l38.25 20.015v-4.55l-38.232-33.047v-.686l-.009-11.142v-.843l-.007-7.241-.002-3.224c0-8.409-2.704-15.43-5.071-15.43-2.399 0-5.067 6.876-5.067 15.432l-.002 3.222-.007 7.24v.84l-.009 11.142v.686L191.4 187.08zM6.235 284.2v4.55l38.255-20.01v17.963l-13.186 12.593v3.425l18.252-10.09 18.258 10.09v-3.425l-13.187-12.593v-17.968l38.251 20.015v-4.55l-38.233-33.047v-.686l-.008-11.142v-.843l-.007-7.241-.003-3.224c0-8.409-2.703-15.429-5.07-15.429-2.399 0-5.067 6.875-5.067 15.43l-.003 3.223-.006 7.24v.841a30141.7 30141.7 0 00-.009 11.14v.687L6.235 284.2zm243.948 0v4.55l38.255-20.01v17.963l-13.187 12.593v3.425l18.253-10.09 18.258 10.09v-3.425l-13.187-12.593v-17.968l38.251 20.015v-4.55l-38.233-33.047v-.686l-.008-11.142v-.843l-.007-7.241-.003-3.224c0-8.409-2.703-15.429-5.07-15.429-2.399 0-5.067 6.875-5.067 15.43l-.003 3.223-.006 7.24v.841l-.009 11.14v.687L250.183 284.2zM65.017 187.081v4.55l38.256-20.01v17.963l-13.187 12.592v3.426l18.253-10.09 18.258 10.09v-3.426l-13.187-12.592v-17.968l38.25 20.015v-4.55l-38.232-33.047v-.686l-.008-11.142-.001-.843-.006-7.241-.003-3.224c0-8.409-2.703-15.43-5.07-15.43-2.4 0-5.067 6.876-5.067 15.432l-.003 3.222-.006 7.24v.84l-.01 11.142v.686l-38.236 33.05z" stroke="#44423E" stroke-width="3"/>
    <path d="M126.74 284.2v4.55l38.254-20.01v17.963l-13.186 12.593v3.425l18.253-10.09 18.257 10.09v-3.425l-13.186-12.593v-17.968l38.25 20.015v-4.55l-38.232-33.047v-.686l-.009-11.142v-.843l-.006-7.241-.003-3.224c0-8.409-2.704-15.429-5.071-15.429-2.398 0-5.067 6.875-5.067 15.43l-.002 3.223-.006 7.24-.001.841-.008 11.14v.687L126.739 284.2zM7.704 95.848v4.55l38.256-20.01V98.35l-13.187 12.592v3.426l18.253-10.09 18.258 10.09v-3.426L56.097 98.351V80.383l38.25 20.014v-4.55L56.116 62.802v-.686l-.008-11.143-.001-.843-.006-7.24-.002-2.341v-.652l-.001-.171v-.058s0 0 0 0 0 0 0 0v-.002c0-8.409-2.703-15.43-5.07-15.43-2.4 0-5.067 6.876-5.067 15.431h0s0 0 0 0v.23l-.001.652-.002 2.34-.006 7.24-.001.842-.008 11.14v.686L7.704 95.848zm245.418 0v4.55l38.255-20.01V98.35l-13.186 12.592v3.426l18.252-10.09 18.258 10.09v-3.426L301.514 98.35V80.383l38.251 20.014v-4.55l-38.233-33.046v-.686l-.008-11.143v-.843l-.007-7.24-.003-3.224c0-8.409-2.703-15.43-5.07-15.43-2.399 0-5.067 6.876-5.067 15.431l-.003 3.222-.006 7.24v.842a30129 30129 0 00-.009 11.14v.686l-38.237 33.052z" stroke="#D8353B" stroke-width="3"/>
  </g>
</svg>
