<svg id="instagram" width="20" height="20" xmlns="http://www.w3.org/2000/svg"><path fill="#393b41" d="M13.76 0H6.24A6.24 6.24 0 000 6.24v7.5A6.24 6.24 0 006.24 20h7.5A6.24 6.24 0 0020 13.76V6.24C20 2.79 17.2 0 13.76 0zm3.74 13.76a3.76 3.76 0 01-3.74 3.74H6.24a3.76 3.76 0 01-3.74-3.74V6.24A3.74 3.74 0 016.24 2.5h7.5a3.76 3.76 0 013.74 3.74v7.5l.02.02zM10 5a5 5 0 100 10 5 5 0 000-10zm0 7.5a2.5 2.5 0 110-5 2.5 2.5 0 010 5zM16.26 5a1.26 1.26 0 11-1.24-1.24c.68 0 1.24.56 1.24 1.24z" fill-rule="evenodd"/></svg>
