<svg width="235" height="186" xmlns="http://www.w3.org/2000/svg"><g fill-rule="nonzero" fill="none"><path d="M109 42s25 11-4 11-60-11-60-32C45 9.402 54.357 0 65.898 0 97.99 0 109 42 109 42z" fill="#D3C5B8"/><path d="M102 42s-25 11 4 11 60-11 60-32c0-11.598-9.356-21-20.898-21C113.01 0 102 42 102 42z" fill="#D3C5B8"/><path d="M111 42s4 4 15 4 15-8.477 15-14-4.386-10-9.796-10C116.161 22 111 42 111 42zM100 42s-4 4-15 4-15-8.477-15-14 4.386-10 9.796-10C94.839 22 100 42 100 42z" fill="#FFF"/><path d="M8 52h190v134H20c-6.627 0-12-5.373-12-12V52z" fill="#D3C5B8"/><path d="M0 46c0-2.21 2.215-4 4.947-4h225.106c2.732 0 4.947 1.79 4.947 4v25c0 2.21-2.215 4-4.947 4H4.947C2.215 75 0 73.21 0 71V46z" fill="#E7E3E0"/></g></svg>