<svg width="528" height="214" xmlns="http://www.w3.org/2000/svg"><defs><linearGradient x1="50%" y1="0%" x2="50%" y2="100%" id="a"><stop stop-color="#EBD8CA" offset="0%"/><stop stop-color="#CFBDAF" offset="100%"/></linearGradient></defs><g fill="none" fill-rule="evenodd"><path d="M523.09 151.668l-260.55-32.64a1.942 1.942 0 00-.665 0L2 151.584S1.941 159 3.051 159h522.42c1.11 0 .13-1.18.13-2.345 0-4.227 1.457-4.288-2.511-4.987z" fill="url(#a)" transform="matrix(-1 0 0 1 528 0)"/><path d="M2.26 156.655c0-4.227-1.455-4.288 2.51-4.987l260.31-32.64c.22-.038.444-.038.663 0L266 159 2.26 156.655z" fill="#E7E3E0"/><path fill="#D3C5B8" d="M2 158l264.254 6L526 158z"/><path d="M296 165.363C294.59 184.167 281.867 199 266.5 199c-8.156 0-15.575-4.19-20.943-10.912-4.743-5.956-7.9-13.915-8.557-22.725l1.458-126.22C238.458 18.719 250.188 0 266.5 0c8.156 0 15.159 4.67 20.142 11.913 4.967 7.241 7.9 17.017 7.9 27.23L296 165.363z" fill="#E7E3E0"/><path d="M524.454 158.245c1.8 0 1.532-1.436 1.532-4.26-.367-2.676.832-3.015-2.55-3.61l-229.815-28.8-.179-15.614h22.308c.212 0 .383-.256.383-.573 0-1.147-.556-2.128-1.313-2.317l-21.457-3.94-.688-60.14c0-10.172-2.894-19.91-7.796-27.123C279.96 4.654 273.049 0 265 0v214c16.099 0 29.257-16.653 29.257-37.013l-.143-12.266-.016-1.304s226.837-5.172 230.356-5.172" fill="#D3C5B8"/><path d="M140 94.697c0-1.337 1.363-2.48 3.223-2.702l122.12-15.985c.102-.013.209-.013.313 0l122.121 15.985c1.86.222 3.223 1.365 3.223 2.702 0 .369-.421 11.303-.942 11.303H140.942c-.52 0-.942-10.934-.942-11.303" fill="#D3C5B8"/><path d="M265.579 75.776L261 200.01c-.06 1.64 1.864 2.99 4.26 2.99h2.477c2.397 0 4.323-1.35 4.26-2.99l-4.577-124.234c-.036-1.035-1.804-1.035-1.842 0M3.331 158L4 150.41 1.517 121H0l1.517 37z" fill="#D3C5B8"/><path fill="#D4C1B3" d="M524.669 158l-.669-7.59 2.483-29.41H528l-1.517 37z"/><path d="M238 164.616c-.813 9.159-8.144 16.384-17 16.384-4.7 0-8.976-2.04-12.069-5.315-2.733-2.902-4.552-6.778-4.931-11.07l.84-22.547C204.84 132.12 211.6 123 221 123c4.7 0 8.735 2.277 11.607 5.804 2.863 3.528 4.553 8.288 4.553 13.264l.84 22.548z" fill="#E7E3E0"/><path d="M238 171.472c0 10.741-7.645 19.528-17 19.528s-17-8.787-17-19.528l.083-6.472c.376 4.628 4.483 7.271 7.203 10.4 3.078 3.536 5.037 7.278 9.714 7.278 8.812 0 16.109-7.797 16.917-17.678l.083 6.472z" fill="#E7E3E0"/><path d="M238 141.236c0-5.147-2.448-8.581-5.129-12.23-2.69-3.65-6.469-6.006-10.871-6.006v68c8.804 0 16-8.427 16-18.73v-31.034z" fill="#D3C5B8"/><path d="M208 180.5c0 4.695 4.7 8.5 10.5 8.5s10.5-3.805 10.5-8.5-4.7-8.5-10.5-8.5-10.5 3.805-10.5 8.5" fill="#D3C5B8"/><path d="M328 164.616c-.813 9.159-8.144 16.384-17 16.384-4.7 0-8.976-2.04-12.069-5.315-2.733-2.902-4.552-6.778-4.931-11.07l.84-22.547C294.84 132.12 301.6 123 311 123c4.7 0 8.735 2.277 11.607 5.804 2.863 3.528 4.553 8.288 4.553 13.264l.84 22.548z" fill="#E7E3E0"/><path d="M329 162.458c0 15.7-7.87 28.542-17.5 28.542-9.63 0-17.5-12.842-17.5-28.542l.085-9.458c.388 6.764 2.251 12.88 5.051 17.453 3.17 5.168 7.55 8.384 12.364 8.384 9.072 0 16.582-11.396 17.415-25.837l.085 9.458z" fill="#D3C5B8"/><path d="M327.51 132.872l-.375 9.858c0-5.147-1.583-10.075-4.265-13.725-2.688-3.65-6.468-6.005-10.87-6.005v68c8.804 0 16-8.427 16-18.73l-.49-39.398z" fill="#D3C5B8"/><path d="M299 176.5c0 5.8 5.596 10.5 12.5 10.5s12.5-4.7 12.5-10.5-5.596-10.5-12.5-10.5-12.5 4.7-12.5 10.5M296 176.445C296 197.103 282.868 214 266.8 214c-16.067 0-28.8-16.897-28.8-37.555V164c.647 8.904 3.5 16.948 8.171 22.968 5.288 6.796 12.595 11.029 20.63 11.029 15.136 0 27.668-14.992 29.057-33.997l.142 12.445z" fill="#D3C5B8"/><path d="M270 135c11.647 1.187 20.123 6.526 25.43 16.019 7.96 14.238-4.823 33.165-7.96 37.294-3.137 4.13-6.235 6.77-9.633 8.57-2.266 1.201-4.14 1.907-5.625 2.117L270 135z" fill="#D3C5B8"/></g></svg>
