<svg width="334" height="255" xmlns="http://www.w3.org/2000/svg"><defs><linearGradient x1="50%" y1="0%" x2="51.12%" y2="69.644%" id="a"><stop stop-color="#D5CEC8" offset="0%"/><stop stop-color="#646771" offset="100%"/></linearGradient></defs><g fill="none" fill-rule="evenodd"><path d="M135 155H25.344c-8.575 0-14.922 9.902-12.998 20.278l.084.452C15.79 193.85 31.68 207 50.213 207h83L135 155" fill="#E7E3E0"/><path d="M152 155H42.344c-8.575 0-14.922 9.902-12.998 20.278l.084.452C32.79 193.85 48.68 207 67.213 207h83L152 155" fill="#D3C5B8"/><path d="M120.427 101.207c8.42-15.057.515-87.565 8.415-93.645 6.782-5.218 22.603 2.57 33.215 24.354l26.826-2.45s21.384 56.25 11.515 80.443c-9.871 24.19-11.47 110.926-11.47 110.926l-56.401-.26c-13.953 2.635-49.445-7.192-53.163-23.403-4.413-19.243 32.641-80.907 41.063-95.965" fill="#E7E3E0"/><path fill="#D3C5B8" d="M191 44h-66v1.75L191 51z"/><path d="M135.41 0c-8.18.735-15.006 5.64-17.206 15.278a93.262 93.262 0 00-2.182 15.599c-.403 7.353 4.75 13.628 10.73 13.09l64.248-.17V0h-55.59zM0 218.902v27.886c0 19.679 11.215-2.505 51.396-.114C90.758 249.016 166 214.546 166 214.546s-4.284-19.914-70.685-14.665L19 199.898c-10.492.006-18.996 8.512-19 19.004z" fill="#E7E3E0"/><path d="M53.283 192.519S83.963 68.506 74.015 37.765C64.066 7.025 43.808-4.507 35.875 1.561c-7.934 6.068 14.18 77.155 5.723 92.184-8.456 15.03-45.664 87.043-41.233 106.25 4.431 19.21 39.651 23.59 44.452 17.36 4.802-6.23 8.466-24.836 8.466-24.836" fill="url(#a)" transform="translate(149)"/><path d="M202.283 192.519s30.68-124.013 20.732-154.754c-9.949-30.74-30.207-42.272-38.14-36.204-7.934 6.068 14.18 77.155 5.723 92.184-8.456 15.03-45.664 87.043-41.233 106.25 4.431 19.21 39.651 23.59 44.452 17.36 4.802-6.23 8.466-24.836 8.466-24.836" fill="#D3C5B8"/><path d="M171.855 210.858s-103.529 2.649-124.642 3.532c-21.115.882-11.607 32.996 4.086 32.996 14.093 0 63.837.424 93.311.424 23.834 0 45.39 4.543 45.39-30.772 0-20.486-18.145-6.18-18.145-6.18" fill="#D3C5B8"/><path fill="#AD0E17" d="M77.5 57.5"/><path d="M170 155H60.343c-8.574 0-14.921 9.902-12.997 20.278l.083.452C50.79 193.85 66.68 207 85.212 207h83.002L170 155" fill="#D3C5B8"/><path d="M59.432 155h19.533c-8.633 0-15.023 9.902-13.086 20.278l.085.452C69.346 193.85 85.343 207 104 207H84.468c-18.658 0-34.653-13.15-38.036-31.27l-.084-.452C44.411 164.902 50.801 155 59.432 155" fill="#E7E3E0"/><g><path d="M244 155H134.344c-8.575 0-14.922 9.902-12.998 20.278l.084.452c3.36 18.12 19.25 31.27 37.783 31.27h83L244 155" fill="#E7E3E0"/><path d="M261 155H151.344c-8.575 0-14.922 9.902-12.998 20.278l.084.452c3.36 18.12 19.25 31.27 37.783 31.27h83L261 155" fill="#D3C5B8"/><path d="M229.427 101.207c8.42-15.057.515-87.565 8.415-93.645 6.782-5.218 22.603 2.57 33.215 24.354l26.826-2.45s21.384 56.25 11.515 80.443c-9.871 24.19-11.47 110.926-11.47 110.926l-56.401-.26c-13.953 2.635-49.445-7.192-53.163-23.403-4.413-19.243 32.641-80.907 41.063-95.965" fill="#E7E3E0"/><path fill="#D3C5B8" d="M300 44h-66v1.75L300 51z"/><path d="M244.41 0c-8.18.735-15.006 5.64-17.206 15.278a93.262 93.262 0 00-2.182 15.599c-.403 7.353 4.75 13.628 10.73 13.09l64.248-.17V0h-55.59zM109 218.902v27.886c0 19.679 11.215-2.505 51.396-.114C199.758 249.016 275 214.546 275 214.546s-4.284-19.914-70.685-14.665l-76.315.017c-10.492.006-18.996 8.512-19 19.004z" fill="#E7E3E0"/><path d="M53.283 192.519S83.963 68.506 74.015 37.765C64.066 7.025 43.808-4.507 35.875 1.561c-7.934 6.068 14.18 77.155 5.723 92.184-8.456 15.03-45.664 87.043-41.233 106.25 4.431 19.21 39.651 23.59 44.452 17.36 4.802-6.23 8.466-24.836 8.466-24.836" fill="url(#a)" transform="translate(258)"/><path d="M311.283 192.519s30.68-124.013 20.732-154.754c-9.949-30.74-30.207-42.272-38.14-36.204-7.934 6.068 14.18 77.155 5.723 92.184-8.456 15.03-45.664 87.043-41.233 106.25 4.431 19.21 39.651 23.59 44.452 17.36 4.802-6.23 8.466-24.836 8.466-24.836" fill="#D3C5B8"/><path d="M280.855 210.858s-103.529 2.649-124.642 3.532c-21.115.882-11.607 32.996 4.086 32.996 14.093 0 63.837.424 93.311.424 23.834 0 45.39 4.543 45.39-30.772 0-20.486-18.145-6.18-18.145-6.18" fill="#D3C5B8"/><path fill="#AD0E17" d="M186.5 57.5"/><path d="M279 155H169.343c-8.574 0-14.921 9.902-12.997 20.278l.083.452c3.36 18.12 19.25 31.27 37.783 31.27h83.002L279 155" fill="#D3C5B8"/><path d="M168.432 155h19.533c-8.633 0-15.023 9.902-13.086 20.278l.085.452C178.346 193.85 194.343 207 213 207h-19.532c-18.658 0-34.653-13.15-38.036-31.27l-.084-.452C153.411 164.902 159.801 155 168.432 155" fill="#E7E3E0"/></g></g></svg>
