<svg width="270" height="297" viewBox="0 0 270 297" xmlns="http://www.w3.org/2000/svg"><g fill="none" fill-rule="evenodd"><path d="M138.37 254.74l-.03-4.64c1.42-5.73 3.4-17.12 5.64-28.31 1.74-1.64 5.3-5.13 7.2-8.06a64.28 64.28 0 004.42-8.75 64.67 64.67 0 001.02 3.06h6.3c3.44-4.83 6.6-20.46 6.6-33.53 0-5.54-.26-9.43-.56-12.09l2.43.28L270 179.4l-.17-7.82c-.18-7.8-5.79-12.99-13.12-16.2l-104.33-44.15V59.4c0-26.15-11.52-59.4-17.29-59.4h-.15c-5.76 0-17.28 33.25-17.28 59.4v51.82L13.3 155.39c-7.34 3.2-12.95 8.38-13.12 16.2l-.18 7.8 67.86-11.48h.01l30.7-5.2 2.15-.25c-.29 2.66-.54 6.54-.54 12.05 0 13.07 3.13 28.7 6.55 33.53H113s.44-1.19 1.01-3.06a64.34 64.34 0 004.4 8.75c2.16 3.34 6.44 7.4 7.76 8.62 2.23 11.2 4.2 22.51 5.6 28.04v4.92c-7.27 4.68-39.64 25.53-41.66 26.53-2.28 1.14-4.37 4.93-4.37 8.91V297l47.5-12.5v-.22c.66 5.18 1.48 8.84 2.23 8.84.07 0 .14-.05.21-.12.07.07.14.12.2.12.69 0 1.38-4.79 1.91-10.8v2.17L185.28 297v-6.25c0-3.98-2.09-7.77-4.37-8.9-2.12-1.06-37.61-23.93-42.54-27.1z" fill="#D3C5B8"/><g fill="#E7E3E0"><path d="M151.28 159.2c-1.72 6.15-2 17.78-1.65 23.76.16 3.03.12 10.06.8 15.96a27.3 27.3 0 002.73 9.78c.14.29 11.14.45 11.32.1 1.17-2.06 2.35-5.33 3.37-9.88 1.14-5.06 1.04-11.8 1.34-18.57.27-6.09.5-12.17.08-17.12-.11-1.26-.2-2.43-.39-3.53-.33-1.95-.52-3.22-2.67-3.41-3.4-.3-9.97-.39-12.69-.15-1.89.16-1.9 1.84-2.24 3.06zM116.29 157.75c.16.4.3.82.45 1.28 1.01 3.33 1.23 8.32 1.45 13.23.2 4.8.22 9.56.28 14.36.04 3.46.14 8.18-.53 12.36-.48 3-1.59 7-2.94 9.74-.14.23-11.34.41-11.5.15a34.3 34.3 0 01-3.5-10c-1.1-5.53-1.12-12.86-1.3-20.14-.2-7.61-.5-15.18.58-20.27.3-1.42.32-1.89 2-2.11 2.92-.4 9.5-.44 12.73-.2 1.86.13 1.74.29 2.28 1.6z"/></g></g></svg>
