<svg width="180" height="394" xmlns="http://www.w3.org/2000/svg"><g fill="none" fill-rule="evenodd"><path d="M180 20v351.5c0 5.799-4.701 10.5-10.5 10.5h-159C4.701 382 0 377.299 0 371.5V24C0 10.745 10.745 0 24 0h136c11.046 0 20 8.954 20 20z" fill="#D3C5B8"/><circle fill="#E7E3E0" cx="90" cy="14" r="4"/><path d="M169 22.5v361c0 5.799-4.701 10.5-10.5 10.5h-137c-5.799 0-10.5-4.701-10.5-10.5V26c0-7.732 6.268-14 14-14h25.47a12 12 0 019.273 4.384l4.085 4.973a12 12 0 009.273 4.384H106.9a12 12 0 009.273-4.384l4.085-4.973A12 12 0 01129.53 12h28.97c5.799 0 10.5 4.701 10.5 10.5z" fill="#E7E3E0"/><g fill="#D3C5B8"><path d="M69.725 131.631l.054-.038 28.816-20.58-7.664.01-24.225 17.301-.103.074-.027-.029-9.43-9.745c-6.128-6.211-10.968-7.768-17.501-7.614l20.957 21.673L33 152.397l7.622.02 23.102-16.5.035.036 18.012 18.662c5.625 5.607 11.687 8.524 18.229 8.38L69.725 131.63z"/><path d="M136.344 133.547c-3.593 12.461-13.34 15.918-24.719 15.536-13.612-.456-17.433-7.176-13.719-19.273 3.773-12.285 13.752-15.888 24.625-16.006 8.725-.094 13.197 3.62 14.802 7.255 1.257 2.952.3 8.022-.989 12.488m-11.373-23.542c-15.661-.18-29.394 4.21-34.38 19.698-4.623 14.367.522 23.683 19.464 24.254 15.836.478 29.764-2.885 35.16-19.187 1.845-5.573 2.517-12.073.769-15.764-2.235-4.549-7.589-8.847-21.013-9z"/></g></g></svg>
