<svg width="292" height="151" xmlns="http://www.w3.org/2000/svg"><g fill="none" fill-rule="evenodd"><path d="M248.983 122.993L73 123a6 6 0 01-6-6V6.007a6 6 0 016-6L248.983 0 292 60.728l-43.017 62.265z" fill="#E7E3E0"/><path d="M179.043 150.993L6 151a6 6 0 01-6-6V34.007a6 6 0 016-6L179.043 28l37.783 54.502a12.999 12.999 0 01-.053 14.89l-37.73 53.601z" fill="#D3C5B8"/><path d="M80.281 91.06c2.552 0 4.855-.514 6.91-1.541a16.528 16.528 0 005.316-4.2c1.489-1.772 2.64-3.792 3.456-6.06.815-2.268 1.222-4.677 1.222-7.229v-.213a20.9 20.9 0 00-1.222-7.123c-.816-2.268-1.95-4.27-3.402-6.006a16.27 16.27 0 00-5.263-4.147C85.243 53.514 82.975 53 80.494 53c-2.551 0-4.873.514-6.963 1.541a16.356 16.356 0 00-5.37 4.2c-1.488 1.772-2.64 3.792-3.454 6.06-.815 2.268-1.223 4.677-1.223 7.229v.213a20.9 20.9 0 001.223 7.123c.815 2.268 1.949 4.27 3.402 6.006a16.27 16.27 0 005.262 4.147c2.056 1.027 4.359 1.541 6.91 1.541zm53.051-37.21h-7.549l-54.645 74.42h7.655l54.539-74.42zM76.614 84.097c1.17.673 2.463 1.01 3.88 1.01a7.93 7.93 0 003.934-1.01c1.204-.674 2.232-1.595 3.083-2.765.85-1.17 1.506-2.533 1.967-4.093.46-1.559.69-3.225.69-4.996v-.213c0-1.843-.265-3.561-.797-5.156-.531-1.595-1.24-2.977-2.126-4.146-.886-1.17-1.931-2.091-3.136-2.764a7.729 7.729 0 00-3.828-1.01c-1.488 0-2.817.336-3.986 1.01-1.17.673-2.18 1.594-3.03 2.764-.85 1.169-1.506 2.533-1.967 4.093-.46 1.559-.691 3.225-.691 4.996v.213c0 1.843.248 3.561.744 5.156.496 1.595 1.205 2.977 2.126 4.146.922 1.17 1.967 2.091 3.137 2.765zm47.468 45.023c2.552 0 4.873-.514 6.964-1.542a15.778 15.778 0 005.315-4.199c1.453-1.772 2.587-3.792 3.402-6.06.816-2.268 1.223-4.677 1.223-7.229v-.213c0-2.48-.39-4.855-1.169-7.123-.78-2.268-1.896-4.27-3.349-6.006a16.266 16.266 0 00-5.263-4.147c-2.055-1.027-4.359-1.541-6.91-1.541-2.552 0-4.855.514-6.91 1.541a16.519 16.519 0 00-5.316 4.2c-1.488 1.772-2.64 3.792-3.455 6.06s-1.223 4.677-1.223 7.229v.213c0 2.48.408 4.855 1.223 7.123.815 2.268 1.949 4.27 3.402 6.006a16.255 16.255 0 005.262 4.146c2.056 1.028 4.324 1.542 6.804 1.542zm-3.667-6.964c1.169.674 2.462 1.01 3.88 1.01 1.488 0 2.817-.336 3.987-1.01 1.169-.673 2.179-1.594 3.03-2.764.85-1.169 1.506-2.533 1.966-4.093.461-1.559.691-3.225.691-4.996v-.213c0-1.843-.248-3.562-.744-5.156-.496-1.595-1.205-2.977-2.126-4.146-.921-1.17-1.985-2.091-3.189-2.764a7.73 7.73 0 00-3.828-1.01 7.93 7.93 0 00-3.933 1.01c-1.205.673-2.233 1.594-3.083 2.764-.851 1.169-1.506 2.533-1.967 4.093-.461 1.559-.691 3.224-.691 4.996v.213c0 1.843.248 3.561.744 5.156.496 1.595 1.205 2.977 2.126 4.146.922 1.17 1.967 2.091 3.137 2.764z" fill="#E7E3E0"/></g></svg>