<svg width="331" height="179" xmlns="http://www.w3.org/2000/svg" xmlns:xlink="http://www.w3.org/1999/xlink"><defs><path d="M86.687 103c3.36 0 6.393-.677 9.1-2.03a21.765 21.765 0 007-5.53c1.96-2.333 3.476-4.993 4.55-7.98 1.073-2.987 1.61-6.16 1.61-9.52v-.28c0-3.267-.537-6.393-1.61-9.38-1.074-2.987-2.567-5.623-4.48-7.91a21.425 21.425 0 00-6.93-5.46c-2.707-1.353-5.694-2.03-8.96-2.03-3.36 0-6.417.677-9.17 2.03a21.538 21.538 0 00-7.07 5.53c-1.96 2.333-3.477 4.993-4.55 7.98-1.074 2.987-1.61 6.16-1.61 9.52v.28c0 3.267.536 6.393 1.61 9.38 1.073 2.987 2.566 5.623 4.48 7.91a21.425 21.425 0 006.93 5.46c2.706 1.353 5.74 2.03 9.1 2.03zm-1.96 49l71.82-98h-9.94l-71.96 98h10.08zm2.24-56.84c-1.867 0-3.57-.443-5.11-1.33-1.54-.887-2.917-2.1-4.13-3.64-1.214-1.54-2.147-3.36-2.8-5.46-.654-2.1-.98-4.363-.98-6.79v-.28c0-2.333.303-4.527.91-6.58.606-2.053 1.47-3.85 2.59-5.39 1.12-1.54 2.45-2.753 3.99-3.64s3.29-1.33 5.25-1.33c1.773 0 3.453.443 5.04 1.33 1.586.887 2.963 2.1 4.13 3.64 1.166 1.54 2.1 3.36 2.8 5.46.7 2.1 1.05 4.363 1.05 6.79v.28c0 2.333-.304 4.527-.91 6.58-.607 2.053-1.47 3.85-2.59 5.39-1.12 1.54-2.474 2.753-4.06 3.64-1.587.887-3.314 1.33-5.18 1.33zm57.4 57.96c3.36 0 6.416-.677 9.17-2.03 2.753-1.353 5.086-3.197 7-5.53 1.913-2.333 3.406-4.993 4.48-7.98 1.073-2.987 1.61-6.16 1.61-9.52v-.28c0-3.267-.514-6.393-1.54-9.38-1.027-2.987-2.497-5.623-4.41-7.91a21.425 21.425 0 00-6.93-5.46c-2.707-1.353-5.74-2.03-9.1-2.03-3.36 0-6.394.677-9.1 2.03a21.765 21.765 0 00-7 5.53c-1.96 2.333-3.477 4.993-4.55 7.98-1.074 2.987-1.61 6.16-1.61 9.52v.28c0 3.267.536 6.393 1.61 9.38 1.073 2.987 2.566 5.623 4.48 7.91a21.425 21.425 0 006.93 5.46c2.706 1.353 5.693 2.03 8.96 2.03zm.28-7.84c-1.867 0-3.57-.443-5.11-1.33-1.54-.887-2.917-2.1-4.13-3.64-1.214-1.54-2.147-3.36-2.8-5.46-.654-2.1-.98-4.363-.98-6.79v-.28c0-2.333.303-4.527.91-6.58.606-2.053 1.47-3.85 2.59-5.39 1.12-1.54 2.473-2.753 4.06-3.64 1.586-.887 3.313-1.33 5.18-1.33 1.773 0 3.453.443 5.04 1.33 1.586.887 2.986 2.1 4.2 3.64 1.213 1.54 2.146 3.36 2.8 5.46.653 2.1.98 4.363.98 6.79v.28c0 2.333-.304 4.527-.91 6.58-.607 2.053-1.47 3.85-2.59 5.39-1.12 1.54-2.45 2.753-3.99 3.64s-3.29 1.33-5.25 1.33z" id="a"/></defs><g transform="translate(.36)" fill="none" fill-rule="evenodd"><path d="M266.403 146.991L55.641 147a6 6 0 01-6-6V6.009a6 6 0 016-6L266.403 0l51.238 72.577-51.238 74.414z" fill="#E7E3E0"/><circle fill="#FFF" cx="307" cy="113" r="11"/><path d="M216.142 178.991L6 179a6 6 0 01-6-6V37.009a6 6 0 016-6L216.142 31l46.656 67.08a13 13 0 01-.054 14.923l-46.602 65.988z" fill="#D3C5B8"/><path stroke="#D3C5B8" stroke-width="3" stroke-linecap="square" d="M256.141 105h72"/><g fill-rule="nonzero"><use fill="#D8353B" xlink:href="#a"/><use fill="#E7E3E0" xlink:href="#a"/></g></g></svg>
