<svg width="168" height="186" xmlns="http://www.w3.org/2000/svg" xmlns:xlink="http://www.w3.org/1999/xlink"><defs><path id="a" d="M0 0h73v43.2H0z"/><path id="c" d="M0 0h22.5v159H0z"/></defs><g fill="none" fill-rule="evenodd"><path d="M162.4 99c-1-.6-2-1.2-3.4-1.8L95 70v.7l67.4 28.4zM157.8 106.7L110.3 95V92l47.5 12v2.7zm5.3-6.6l-.2.4L95 72v27.1h.4l.2-1 .1-.3h5V95l54.2 11.8v.4h.4v2.2l11.7 2-.1-4.3c0-2.1-.8-4.8-3.7-7.2v.2z" fill="#FFF"/><g transform="translate(95 69)"><mask id="b" fill="#fff"><use xlink:href="#a"/></mask><path d="M72.8 37.8c0-4.5-3-8.1-8.4-10.5L0 0v1l64 27.2c1.4.6 2.5 1.2 3.4 1.9l.9.4-.1.2c2.9 2.4 3.6 5 3.7 7.1v4.3l-11.6-2v.4h-.9V40L30.9 35v.4h-1v-.1l-3.2-1-6.2-1-10.2-1.2v.4L73 43.2v-5.4z" fill="#393B41" mask="url(#b)"/></g><path d="M95 99.3h.3V99L95 99v.3z" fill="#393B41"/><path d="M109.1 99.9L105 99l.4 2.4 10.1 1.2 4.5.5L109 100zM126.3 103.6l24 2.9L102 96v1.6h3l.1.2 21.2 4.4z" fill="#FFF"/><path fill="#393B41" d="M150.3 106.6l4.5 1v-.4h.4l.1-.5L101 95v2.8h1v-1.6z"/><path fill="#FFF" d="M157.6 104.5L112 93v1l45.6 11.3z"/><path d="M112 93.2l45.6 11.5v.8l-45.7-11.3v-1zm-1 1.7l47.5 11.8V104L111 92v3zM95 72l68 28.6.1-.5.1-.2.1-.2-.9-.4L95 71z" fill="#393B41"/><path fill="#FFF" d="M125.8 103.3L110 100l10.8 3.3 1.8.5 3.2 1z"/><path d="M126.2 102.5L105 98v.1l.3 1 4.1.8 15.8 3.3V104.8h1v-2.3z" fill="#393B41"/><path d="M10.1 104h.4l47.1-12v3l-47.5 11.8V104zM5 100.1l-.1-.2c-2 1.7-3.6 4-3.7 7.2l-.1 4.2 11.7-2v-2.1h.4v-.4L67.3 95v2.8H72v.3l.4 1.1h.6V72L5 100.6 5 100z" fill="#FFF"/><path fill="#FFF" d="M18.4 106.8l-4.4 1v1.6l28.5-4.9v-.5zM46 103l6.2-1-4.4.5zM6 99l67.4-28.3V70l-64 27.2c-1.1.5-2.3 1-3.4 1.9"/><path d="M52.4 102.4l-6.2 1-3.2 1v.2h-1v-.4L13.7 109v.6h-1v-.5l-11.6 2v-4.3c.1-3.1 1.7-5.4 3.7-7v-.3l.8-.4c1.1-.8 2.3-1.4 3.4-1.9L73 70v-1L8.6 96.3c-5.4 2.4-8.3 6-8.4 10.5l-.1 5.5 62.4-10.6v-.5l-10 1.2zM72 99.3h.6V99l-.6.1v.2" fill="#393B41"/><path d="M48 103l4.4-.4 10-1.2.4-2.4-4 .8-10.8 3.3zM18 106.5l24-2.9v-1.4l21-4.4.1-.2h3.3V96z" fill="#FFF"/><path fill="#393B41" d="M13 106.7v.5h.6v.4l4.4-1 48.4-10.4v1.6h1V95z"/><path fill="#FFF" d="M11 105.3L56.6 94v-1L11 104.5z"/><path d="M56.6 94.2l-45.7 11.3v-.8l45.7-11.5v1zm.9-2.2l-47.1 12H10v2.7L57.5 95V92zM5 99.7l.1.3v.1l.3.5 68-28.6v-1L5.8 99.3z" fill="#393B41"/><path d="M91 137.1c1.1-1 2.5-2.5 3.3-3.8 1-1.6 2-3.8 2.6-5.2-.7-2.3-1.6-6-1.6-9.4l.3-10.7a216.6 216.6 0 0 1-4.6 29.1M95 100.8l.1-.8H95v.8z" fill="#FFF"/><path d="M95 100h.1l.2-1H95v1zM96.3 128a39 39 0 0 1-2.7 5.2c-.8 1.3-2.2 2.8-3.3 3.9l-.3 1.6c1.1-1 3.3-3.2 4.4-5 .9-1.3 1.7-3 2.3-4.3l-.4-1.4" fill="#393B41"/><path d="M104.6 99H97c-.2.7-.6 2.3-.6 3.8l-.1 4.6c-.2 3.4-.4 8.1-.4 11.3 0 4.3 1.7 9.5 2.2 10.8h3.3a50 50 0 0 0 3.9-20.4c0-6.3-.6-9.2-.8-10.1" fill="#FFF"/><path d="M105.3 109a50 50 0 0 1-3.9 20.4h-3.3c-.4-1.3-2.2-6.4-2.2-10.8 0-3.1.3-7.8.4-11.2l.2-4.7c0-1.4.4-3 .6-3.8h7.4c.3 1 .8 3.8.8 10.2m.3-9.9l-.3-.9V98H96.3l-.1.3-.3 1.1v.2a22.4 22.4 0 0 0-.4 1.7c0 2 0 4.3-.3 6.6l-.3 10.7a34.8 34.8 0 0 0 2 10.8l.3.7.2.3h4.4l.2-.2c2.2-3.1 4.2-13 4.2-21.1 0-3.1-.2-5.4-.3-7v-.5l-.4-2.4" fill="#393B41"/><path d="M73.1 102.2a296.2 296.2 0 0 1 .5 15.9c0 3.3-1 7-1.6 9.4a39 39 0 0 0 2.6 5.2c1 1.4 2.5 3 3.7 4.2l-.7-3.4c-2-9.2-4.3-23.3-4.3-32.7v-.8h-.4l.2 2.2" fill="#FFF"/><path d="M72.2 100h.4v-1H72l.2 1M77.7 137.4a28.5 28.5 0 0 1-3.6-4.2 39 39 0 0 1-2.7-5.2l-.4 1.4c.6 1.3 1.4 3 2.3 4.3a34 34 0 0 0 4.7 5.4c0-.6-.2-1.1-.3-1.7" fill="#393B41"/><path d="M63 109.1c0 7.7 1.8 17.2 3.8 20.4h3.3a38 38 0 0 0 2.2-10.8c0-3.2-.2-7.9-.4-11.3l-.1-4.6c0-1.5-.4-3.1-.6-3.8h-7l-.5.1a47 47 0 0 0-.7 10" fill="#FFF"/><path d="M71.6 128a35 35 0 0 0 1.6-9.4c0-3.2-.2-7.9-.4-11.3l-.1-4.6a13 13 0 0 0-.4-3.1v-.2l-.4-1V98H63v.2l1-.2.2 1h7c.1.6.5 2.3.5 3.7a294.9 294.9 0 0 1 .5 15.9 38 38 0 0 1-2.1 10.8h-3.3c-2-3.1-3.9-12.7-3.9-20.3 0-6.2.6-9 .8-10l-1 .2a26.8 26.8 0 0 0-.4 2.8c-.2 1.6-.3 3.9-.3 7 0 8 2 18 4.2 21v.3h4.6v-.3l.3-.7.5-1.4" fill="#393B41"/><path d="M84.7 117.2c.7 0 1.4 0 1.9 21.1l.2 13.5 1.1-6 2.4-12a182 182 0 0 0 4.3-32.6V43h-2.4v-.4s-.5-2-1.4-3.9c-1-2-2.7-4.1-2.7-4.2l-1-1.3 1.6.6a19 19 0 0 1 5.9 3.6l-.7-.7a15 15 0 0 0-9-3.9h-.4v-9h.4c.2 0 3.7-.2 6.8 3.2 1.5 1.8 2.3 3.8 2.7 5.5C93.2 17.1 86.9 1 84.4 1h-.2C83 1 80.4 5.1 78 13a93.6 93.6 0 0 0-3.7 18.1c.5-1.4 1.2-2.9 2.4-4.2 3-3.4 6.6-3.2 6.8-3.2h.4v9h-.5a15 15 0 0 0-9 4l-.4.4a20 20 0 0 1 5.7-3.4l1.6-.6-1 1.3s-1.8 2.3-2.7 4.2c-1 2-1.4 3.9-1.4 4v.3H74v58.3c0 9.4 2.3 23.5 4.3 32.6l2.3 12 1.4 6.9c0-5 .3-11.6.5-17.5.8-18 1.6-18 2.2-18" fill="#FFF"/><g transform="translate(73)"><mask id="d" fill="#fff"><use xlink:href="#c"/></mask><path d="M17.6 137l.6-3a216.6 216.6 0 0 0 4.3-32.8V37.4c0-7.3-1.5-16.5-4-24.7-1-3-4.2-12.7-7.2-12.7h-.1C7 0 0 21.3 0 37.4v63.8a182.7 182.7 0 0 0 5.3 37.7l1.4 7 2 10.3v2.7h.1l.1-6.3-1.3-7c-.7-3.7-1.5-8-2.4-11.8-2-9.2-4.3-23.2-4.3-32.6V42.8H.5v-5.3L1 37l-.3.4v-1.2c0-1 0-3 .7-5.1C1.8 25.3 3 18.8 4.9 13c2.5-8 5-12 6.3-12 2.7 0 9 16 10.1 31.4.4 1.6.4 3 .4 3.8v1.2l-.2-.2.2.3v5.3h-.2v58.4a182 182 0 0 1-4.2 32.6c-.9 3.9-1.7 8.2-2.4 12l-1.2 6v4.2c.6-2.3 1.3-6 2.1-10.1a833.1 833.1 0 0 1 1.8-9" fill="#393B41" mask="url(#d)"/></g><path d="M108.4 174.5L87.1 161a38.9 38.9 0 0 1 0 2.4v.7l-.1 5.4 1.8.7 19.6 4.3zM111.1 174.6h.3A2609 2609 0 0 1 87 159v.3l24.1 15.3zM86.4 170a184.3 184.3 0 0 1-.4 5.3v1l28.5 7.5v-3.3c0-2-.8-3.7-1.8-4.6v4.6L86.4 170z" fill="#FFF"/><path d="M86.5 158.4l.1.8 24.4 15.6 1.4.3h.5v1c1 .8 1.8 2.6 1.8 4.5v3.3l-28.5-7.5v-1l-.2 2 29.6 7.7v-4.5c0-2.5-1.3-5-3-6-1-.5-17.2-10.9-26-16.6v.4h-.1z" fill="#393B41"/><path fill="#FFF" d="M112.2 175.8v-.4h.5l-1.5-.3-.2-.1zM89 170l23.6 9.4v-2.6l-4-2.5z"/><path d="M112.4 175.4l.6.4-.5.8v-.1 2.6l-23.6-9.4-1.8-.7-.1 1 26.4 10.5V175h-1v.5z" fill="#393B41"/><path d="M112.3 177.1h.1l.5-.7-.6-.4-1.2-.8L87 160v1.2l21.4 13.5 3.9 2.4z" fill="#393B41"/><path d="M58 175.4h.2l23.9-15.1v-.3L58 175.4M55.8 176.8c-1 1-1.8 2.7-1.8 4.6v3.3l28.5-7.5a55.4 55.4 0 0 1-.6-6.2l-26.1 10.4v-4.6zM80.6 170l1.6-.6a106 106 0 0 1-.1-8.4L61 174.3l19.6-4.3z" fill="#FFF"/><path d="M82.4 177.1L54 184.6v-3.3c0-1.9.9-3.6 1.8-4.6v-.9h.5l1.4-.3L81.7 160l.1-.9h-.2v-.2C72.5 165 57 175 56 175.5c-1.7.8-3 3.4-3 6v4.4l29.5-7.8v-.9" fill="#393B41"/><path fill="#FFF" d="M80.6 170l-19.7 4.3-3.9 2.5v2.6zM56.5 175.8l1.2-.8h-.2l-1.5.4h.5z"/><path d="M57 180v-2.6h-.2l-.2-.3-.3-.4.6-.4v-.4H56v5.5L82.1 171v-1l-1.6.6-23.6 9.4z" fill="#393B41"/><path d="M57.8 175l-1.2.8-.6.4.3.4.2.4h.1l4-2.5 21-13.3V160l-23.8 15z" fill="#393B41"/><path d="M84.4 156.8h.2c.6 0 1 .1 1.4.4a532 532 0 0 0-1.2-38.2c-1 5.3-1.7 28.4-1.8 38.3.3-.3.8-.5 1.4-.5" fill="#FFF"/><path d="M86.9 151.6l-.2-13.5c-.5-21.1-1.2-21.1-1.9-21.1-.6 0-1.4 0-2.2 18a785.2 785.2 0 0 0-.6 23.7v.2h.2c.1-.8.4-1.3.8-1.7 0-9.9.8-33 1.8-38.3.7 4.8 1 24.5 1.2 38.1.4.4.7 1 .9 1.8v-.4-2.5-4.3M86.8 175.7a127 127 0 0 0 .4-5.3v-1a138.7 138.7 0 0 0-.4 5.5c-.7 7.3-1.3 7.9-1.8 8h.1c.5 0 1 0 1.5-5.3l.2-2" fill="#393B41"/><path d="M84.1 157H84c2 0 2.6 1.5 2.7 6a38.9 38.9 0 0 0-.2-2.7v-.3l-.1-.8c-.2-1-.5-1.5-1-1.8-.3-.3-.7-.4-1.3-.4" fill="#393B41"/><path d="M86.4 162.9c0-5.9-.9-5.9-2-5.9-1.2 0-1.4 1.5-1.4 6.1 0 7.1 1 16 1.7 18 .8-2.3 1.7-12.7 1.7-18.2" fill="#FFF"/><path d="M83 164c0-4.5.2-6 1.4-6 1 0 2 0 2 5.8 0 5.5-1 16-1.7 18.3-.8-2-1.8-11-1.8-18m3.7 11.4a151 151 0 0 0 .6-12.5c0-4.5-.7-6-2.6-6h-.2c-.6 0-1 .2-1.4.5-.4.4-.6 1-.8 1.8v.9l-.1.3a25.2 25.2 0 0 0-.1 3.6 106 106 0 0 0 .7 12.4l.1.7.1 1c.8 5.2 1.4 5.2 1.8 5.2h.1c.5 0 1.1-.7 1.8-8" fill="#393B41"/><path d="M85 24v7.2c3.1.2 6.4 1.9 8.3 3.4 0-2-.4-5.1-2.8-7.7A8.2 8.2 0 0 0 85 24" fill="#FFF"/><path d="M85 31.1V24c1 0 3.3.4 5.5 2.9 2.3 2.5 2.7 5.7 2.8 7.7a16.3 16.3 0 0 0-8.4-3.5m-.5-8H84v9h.5a15 15 0 0 1 9 3.8l.6.7.2.1v-1c0-.9 0-2.3-.4-4-.4-1.7-1.1-3.7-2.7-5.5a8.8 8.8 0 0 0-6.8-3.2" fill="#393B41"/><path d="M93 41.6h1v-4c-1-1-2.7-2-4-2.6a21.6 21.6 0 0 1 3 6.6" fill="#FFF"/><path d="M93.9 37.9v4h-1a23.5 23.5 0 0 0-3-6.7c1.3.6 3 1.6 4 2.7m-5.3-4.3L87 33l1 1.4s1.8 2.2 2.7 4.1c1 2 1.4 3.9 1.4 4l.1.3H94.8v-5.3h-.1l-.2-.3a19 19 0 0 0-5.9-3.6" fill="#393B41"/><path d="M75 34.6c1.9-1.5 5.2-3.2 8.3-3.4V24c-1 0-3.3.5-5.5 2.9a12.1 12.1 0 0 0-2.8 7.7" fill="#FFF"/><path d="M83.3 24V31c-3.1.2-6.4 2-8.3 3.5 0-2 .5-5.2 2.8-7.7a8.2 8.2 0 0 1 5.5-3m.5 8.2h.4v-9h-.4c-.1-.1-3.7-.3-6.7 3.1-1.2 1.4-2 2.9-2.4 4.3-.7 2.1-.7 4.1-.7 5.1v1.1l.4-.3.4-.5a15 15 0 0 1 9-3.8" fill="#393B41"/><path d="M78 35c-1.3.6-3 1.6-4 2.7v4h1a23.3 23.3 0 0 1 3-6.7" fill="#FFF"/><path d="M74 41.8v-4c.9-1 2.6-2 4-2.6a21.6 21.6 0 0 0-3.1 6.6h-1zm1.7.6s.5-2 1.4-3.9c.9-2 2.6-4.1 2.6-4.1l1.1-1.4-1.6.6a19.9 19.9 0 0 0-6 3.8l-.2.1v5.3h2.6l.1-.4z" fill="#393B41"/><path fill="#FFF" d="M58.8 100L43 103.3v1.4l3.2-1 1.8-.4z"/><path fill="#393B41" d="M42 104v1h1V103.4l15.8-3.3 4-.9 1-.2h.4l-.2-1-1 .2-21 4.4z"/></g></svg>