<svg xmlns="http://www.w3.org/2000/svg" width="69" height="66"><path d="M22.1 53.4c-.7.2-1.2.9-1.1 1.6l.2 2.4v.1c0 .3 0 .6.2.9.4.6 1 .9 2.4 1.1a40.1 40.1 0 0 0 5.7.6l1.2.1 1 .1.3 1 .6 2c.2.8.8 1.2 1.4 1.2h.1c.7 0 1.2-.4 1.4-1l1-3.1h1c.7-.2 1.7-.2 2.9-.3h.4c.7-.2 3.4-.4 4-.5 1.3-.2 2-.5 2.3-1l.2-1v-.1l.2-2.4c.1-.7-.4-1.4-1.1-1.6l-10-1v-3.3l6.1-2.6c.2-.1.3-.3.3-.5v-6l1.3-.2 22-4c.9 0 1.4-.7 1.4-1.5v-2.6c0-.8-.6-1.4-1.4-1.6-1.9 0-18.2-1.7-22-2.3-1.6-.2-2.8-.6-3.9-1l-.9-.4v-1a261.6 261.6 0 0 0 0-9.4c0-2.4-.6-5.8-1.4-8.8-.7-3.9-1.9-5.8-3.5-5.8h-.2c-1.6 0-2.7 1.8-3.8 5.9a37.6 37.6 0 0 0-1.1 11.5 633.6 633.6 0 0 1-.1 6.6v.9l-.9.4c-1 .5-2.2.9-3.8 1-3.8.7-20.8 2.5-21.7 2.5-.7 0-1.3.6-1.3 1.5v2.6c0 .8.5 1.4 1.3 1.5L25.7 40v6c0 .3 0 .4.3.5l5.5 2.6v3.2l-9.4 1z" stroke="currentColor" stroke-width="3" fill="none" fill-rule="evenodd"/></svg>
