<svg viewBox="0 0 125 57" fill="none" xmlns="http://www.w3.org/2000/svg">
  <path fill-rule="evenodd" clip-rule="evenodd"
        d="M40.9804 22.8508L41.0404 22.8095L73.1953 0.737778L64.6434 0.749079L37.6119 19.304L37.497 19.3828L37.4666 19.3524L26.9442 8.9006C20.1061 2.23939 14.705 0.569882 7.4149 0.73478L30.8007 23.9792L0 45.1213L8.50507 45.1423L34.2841 27.4472L34.3231 27.4859L54.4227 47.5007C60.6986 53.5141 67.4633 56.6425 74.7636 56.488L40.9804 22.8508Z"
        fill="#D8353B"/>
  <path fill-rule="evenodd" clip-rule="evenodd"
        d="M113.766 25.0962C109.905 38.3458 99.4303 42.0206 87.2036 41.6152C72.5765 41.1297 68.4704 33.9849 72.4619 21.123C76.5156 8.06165 87.2386 4.23139 98.9222 4.10593C108.297 4.00537 113.103 7.95487 114.828 11.8195C116.179 14.9583 115.15 20.3485 113.766 25.0962ZM100.723 0.00560541C83.6196 -0.181433 68.6217 4.38245 63.1773 20.4897C58.1281 35.4302 63.7476 45.1184 84.4337 45.7125C101.729 46.2088 116.939 42.7118 122.832 25.7591C124.847 19.9636 125.581 13.2037 123.672 9.36561C121.231 4.63522 115.384 0.165661 100.723 0.00560541Z"
        fill="#646771"/>
</svg>
