<svg width="68" height="86" xmlns="http://www.w3.org/2000/svg"><path d="M33.45 3c1.199 0 4.494 9 4.494 14.7 0 5.7-.1 20.3-.1 20.3l4.494 2.7s17.374 5 18.672 5.4c1.298.4 2.197 1.4 2.197 1.4l1.598 5.1v1.2l-2.497-2.6h-20.67s.4 3.5.4 5.9c0 2.4-.4 8.4-.4 8.4h-3.394l-.5-1.9h-1.597l-1.298 10.3 9.086 5.5V83l-10.384-2-9.986 2v-3.6l8.887-5.5-1.298-10.3h-1.498l-.499 1.9h-3.395s-.4-6-.4-8.4c0-2.4.4-5.9.4-5.9H5.692l-2.497 2.5-.1-1.2 1.498-5.1s.899-.9 2.197-1.4c1.298-.4 18.273-5.4 18.273-5.4l4.394-2.7s-.1-14.6-.1-20.3C29.257 12 32.452 3 33.45 3zm0-3c-2.595 0-3.893 2.7-5.391 7.3-.6 1.8-1.897 6.4-1.897 10.4 0 4.5.1 14.6.1 18.6l-2.597 1.6c-2.596.8-16.675 4.9-17.874 5.3-1.897.6-3.195 1.9-3.494 2.2-.3.3-.5.7-.7 1.2L.1 51.7c-.1.4-.1.8-.1 1.1L.1 54c.1 1.2.899 2.2 1.997 2.5.3.1.699.2.998.2.8 0 1.598-.3 2.097-.9l1.598-1.6h15.577c-.1 1-.1 2-.1 2.9 0 2.5.4 8.3.4 8.6.1 1.6 1.398 2.8 2.995 2.8h2.996l.5 3.9-7.19 4.4c-.899.5-1.398 1.5-1.398 2.6V83c0 .9.4 1.8 1.098 2.3.5.4 1.198.7 1.897.7.2 0 .4 0 .6-.1L33.55 84l9.785 1.9c.2 0 .4.1.6.1.698 0 1.397-.2 1.897-.7.699-.6 1.098-1.4 1.098-2.3v-3.6c0-1.1-.6-2-1.498-2.6l-7.389-4.4.5-3.9h3.095c1.597 0 2.896-1.2 2.995-2.8 0-.2.4-6.1.4-8.6 0-.9-.1-2-.1-2.9H61.11l1.698 1.7c.599.6 1.298.9 2.097.9.3 0 .699-.1.998-.2 1.098-.4 1.897-1.4 1.997-2.5l.1-1.2c0-.4 0-.8-.1-1.2l-1.598-5.1c-.1-.4-.399-.8-.698-1.2-.2-.3-1.498-1.5-3.495-2.2-1.199-.4-15.777-4.6-18.373-5.3l-2.696-1.6c0-4 .1-14.1.1-18.6 0-4.1-1.398-8.6-1.998-10.4C37.645 2.8 36.247 0 33.451 0z" fill="currentColor"/></svg>
