<svg width="196" height="185" xmlns="http://www.w3.org/2000/svg" xmlns:xlink="http://www.w3.org/1999/xlink"><defs><path id="a" d="M0 0h4.7v38.7H0z"/></defs><g fill="none" fill-rule="evenodd"><path d="M104 142h6.5-6.5z" fill="#393B41"/><path d="M109.8 141.2c-1-2-2.3-6-3-12.2-.9 4.2-1.8 8.4-2.8 12.2h5.8zM86 141v.2h5.7c-1-3.8-2-8-2.7-12.2-.7 6-2.1 10-3 12" fill="#FFF"/><path d="M86.5 141.2v-.2l-.5 1.1h6.5l-.3-1h-5.7zM104 142h6.5a21 21 0 0 1-.5-1h-5.7l-.3 1" fill="#393B41"/><path fill="#FFF" d="M109 107v1.2h8.5l-4-.7zM187 110.5L109 77v29l15.4 1.6v-2.9L141 106v3.3l11.2 1.1v4l.5.1 33.7 6.7 6.6 1.1 1.5 2.2c-.2-1.5-.4-4-1-7.3a9.1 9.1 0 0 0-2.4-5l-4-1.8zM139.8 89.1v-2L127 81v2.7zM187.4 110.4l-1.6-.8L140 88v2l47.4 20.4zM125.4 83.4v-2.7L109 73v3.4zM120.7 111.7v.8l27.9 2.1L120 109z"/><path d="M194.5 117.5c-.8-4.9-3.9-7.2-8.3-9L109 72v1l16.4 7.8v-.1h.9v.5l12.8 6V87h1v.7l45.7 21.6 1.7.8 4 1.7-.1.4-.2.5h-.1c1.2 1.2 2 2.8 2.4 5 .6 3.2.8 5.7 1 7.3l-1.5-2.2-6.6-1.2-33.7-6.6h-.5v.4h-.9v-.1l-3.3-.7-27.9-2v.9l32.4 2.4 33.8 6.6 6.1 1.2 3.3 4.7-.1-1.7s-.2-3.6-1.1-9.2" fill="#393B41"/><path fill="#393B41" d="M187 110.4L109 77l78 33.5z"/><path fill="#393B41" d="M140 89.6h-.9V89l-12.8-5.5v.3h-.9V83L109 76v1l78 33.5 4 1.7h.2l.2-.4.2-.4-4-1.8L140 89.3z"/><path fill="#FFF" d="M151.7 111.9L114 108l4 .8h1.7l.1.3 28.6 5.7 3.3.6z"/><path fill="#393B41" d="M141 109.3v.4h-1L125 108h-.5v-.5L109 106v1l4.6.4 37.7 3.9v3.6h.9v-4.4z"/><path fill="#FFF" d="M140.1 107.1l-14.6-1.1v2.3h-.5l15.1 1.6zM141 110z"/><path fill="#393B41" d="M125 108.4h.9V106l14.7 1.1v2.8h.9v-3.6L125 105v2.8zM126 84.5h.9V81h-.9V83.8zM139 90h1v-3h-1V89.3z"/><path fill="#FFF" d="M75.8 112.5v-1l.7-2.5-28.5 5.6zM54.5 109.3V106l16.5-1.3v2.9l15.5-1.6V77l-78 33.5-4.1 1.7a9.1 9.1 0 0 0-2.4 5 111 111 0 0 0-1 7.3l1.5-2.2 6.6-1.2 33.8-6.6h.4v-4l11.2-1.2zM55.6 88L9.8 109.6l-1.8.9L55.6 90V88zM82 107.5l-4 .7h8.5V107zM69.8 83.7V81L57 87v2.2zM86.4 76.4V73L70 80.7v2.7z"/><path d="M75.6 112.5l-27.9 2.1-3.3.7h-.9v-.3H43l-33.9 6.6-6.5 1.2-1.5 2.2c.1-1.6.4-4 1-7.3a9.1 9.1 0 0 1 2.4-5h-.2l-.1-.4-.2-.5 4-1.7 1.7-.8 45.8-21.6V87h1v.2l12.8-6v-.5h1L86.6 73v-1L9.5 108.4c-4.4 2-7.5 4.2-8.3 9.1-1 5.6-1.1 9.2-1.1 9.2l-.1 1.7 3.2-4.7 6.2-1.2 33.8-6.6 32.4-2.4v-1z" fill="#393B41"/><path fill="#393B41" d="M9 110.5L87 77 9 110.4zM86.6 77v-1l-16.4 7v.7h-.9v-.3L56.5 89v.7h-1v-.3L8 109.7l-4 1.7.2.4.2.5 4.2-1.8z"/><path fill="#FFF" d="M44 111.9v3.5l3.3-.7 28.6-5.6v-.3h1.9l3.9-.8z"/><path fill="#393B41" d="M44 111.3l37.6-3.9 4.6-.5v-.9l-15.4 1.6v.5h-.5l-15 1.5h-1v-.3L43 110.4v4.5h.9z"/><path fill="#FFF" d="M70.6 106L56 107.1v2.8l15.1-1.6h-.5z"/><path fill="#393B41" d="M55 106.3v3.6h.9V107l14.7-1v2.3h.9V105zM69 84.5h.9V81H69v3.2zM56 90h1v-3h-1v2.7z"/><path d="M105.2 36v-.4c0-.6 0-1.3-.3-2l-.1-.4 3.7-.6v.5l.2 2.5v.5h-3.5zm-6.5-7.8h-.6c-1.6.1-3 .7-4.1 1.8l-.3.3-4-3 .2-.4c1.8-4.2 4.8-6.9 8-7.1H98.9c3.3.2 6.3 2.9 8.1 7l.2.4-4 3.1-.3-.3a6.5 6.5 0 0 0-4-1.8zM88.1 36v-.5l.2-2.5v-.5l3.7.6-.1.5c-.2.6-.3 1.3-.3 2v.4H88zm.3-4c.2-1.4.6-2.9 1-4.2l.3-.6 4 3-.4.5c-.5.6-.9 1.3-1.1 2l-.2.3-3.7-.5.1-.5zm19-4.2c.4 1.3.8 2.8 1 4.2v.5l-3.6.5-.1-.3c-.3-.7-.7-1.4-1.2-2l-.3-.4 4-3 .1.5zm1.4 10c0-17.9-7-36-10.4-36.9C95.1 2 88 20 88 37.9v70.7h1.3l.8 3v9.2c0 1.7 0 3.3-.2 4.8a140 140 0 0 0 6.3 24.1l1.1-36.1h1l-1 32.6c.2-.3.6-.4 1-.4h.2c.4 0 .8 0 1 .4l-1-32.6h1l1.1 36.1c2.1-5.1 4.6-14.8 6.3-24l-.2-5v-9.2l.8-2.9h1.3V38z" fill="#FFF"/><path d="M95.6 150a140 140 0 0 1-6.3-24c0 1.1-.2 2.2-.3 3.2a183.8 183.8 0 0 0 3 13c1 3.8 2 7 3.1 9.2l.4-.2v-1.1zM103.8 141.3c1-3.7 2-8 2.8-12.1-.2-1-.3-2-.3-3.2-1.7 9.3-4.2 19-6.3 24v1.2l.4.2a84.8 84.8 0 0 0 3.4-10M87 73v35.6h1V37.8C88 20 95 2 98.2 1c3.4 1 10.5 19 10.5 36.8v70.8h.9V37.8a86 86 0 0 0-4-25.2c-1.8-5.4-4.5-11.4-6.9-12.4V0h-.9v.2c-2.4 1-5 7-6.8 12.4A86 86 0 0 0 87 37.8V73z" fill="#393B41"/><path d="M100 153.1l28.6 12.2c1.4.5 2 1.3 2.4 1.8l.5-.2a6 6 0 0 0-2.6-2.1L100 152v1.1M100.2 165v.4c0 3 0 5.8-.2 8.3l1.2.2v-3l23.4 4v2.6l5.1.8.4-6.4-30-6.9zM131 178.3l2 .3V172a11 11 0 0 0-.6-3.9l-1.2 7-.2 3.3zM130.2 167.7l-.3-.5-16-7.3L100 154l.1 9.7 30 6.9v-3z" fill="#FFF"/><path d="M100.2 151.5h-.2v.5l29 12.8a6 6 0 0 1 2.6 2.1l.5-.2.3.9h-.2v.3c.3 1.1.5 2.4.5 4v6.7l-2-.3v.5h-1v-.7l-5-.8v.4h-1l-22-3.5h-.5v-.5l-1.2-.1v1l33.6 5v-7.8c0-3.5-.7-6.3-4.2-7.9a4296 4296 0 0 0-28.9-12.7l-.4-.2v.5z" fill="#393B41"/><path fill="#FFF" d="M131.4 168.4l-.4 6.9 1.2-7v-.3z"/><path d="M131.5 167.9l-.4.1-.5.2-.2 2.8.5.1-.2 1-.3-.1-.4 6.4v.7h1v-.5l.1-3.4.4-6.9 1-.3.2-.1-.4-.9-.4.2-.6.2.2.5" fill="#393B41"/><path d="M128.3 166.1L114 160l16 7.4c-.2-.4-.7-.9-1.7-1.3" fill="#FFF"/><path d="M128.2 166c.9.4 1.4.9 1.7 1.3l.3.4h.5l.4-.2-.2-.5c-.3-.5-1-1.3-2.4-1.9L100 153v1l13.8 6 14.4 6M130.2 172l.2-1-.5-.1L100 164v1l29.9 6.9h.3z" fill="#393B41"/><path fill="#FFF" d="M124 175.7l-21.5-3.7v2.4h-.5l22 3.4z"/><path fill="#393B41" d="M101 170v3.5h.9v-2.4l21.6 3.7v2.2h1v-3zM99 114h-1l1 32.6c.5.6.9 2 1 5.2h.2v-.5l-.1-1.2-1.2-36.1z"/><path d="M63.5 168a11 11 0 0 0-.5 3.9v6.7l2-.3-.2-3.3-1.3-7zM66.3 167.2l-.3.5.2 2.9 29.9-6.9V154l-13.7 5.9-16.1 7.3zM66.3 178.3l5.1-.8v-2.7l23.5-4v3.1l1.2-.2c-.2-2.5-.2-5.3-.2-8.3v-.4L66 171.9l.3 6.4zM66.6 164.8a6 6 0 0 0-2.6 2.1l.6.2c.3-.5 1-1.3 2.3-1.8L95.5 153V152l-28.9 12.8" fill="#FFF"/><path d="M95.5 173.6l-1.1.1v.5h-.5l-22 3.4v.1h-1v-.4l-5 .8v.7h-1v-.5l-2 .3v-6.8c0-1.5.2-2.8.6-3.9v-.2l-.3-.1.3-.9.5.2a6 6 0 0 1 2.6-2.1 4373 4373 0 0 1 29-12.8v-.4h-.2v-.6l-.3.2-28.9 12.7c-3.5 1.7-4.2 4.4-4.2 8v7.8l33.6-5.2v-1" fill="#393B41"/><path fill="#FFF" d="M65 168.4l-1-.4v.2l1.3 7z"/><path d="M65 172v-.4l-.2-.5h.5l-.2-3h-.5l-.4-.2.2-.5-.6-.2-.4-.2-.4.9h.3l.9.4.3 7 .2 3.3v.5h1v-.7l-.4-6.4H65z" fill="#393B41"/><path d="M67.7 166.1c-.9.4-1.4.9-1.7 1.3l16-7.4-14.3 6.1" fill="#FFF"/><path d="M65.2 167l-.2.5.4.1.5.2c0-.2.2-.3.3-.5.3-.4.9-.9 1.8-1.3l14.3-6.1 13.8-5.9v-1l-28.5 12.1c-1.4.6-2 1.4-2.4 2M65 171l.1.5.1.4h.3l29.9-7v-.9l-30 6.9-.4.1z" fill="#393B41"/><path fill="#FFF" d="M93.5 172L72 175.7v2.1l22-3.4h-.5z"/><path fill="#393B41" d="M71 174v3h1v-2.2l21.5-3.7v2.4h.9V170zM98.2 114h-1l-1.1 36.1v1.2l-.1.5h.1c.2-3.1.5-4.6 1-5.2l1-32.6z"/><path d="M106.9 32l-.7-3-2.2 1.7.9 1.5 2-.3z" fill="#FFF"/><path d="M106.5 28.6l.7 2.9-2 .3c-.2-.6-.5-1-.9-1.6l2.2-1.6zm-3.2 1.8c.5.7.9 1.3 1.2 2l.1.4 3.7-.5-.1-.5c-.2-1.5-.6-2.9-1-4.2l-.3-.6-3.9 3 .3.4z" fill="#393B41"/><path d="M105.7 27.2c-1.6-3.5-4-5.7-6.7-6.2v6.5c1.4.2 2.8.8 4 1.8l2.7-2.1z" fill="#FFF"/><path fill="#393B41" d="M98 20h.1zM98.8 21c2.7.5 5.1 2.7 6.7 6.2l-2.7 2.1a7.4 7.4 0 0 0-4-1.7V21zm4 9.6l3.9-3.1-.2-.3c-1.8-4.2-4.8-6.9-8-7.2H98v8.4H98h.3c1.6.2 3 .8 4.1 1.9l.3.3z"/><path d="M107.7 35.4V34l-1.7.2.2 1.2h1.5z" fill="#FFF"/><path d="M106.8 34l.1 1.5h-1.6l-.1-1.2 1.6-.2zm1 2v-2.5l-.1-.5-3.7.5.1.5.3 2v.5h3.5V36z" fill="#393B41"/><path d="M89.7 29l-.7 3 2 .2.9-1.5-2.2-1.7z" fill="#FFF"/><path d="M89 31.5l.8-3 2.1 1.7-.8 1.6-2-.3zm2.8 1c.3-.8.7-1.5 1.2-2l.3-.4-4-3.1-.2.6c-.5 1.3-.8 2.7-1 4.2l-.1.5 3.7.5.1-.3z" fill="#393B41"/><path d="M91 27.2l2.7 2.1c1.2-1 2.5-1.6 4-1.8V21c-2.7.5-5.1 2.7-6.7 6.2" fill="#FFF"/><path d="M96.8 27.6c-1.4.2-2.8.8-3.9 1.8l-2.7-2.2c1.5-3.4 4-5.7 6.6-6.2v6.6zm1-7.6h-.5c-3.3.3-6.3 3-8.2 7.2l-.1.3 4 3.1.3-.3a6.5 6.5 0 0 1 4-1.8h.4V20z" fill="#393B41"/><path d="M89 35.4h1.6l.1-1.2-1.6-.2-.1 1.4" fill="#FFF"/><path d="M90.5 35.5H89v-1.4l1.7.2-.2 1.2zm1 .5c0-.6 0-1.3.2-2l.2-.5-3.7-.5v.5L88 36v.5h3.4V36z" fill="#393B41"/><path d="M98.4 183.7c.6-1.1 1.4-7.8 1.4-18.3 0-15.7-.3-18.4-1.3-18.4h-.2c-1 0-1.3 2.7-1.3 18.4 0 10.5.8 17.2 1.4 18.3" fill="#FFF"/><g transform="translate(96 146)"><mask id="b" fill="#fff"><use xlink:href="#a"/></mask><path d="M1 19.4C1 3.6 1.2.9 2.2.9h.1c1 0 1.4 2.7 1.4 18.5 0 10.5-.8 17.1-1.4 18.3C1.7 36.5.9 29.9.9 19.4m3.6 8.2l.2-8.2v-.5-1a378.1 378.1 0 0 0-.2-11.8v-.5C4.3 2.5 4 1.1 3.5.4 3.2.1 3 0 2.5 0h-.2c-.5 0-.8 0-1.1.4-.5.7-.8 2-1 5.2v.5A88.2 88.2 0 0 0 0 8.2L0 18v1.5a178.9 178.9 0 0 0 .5 13.3c.6 6 1.3 6 1.8 6h.1c.5 0 1.2 0 1.8-6a99.2 99.2 0 0 0 .3-5" fill="#393B41" mask="url(#b)"/></g><path d="M85.2 142.3c.7-1.3 4-8.2 4-21.1v-9l-.5-2.2H77.6l-.6 2.1v9c0 13 3.3 19.9 4 21.2h4.2z" fill="#FFF"/><path d="M77 112l.5-2h11.1l.6 2v9.1c0 13-3.3 19.8-4 21.1H81c-.7-1.3-4-8.1-4-21V112zm9.7 29.2A43.2 43.2 0 0 0 90 126l.1-4.9v-9l-.8-3.1H76.8v.4l-.8 2.5v9.2c0 14.7 4.1 21.6 4.3 21.8l.1.3h5.3l.2-.3.3-.6.5-1.1z" fill="#393B41"/><path d="M119.2 121.2v-9l-.5-2.2h-11.1l-.6 2.1v9a46 46 0 0 0 4 21.2h4.2c.7-1.3 4-8.2 4-21.1" fill="#FFF"/><path d="M111 142.2a46 46 0 0 1-4-21V112l.5-2.2h11.1l.6 2.2v9c0 13-3.3 19.8-4 21.1H111zM120 113v-.9l-.7-2.6v-.4h-12.6l-.8 2.9v9.2a72.7 72.7 0 0 0 .4 8 42.8 42.8 0 0 0 3.5 13.2l.4.6.1.3h5.3l.2-.3c.1-.2 4.2-7.1 4.2-21.8v-8.3z" fill="#393B41"/></g></svg>