<svg width="60" height="48" xmlns="http://www.w3.org/2000/svg"><path d="M59.995 23.905c-.227-2.188-8.24-3.2-12.477-3.2h-15.41L14.117 0H12.07l9.226 21.002-6.854 1.226v-1.047c1.56-.023 2.855-.194 2.855-.601V18.602c0-1.024-8.187-.553-8.187 0V20.58c0 .188.949.367 2.2.48v1.728l-1.788.32-7.475-9.355H0L4.094 24 0 34.247h2.047l7.475-9.355 1.788.32v1.728c-1.251.113-2.2.292-2.2.48V29.398c0 .553 8.187 1.024 8.187 0V27.42c0-.407-1.295-.578-2.855-.601v-1.047l6.854 1.226L12.07 48h2.047l17.99-20.705h15.41c4.238 0 12.251-1.012 12.478-3.2a.165.165 0 00.005-.04v-.11a.165.165 0 00-.005-.04" fill="#D8353B" fill-rule="evenodd"/></svg>