<svg width="288" height="88" xmlns="http://www.w3.org/2000/svg">
  <g fill="none" fill-rule="evenodd">
    <g fill="#A5A8B0" fill-rule="nonzero">
      <path d="M252 86h36v2h-36zM247.251 60.935l3.995.21 7.675 6.41 17.975.942c7.99.418 15.664 6.829 7.675 6.41l-21.97-1.151c-3.994-.21-7.237-1.047-9.728-2.513l-5.622-10.308zm16.309 17.874a2 2 0 11.21-3.995 2 2 0 01-.21 3.995zm3.994.209a2 2 0 11.21-3.995 2 2 0 01-.21 3.995zm13.981.733a2 2 0 11.21-3.995 2 2 0 01-.21 3.995z"/>
    </g>
    <path d="M.515 2.429c79.779 8.945 159.648 28.077 237.97 58.142" stroke="#D8353B" stroke-width="4"/>
  </g>
</svg>
