<svg width="71" height="58" xmlns="http://www.w3.org/2000/svg"><g fill="none" fill-rule="evenodd"><path d="M69.5 6.109v37.899a4.5 4.5 0 01-4.51 4.492H11.453l-7.83 6.602C2.06 56.418 1.5 56.158 1.5 54.12V6.117c0-2.486 2.012-4.5 4.492-4.5h59.016A4.494 4.494 0 0169.5 6.109z" stroke="#D8353B" stroke-width="3"/><path d="M33.275 30.793c.024-1.395.182-2.496.475-3.305.293-.808.89-1.705 1.793-2.69l2.303-2.372c.984-1.114 1.476-2.309 1.476-3.586 0-1.23-.322-2.194-.967-2.892-.644-.697-1.582-1.046-2.812-1.046-1.195 0-2.156.317-2.883.95-.726.632-1.09 1.482-1.09 2.548h-3.252c.024-1.898.7-3.43 2.03-4.596 1.33-1.166 3.062-1.75 5.195-1.75 2.215 0 3.94.595 5.177 1.785 1.236 1.19 1.854 2.821 1.854 4.895 0 2.051-.949 4.073-2.847 6.065l-1.916 1.898c-.856.95-1.284 2.315-1.284 4.096h-3.252zm-.14 5.572c0-.527.16-.97.483-1.327.322-.357.8-.536 1.433-.536s1.113.179 1.441.536c.328.358.492.8.492 1.327 0 .528-.164.964-.492 1.31-.328.346-.808.518-1.441.518s-1.11-.172-1.433-.518c-.322-.346-.483-.782-.483-1.31z" fill="#D8353B" fill-rule="nonzero"/></g></svg>