<svg width="150" height="145" xmlns="http://www.w3.org/2000/svg"><g fill="none" fill-rule="evenodd"><path fill="#A5A8B0" d="M0 0h150v144.369H0z"/><path d="M53.446 73.543c.83 0 1.542-.076 2.135-.227.593-.152 1.09-.35 1.493-.594.402-.243.718-.517.949-.82.23-.303.408-.603.534-.9a3.19 3.19 0 00.237-.84c.033-.264.05-.474.05-.633 0-.58-.096-1.074-.287-1.483a3.004 3.004 0 00-.791-1.038 4.679 4.679 0 00-1.167-.711 9.891 9.891 0 00-1.413-.485l-3.44-.85a5.186 5.186 0 01-.821-.257 2.455 2.455 0 01-.682-.415 1.818 1.818 0 01-.465-.623 2.043 2.043 0 01-.168-.86c0-.527.099-.969.297-1.325.197-.356.458-.642.78-.86a3.342 3.342 0 011.128-.474 5.917 5.917 0 011.334-.149c.501 0 .979.07 1.434.208a3.72 3.72 0 011.206.613c.349.27.632.606.85 1.008.217.402.34.874.366 1.414h1.344c0-.725-.142-1.361-.425-1.908a4.116 4.116 0 00-1.137-1.374 4.916 4.916 0 00-1.66-.83 7.097 7.097 0 00-1.998-.277c-.988 0-1.799.141-2.432.425-.632.283-1.13.63-1.492 1.038-.363.408-.61.843-.742 1.305-.132.461-.197.863-.197 1.206 0 .553.088 1.021.266 1.404.178.382.412.705.702.968.29.264.63.475 1.019.633.388.158.787.29 1.196.395l3.143.772c.33.079.666.18 1.009.306.343.125.656.287.939.484.283.198.514.442.692.732.178.29.267.633.267 1.028 0 .514-.125.952-.376 1.315-.25.362-.563.659-.939.89a4.2 4.2 0 01-1.216.504 5.144 5.144 0 01-1.206.158 8.42 8.42 0 01-1.819-.188 4.079 4.079 0 01-1.473-.623 2.983 2.983 0 01-.979-1.166c-.237-.488-.349-1.094-.336-1.82h-1.344c-.04.87.076 1.616.346 2.235.27.62.656 1.127 1.156 1.522.501.396 1.108.69 1.82.88a8.897 8.897 0 002.313.287zm11.388 0c1.292 0 2.29-.316 2.996-.949.705-.633 1.19-1.529 1.453-2.689h-1.246c-.198.79-.553 1.424-1.067 1.898-.515.475-1.226.712-2.136.712-.593 0-1.1-.125-1.522-.376a3.452 3.452 0 01-1.048-.949 3.83 3.83 0 01-.603-1.295 5.528 5.528 0 01-.188-1.394h7.85a8.07 8.07 0 00-.198-2.105 5.367 5.367 0 00-.781-1.84 4.173 4.173 0 00-1.414-1.294c-.58-.33-1.279-.495-2.096-.495-.804 0-1.5.155-2.086.465a4.12 4.12 0 00-1.433 1.226 5.31 5.31 0 00-.82 1.73 7.82 7.82 0 000 4.043c.177.653.45 1.226.82 1.72.369.495.847.884 1.433 1.167.587.283 1.282.425 2.086.425zm3.243-6.09h-6.604c.053-.461.161-.912.326-1.354.165-.442.386-.83.663-1.167a3.184 3.184 0 011.008-.81c.395-.204.85-.307 1.364-.307.501 0 .95.103 1.345.307.395.204.731.474 1.008.81.277.337.491.722.643 1.157a4.5 4.5 0 01.247 1.364zm4.191 5.813V59.15h-1.245v14.117h1.245zm6.485.277c1.292 0 2.29-.316 2.996-.949.705-.633 1.19-1.529 1.453-2.689h-1.246c-.197.79-.553 1.424-1.067 1.898-.514.475-1.226.712-2.136.712-.593 0-1.1-.125-1.522-.376a3.452 3.452 0 01-1.048-.949 3.83 3.83 0 01-.603-1.295 5.528 5.528 0 01-.188-1.394h7.85a8.07 8.07 0 00-.198-2.105 5.367 5.367 0 00-.781-1.84 4.173 4.173 0 00-1.414-1.294c-.58-.33-1.278-.495-2.096-.495-.804 0-1.499.155-2.085.465a4.12 4.12 0 00-1.434 1.226 5.31 5.31 0 00-.82 1.73 7.82 7.82 0 000 4.043c.178.653.451 1.226.82 1.72.37.495.847.884 1.434 1.167.586.283 1.281.425 2.085.425zm3.243-6.09h-6.604c.053-.461.162-.912.326-1.354.165-.442.386-.83.663-1.167a3.184 3.184 0 011.008-.81c.396-.204.85-.307 1.364-.307.501 0 .95.103 1.345.307.395.204.731.474 1.008.81.277.337.491.722.643 1.157a4.5 4.5 0 01.247 1.364zm7.236 6.09c1.16 0 2.11-.346 2.848-1.038.738-.692 1.192-1.658 1.364-2.897h-1.246c-.04.422-.145.811-.316 1.167a3.222 3.222 0 01-.653.92 2.921 2.921 0 01-.91.602 2.762 2.762 0 01-1.087.218c-.593 0-1.113-.125-1.562-.376a3.43 3.43 0 01-1.117-.988 4.485 4.485 0 01-.672-1.394 5.666 5.666 0 010-3.184c.152-.52.376-.985.672-1.393a3.43 3.43 0 011.117-.989c.449-.25.97-.376 1.562-.376.83 0 1.477.218 1.938.653.461.435.778 1.035.95 1.799h1.245c-.145-1.173-.597-2.05-1.355-2.63-.758-.58-1.684-.87-2.778-.87-.777 0-1.466.145-2.066.435a4.5 4.5 0 00-1.512 1.167 5.049 5.049 0 00-.93 1.71 6.742 6.742 0 00-.316 2.086c0 .738.106 1.434.316 2.086.211.652.521 1.223.93 1.71.408.488.913.874 1.512 1.157.6.283 1.289.425 2.066.425zm8.898-.178c.184 0 .369-.007.553-.02.185-.013.37-.02.554-.02v-1.047a9.66 9.66 0 01-1.068.059c-.448-.026-.728-.155-.84-.386-.112-.23-.168-.55-.168-.959v-6.88h2.076v-1.048H97.16v-3.065h-1.246v3.065h-1.78v1.048h1.78v6.98c-.013.87.145 1.466.475 1.789.33.323.91.484 1.74.484zM47.772 86.084l1.005-2.595h3.799l1.017 2.595h.853l-3.273-8.347h-.888l-3.355 8.347h.842zm4.535-3.273h-3.285l1.672-4.279 1.613 4.279zm6.441 3.436a3.67 3.67 0 001.339-.233 3.08 3.08 0 001.046-.667c.296-.288.538-.639.725-1.052.187-.413.308-.876.362-1.39h-.795a3.533 3.533 0 01-.269 1.045c-.14.324-.323.606-.549.848a2.492 2.492 0 01-.807.573c-.311.14-.662.21-1.052.21-.553 0-1.028-.105-1.426-.315a2.826 2.826 0 01-.976-.836 3.594 3.594 0 01-.561-1.18 5.037 5.037 0 010-2.684c.12-.436.308-.828.561-1.175.253-.346.579-.625.976-.835.398-.21.873-.316 1.426-.316.304 0 .595.045.871.134.277.09.53.22.76.392.23.171.425.384.584.637.16.253.275.54.345.86h.795a2.851 2.851 0 00-.391-1.158 3.031 3.031 0 00-.772-.848 3.368 3.368 0 00-1.029-.52 3.914 3.914 0 00-1.163-.175c-.654 0-1.23.119-1.724.356a3.548 3.548 0 00-1.233.96 4.114 4.114 0 00-.737 1.384 5.479 5.479 0 00-.245 1.649c0 .576.082 1.126.245 1.648.164.522.41.982.737 1.38a3.58 3.58 0 001.233.952c.495.238 1.07.356 1.724.356zm8.23 0a3.67 3.67 0 001.338-.233 3.08 3.08 0 001.047-.667c.296-.288.537-.639.724-1.052.187-.413.308-.876.363-1.39h-.795a3.533 3.533 0 01-.269 1.045c-.14.324-.323.606-.55.848a2.492 2.492 0 01-.806.573c-.312.14-.662.21-1.052.21-.553 0-1.029-.105-1.426-.315a2.826 2.826 0 01-.976-.836 3.594 3.594 0 01-.561-1.18 5.037 5.037 0 010-2.684c.12-.436.307-.828.56-1.175.254-.346.58-.625.977-.835.397-.21.873-.316 1.426-.316.304 0 .594.045.87.134.277.09.53.22.76.392.23.171.425.384.585.637.16.253.275.54.345.86h.795a2.851 2.851 0 00-.392-1.158 3.031 3.031 0 00-.771-.848 3.368 3.368 0 00-1.029-.52 3.914 3.914 0 00-1.163-.175c-.655 0-1.23.119-1.724.356a3.548 3.548 0 00-1.234.96 4.114 4.114 0 00-.736 1.384 5.479 5.479 0 00-.246 1.649c0 .576.082 1.126.246 1.648.164.522.41.982.736 1.38a3.58 3.58 0 001.234.952c.495.238 1.07.356 1.724.356zm10.51-.163v-.678H72.46v-3.297h4.653v-.678H72.46v-3.016h4.969v-.678h-5.763v8.347h5.821zm4.02.163c.491 0 .912-.044 1.263-.134.35-.09.645-.206.882-.35.238-.145.425-.307.562-.486.136-.179.241-.356.315-.532.074-.175.121-.34.14-.496.02-.156.03-.281.03-.375 0-.342-.057-.635-.17-.876a1.776 1.776 0 00-.467-.614 2.766 2.766 0 00-.69-.42 5.848 5.848 0 00-.836-.287l-2.034-.503a3.066 3.066 0 01-.485-.152 1.452 1.452 0 01-.403-.245 1.075 1.075 0 01-.275-.369 1.208 1.208 0 01-.1-.508c0-.312.059-.573.176-.783.117-.21.27-.38.462-.509.19-.128.413-.222.666-.28.253-.059.516-.088.789-.088.296 0 .579.04.848.123a2.2 2.2 0 01.713.362c.206.16.374.359.502.596.129.238.2.517.217.836h.794c0-.429-.083-.805-.25-1.128a2.433 2.433 0 00-.673-.812 2.906 2.906 0 00-.982-.491 4.196 4.196 0 00-1.18-.164c-.585 0-1.064.084-1.439.251-.374.168-.668.372-.882.614-.214.242-.36.499-.438.772-.078.272-.117.51-.117.713 0 .327.052.604.157.83.106.226.244.417.415.572.172.156.373.28.602.374.23.094.466.172.708.234l1.858.456c.195.047.394.107.597.181.202.074.387.17.555.287.167.117.304.26.409.432.105.172.158.374.158.608 0 .304-.074.563-.222.778-.148.214-.333.39-.556.526a2.483 2.483 0 01-.719.298 3.042 3.042 0 01-.713.093c-.381 0-.74-.037-1.075-.11a2.412 2.412 0 01-.871-.37 1.763 1.763 0 01-.579-.689c-.14-.288-.206-.647-.198-1.075h-.795c-.024.514.045.954.204 1.32.16.367.388.667.684.9.296.235.655.408 1.076.521.42.113.876.17 1.367.17zm7.365 0c.49 0 .912-.044 1.262-.134.351-.09.645-.206.883-.35.238-.145.425-.307.561-.486.137-.179.242-.356.316-.532.074-.175.12-.34.14-.496.02-.156.03-.281.03-.375 0-.342-.057-.635-.17-.876a1.776 1.776 0 00-.468-.614 2.766 2.766 0 00-.69-.42 5.848 5.848 0 00-.835-.287l-2.034-.503a3.066 3.066 0 01-.485-.152 1.452 1.452 0 01-.404-.245 1.075 1.075 0 01-.275-.369 1.208 1.208 0 01-.099-.508c0-.312.059-.573.175-.783.117-.21.271-.38.462-.509.191-.128.413-.222.667-.28.253-.059.516-.088.789-.088.296 0 .578.04.847.123a2.2 2.2 0 01.713.362c.207.16.374.359.503.596.128.238.2.517.216.836h.795c0-.429-.084-.805-.251-1.128a2.433 2.433 0 00-.672-.812 2.906 2.906 0 00-.982-.491 4.196 4.196 0 00-1.181-.164c-.585 0-1.064.084-1.438.251-.374.168-.668.372-.883.614-.214.242-.36.499-.438.772-.078.272-.117.51-.117.713 0 .327.053.604.158.83.105.226.244.417.415.572.171.156.372.28.602.374.23.094.466.172.707.234l1.859.456c.195.047.394.107.596.181.203.074.388.17.555.287.168.117.304.26.41.432.105.172.157.374.157.608 0 .304-.074.563-.222.778-.148.214-.333.39-.555.526a2.483 2.483 0 01-.719.298 3.042 3.042 0 01-.713.093c-.382 0-.74-.037-1.075-.11a2.412 2.412 0 01-.871-.37 1.763 1.763 0 01-.579-.689c-.14-.288-.207-.647-.199-1.075h-.795c-.023.514.045.954.205 1.32.16.367.388.667.684.9.296.235.654.408 1.075.521.421.113.877.17 1.368.17zM96.59 81.085v-2.378h.014l.908 2.378h.414l.908-2.378h.015v2.378h.553v-3.042h-.849l-.827 2.156-.834-2.156h-.856v3.042h.553zm-2.105 0v-2.562h.93v-.48h-2.45v.48h.93v2.562h.59z" fill="#FFF" fill-rule="nonzero"/></g></svg>