<svg width="152" height="146" xmlns="http://www.w3.org/2000/svg" xmlns:xlink="http://www.w3.org/1999/xlink"><defs><path id="a" d="M0 .392h150v144.369H0z"/></defs><g fill="none" fill-rule="evenodd"><use stroke="#D8353B" stroke-width=".765" fill="#FFF" xlink:href="#a" transform="translate(1)"/><path d="M13.925 79.802v-6.064h4.934c.634 0 1.209-.089 1.724-.267a3.631 3.631 0 001.327-.793c.37-.35.654-.776.853-1.278.198-.502.297-1.07.297-1.704 0-.634-.1-1.202-.297-1.704a3.504 3.504 0 00-.853-1.278 3.631 3.631 0 00-1.327-.793 5.246 5.246 0 00-1.724-.268h-6.282v14.149h1.348zm4.637-7.213h-4.637v-5.786h4.637c.937 0 1.697.238 2.278.713.582.476.872 1.202.872 2.18 0 .977-.29 1.704-.872 2.18-.58.475-1.34.713-2.278.713zm8.835 7.49c.502 0 .934-.046 1.298-.138.363-.093.687-.225.97-.397.285-.171.542-.386.773-.644.232-.257.46-.551.684-.881h.04c0 .264.016.505.05.723.032.218.102.406.207.565.106.158.255.28.446.366.192.086.446.129.763.129a3.762 3.762 0 00.813-.08v-1.05a.965.965 0 01-.397.08c-.489 0-.733-.251-.733-.753v-5.43c0-.687-.112-1.245-.337-1.674a2.644 2.644 0 00-.872-1c-.356-.239-.76-.4-1.208-.486a7.161 7.161 0 00-1.348-.13c-.594 0-1.136.067-1.625.199a3.649 3.649 0 00-1.278.614 2.93 2.93 0 00-.862 1.07c-.211.436-.337.951-.377 1.546h1.249c.026-.832.29-1.437.793-1.813.502-.377 1.149-.565 1.941-.565.37 0 .717.03 1.04.09.324.059.609.168.853.326.244.159.436.373.575.644.138.271.208.618.208 1.04 0 .278-.037.503-.11.674a.964.964 0 01-.306.406c-.133.1-.298.169-.496.209-.198.04-.43.072-.693.099-.674.079-1.338.161-1.992.247a7.178 7.178 0 00-1.764.446 2.993 2.993 0 00-1.258.922c-.317.403-.475.96-.475 1.674 0 .515.089.961.267 1.338.178.376.423.687.733.931s.674.423 1.09.535c.416.112.862.168 1.338.168zm.099-1.03c-.29 0-.575-.046-.852-.139a2.206 2.206 0 01-.734-.406 2.043 2.043 0 01-.505-.634 1.818 1.818 0 01-.188-.842c0-.502.149-.889.446-1.16.297-.27.677-.478 1.14-.624a8.966 8.966 0 011.535-.327 37.134 37.134 0 001.635-.247c.172-.027.37-.073.594-.139.225-.066.377-.172.456-.317h.04v1.625c0 .502-.096.951-.288 1.347-.191.397-.449.734-.773 1.011a3.364 3.364 0 01-1.139.634 4.295 4.295 0 01-1.367.218zm7.824 4.518c.397 0 .724-.036.981-.109a1.74 1.74 0 00.674-.357c.192-.165.367-.39.525-.673.159-.284.33-.644.515-1.08l4.44-11.771h-1.25l-3.15 8.719-3.369-8.719H33.36l4.082 10.185-.436 1.15c-.106.238-.205.456-.298.654a1.874 1.874 0 01-.336.505 1.449 1.449 0 01-.466.327c-.178.08-.406.119-.684.119a3.01 3.01 0 01-.426-.03c-.139-.02-.28-.043-.426-.07v1.051c.106.04.228.063.367.07.138.006.333.016.584.03zm13.017-8.64v-1.149h-4.954v1.15h4.954zm2.196 4.875l1.705-4.4h6.44l1.724 4.4h1.446L56.3 65.653h-1.506l-5.687 14.149h1.426zm7.69-5.548h-5.57L55.488 67l2.735 7.253zm8.002 5.825a6.83 6.83 0 001.447-.158c.488-.106.928-.28 1.317-.525.39-.245.71-.562.961-.951.251-.39.377-.862.377-1.417 0-.45-.086-.84-.258-1.17a2.662 2.662 0 00-.664-.832 3.42 3.42 0 00-.93-.545 4.769 4.769 0 00-1.061-.287l-1.665-.376a8.616 8.616 0 01-.693-.208 3.348 3.348 0 01-.694-.327 1.85 1.85 0 01-.525-.486 1.167 1.167 0 01-.208-.703c0-.33.073-.608.218-.833.145-.224.337-.406.575-.545.237-.138.498-.237.782-.297.284-.06.565-.089.843-.089.356 0 .693.043 1.01.129.317.086.598.221.842.406.245.185.44.42.585.704.145.284.225.617.238 1h1.248c-.026-.555-.139-1.037-.337-1.446a3.019 3.019 0 00-.802-1.03 3.303 3.303 0 00-1.17-.615 5.002 5.002 0 00-1.436-.198c-.45 0-.902.053-1.357.158-.456.106-.869.271-1.239.496-.37.224-.67.522-.902.891-.23.37-.346.813-.346 1.328 0 .436.072.803.218 1.1.145.297.346.548.604.753.258.205.558.376.902.515.343.139.72.261 1.13.367l1.604.356c.278.066.552.146.823.238.27.093.512.208.723.347.211.139.38.31.505.515.126.205.188.46.188.763 0 .357-.089.657-.267.902a2.16 2.16 0 01-.684.604c-.277.159-.578.27-.901.337-.324.066-.638.099-.942.099-.832 0-1.529-.215-2.09-.644-.562-.43-.869-1.067-.922-1.912h-1.248c.106 1.255.532 2.166 1.278 2.734.747.568 1.72.852 2.923.852zm10.56-5.152v-1.149H71.83v1.15h4.954zm7.606 4.875v-5.826l5.588-8.323h-1.605l-4.637 7.174-4.657-7.174h-1.585l5.548 8.323v5.826h1.348zm8.775.277c.78 0 1.47-.142 2.071-.426a4.403 4.403 0 001.516-1.159c.41-.489.72-1.06.931-1.714.212-.654.317-1.35.317-2.09 0-.74-.105-1.437-.317-2.091a5.06 5.06 0 00-.93-1.714 4.51 4.51 0 00-1.517-1.17c-.6-.29-1.291-.435-2.07-.435-.78 0-1.47.145-2.071.436a4.51 4.51 0 00-1.516 1.169 5.06 5.06 0 00-.932 1.714 6.757 6.757 0 00-.317 2.09c0 .74.106 1.437.317 2.091a5.06 5.06 0 00.932 1.714c.41.489.915.875 1.516 1.16.6.283 1.291.425 2.07.425zm0-1.03c-.594 0-1.116-.125-1.565-.376a3.437 3.437 0 01-1.12-.991 4.495 4.495 0 01-.673-1.397 5.678 5.678 0 010-3.19c.152-.522.376-.988.673-1.398.298-.41.67-.74 1.12-.99.45-.251.97-.377 1.565-.377s1.117.126 1.566.377c.449.25.822.58 1.12.99.297.41.521.876.673 1.397a5.678 5.678 0 010 3.19 4.495 4.495 0 01-.674 1.398c-.297.41-.67.74-1.12.99-.448.252-.97.377-1.565.377zm9.965 1.03c.766 0 1.463-.181 2.09-.544a3.543 3.543 0 001.437-1.576h.04v1.843h1.15V69.577h-1.25v5.37c0 .515-.059 1.02-.177 1.516a4.15 4.15 0 01-.555 1.318c-.251.383-.568.69-.951.921-.384.231-.846.347-1.388.347-.99 0-1.687-.238-2.09-.713-.403-.476-.618-1.176-.644-2.1v-6.659h-1.249v6.638c0 .608.066 1.15.199 1.625.132.476.34.879.624 1.209.284.33.654.585 1.11.763.455.178 1.007.267 1.654.267zm11.728-5.152v-1.149h-4.954v1.15h4.954zm8.32 5.152c.516 0 1.014-.052 1.496-.158a5.08 5.08 0 001.358-.505c.423-.232.809-.529 1.16-.892.35-.363.643-.796.88-1.298h.04l.179 2.576h.97v-7.193h-6.003v1.15h4.815a6.197 6.197 0 01-.297 2.08 4.523 4.523 0 01-.952 1.645 4.36 4.36 0 01-1.555 1.08c-.614.257-1.311.386-2.09.386-.939 0-1.744-.178-2.418-.535a4.79 4.79 0 01-1.655-1.417 6.092 6.092 0 01-.951-2.001 8.539 8.539 0 010-4.548c.205-.74.522-1.404.951-1.992a4.79 4.79 0 011.655-1.416c.674-.357 1.48-.535 2.417-.535.674 0 1.282.109 1.823.326a4.801 4.801 0 011.397.843c.39.343.7.723.932 1.14.23.415.366.828.406 1.238h1.347c-.132-.78-.376-1.46-.733-2.041a5.375 5.375 0 00-1.308-1.467 5.415 5.415 0 00-1.763-.892 7.273 7.273 0 00-2.1-.297c-1.11 0-2.085.202-2.924.605a6.014 6.014 0 00-2.09 1.625 6.974 6.974 0 00-1.249 2.348 9.288 9.288 0 00-.416 2.794c0 .977.139 1.909.416 2.794a6.866 6.866 0 001.249 2.338 6.067 6.067 0 002.09 1.615c.84.403 1.814.604 2.923.604zm12.462 0c.78 0 1.47-.142 2.07-.426a4.403 4.403 0 001.516-1.159c.41-.489.72-1.06.932-1.714.211-.654.317-1.35.317-2.09 0-.74-.106-1.437-.317-2.091a5.06 5.06 0 00-.932-1.714 4.51 4.51 0 00-1.515-1.17c-.602-.29-1.292-.435-2.071-.435-.78 0-1.47.145-2.071.436a4.51 4.51 0 00-1.516 1.169 5.06 5.06 0 00-.931 1.714 6.757 6.757 0 00-.317 2.09c0 .74.105 1.437.317 2.091a5.06 5.06 0 00.931 1.714c.41.489.915.875 1.516 1.16.601.283 1.291.425 2.07.425zm0-1.03c-.595 0-1.116-.125-1.566-.376a3.437 3.437 0 01-1.12-.991 4.495 4.495 0 01-.673-1.397 5.678 5.678 0 010-3.19c.152-.522.376-.988.674-1.398.297-.41.67-.74 1.12-.99.449-.251.97-.377 1.565-.377.594 0 1.116.126 1.565.377.45.25.823.58 1.12.99.297.41.522.876.674 1.397a5.678 5.678 0 010 3.19 4.495 4.495 0 01-.674 1.398c-.297.41-.67.74-1.12.99-.449.252-.97.377-1.565.377z" fill="#393B41" fill-rule="nonzero"/></g></svg>