<svg width="150" height="145" xmlns="http://www.w3.org/2000/svg"><g fill="none" fill-rule="evenodd"><path fill="#D8353B" d="M0 0h150v144.369H0z"/><path d="M43.692 72.518c.827 0 1.536-.076 2.126-.226.59-.151 1.086-.348 1.487-.591.4-.243.715-.515.945-.817.23-.302.407-.6.531-.896.125-.295.204-.574.237-.837.032-.262.049-.472.049-.63 0-.577-.095-1.07-.286-1.476a2.992 2.992 0 00-.787-1.034 4.659 4.659 0 00-1.162-.709 9.85 9.85 0 00-1.408-.482L42 63.973a5.164 5.164 0 01-.817-.256 2.445 2.445 0 01-.68-.413 1.81 1.81 0 01-.462-.62 2.035 2.035 0 01-.168-.857c0-.525.099-.964.296-1.319.197-.354.456-.64.777-.856a3.328 3.328 0 011.123-.473c.426-.098.87-.147 1.329-.147.498 0 .974.068 1.427.206.453.138.853.342 1.2.61.349.27.631.604.848 1.005.216.4.338.87.364 1.407h1.339c0-.721-.142-1.355-.424-1.9-.282-.544-.66-1-1.132-1.368a4.895 4.895 0 00-1.654-.827 7.067 7.067 0 00-1.988-.275c-.985 0-1.792.14-2.422.423-.63.282-1.125.627-1.486 1.034-.361.406-.607.84-.739 1.299-.13.46-.196.86-.196 1.201 0 .551.088 1.017.265 1.398.178.38.41.702.7.965a3.39 3.39 0 001.013.63c.387.157.785.288 1.191.393l3.13.768c.329.079.664.18 1.005.305.341.125.653.286.935.483.282.197.512.44.69.728.176.289.265.63.265 1.024 0 .512-.125.948-.374 1.31a3.09 3.09 0 01-.935.885c-.374.23-.778.397-1.211.502a5.123 5.123 0 01-1.201.158 8.384 8.384 0 01-1.811-.187 4.062 4.062 0 01-1.467-.62 2.97 2.97 0 01-.975-1.162c-.236-.486-.348-1.09-.334-1.811h-1.34c-.039.866.076 1.607.345 2.224a3.86 3.86 0 001.152 1.516c.499.394 1.103.686 1.811.876a8.86 8.86 0 002.304.286zm8.525-12.345v-1.988h-1.24v1.988h1.24zm0 12.07v-10.16h-1.24v10.16h1.24zm6.458 4.035c.826 0 1.525-.111 2.096-.334.571-.223 1.034-.545 1.388-.965.355-.42.614-.932.778-1.536.164-.603.246-1.28.246-2.028v-9.332h-1.24v1.752h-.04a3.01 3.01 0 00-.502-.787 3.933 3.933 0 00-.738-.66 3.382 3.382 0 00-.915-.443 3.565 3.565 0 00-1.073-.157c-.735 0-1.388.134-1.96.404a4.13 4.13 0 00-1.437 1.102 4.91 4.91 0 00-.886 1.634 6.338 6.338 0 00-.305 1.979c0 .722.086 1.401.256 2.038.17.636.443 1.19.817 1.663.374.473.85.844 1.428 1.113.577.269 1.273.403 2.087.403.748 0 1.4-.19 1.959-.57.557-.381.98-.887 1.27-1.517h.039v1.378c0 1.234-.256 2.18-.768 2.836-.512.656-1.345.984-2.5.984a4.66 4.66 0 01-1.005-.108 3.063 3.063 0 01-.895-.345 2.3 2.3 0 01-.69-.62 2.202 2.202 0 01-.383-.955h-1.24c.039.538.186 1 .442 1.388.256.387.578.706.965.955.387.25.824.433 1.31.551.485.118.984.177 1.496.177zm0-5.197c-.578 0-1.077-.115-1.497-.345a3.162 3.162 0 01-1.043-.905 3.839 3.839 0 01-.61-1.29 5.71 5.71 0 01-.197-1.496c0-.525.062-1.04.187-1.546.124-.505.324-.955.6-1.348a3.233 3.233 0 011.044-.955c.42-.243.925-.365 1.516-.365.59 0 1.092.125 1.506.374.413.25.751.578 1.014.985.262.407.452.86.57 1.358.119.5.178.998.178 1.497 0 .512-.07 1.01-.207 1.496a3.986 3.986 0 01-.62 1.29 3.229 3.229 0 01-1.024.905c-.407.23-.88.345-1.417.345zm8.091 1.161v-5.926c.014-.499.096-.961.246-1.388.151-.426.361-.794.63-1.102.27-.309.598-.552.985-.729.387-.177.83-.266 1.329-.266s.915.08 1.25.237c.335.157.6.374.797.65.197.275.335.6.414.974.079.374.118.778.118 1.21v6.34h1.24v-6.536c0-.604-.059-1.149-.177-1.634a2.898 2.898 0 00-.61-1.23c-.289-.335-.673-.595-1.152-.778-.479-.184-1.073-.276-1.782-.276-.722 0-1.384.187-1.988.561-.604.374-1.024.87-1.26 1.486h-.04v-1.752h-1.24v10.16h1.24zm12.207.276a5.28 5.28 0 001.29-.138 3.54 3.54 0 00.964-.394c.283-.17.538-.384.768-.64.23-.255.456-.547.68-.876h.039c0 .263.016.502.049.719.033.217.102.404.207.561.105.158.252.279.443.364.19.086.443.128.758.128a3.738 3.738 0 00.807-.078V71.12a.959.959 0 01-.394.079c-.485 0-.728-.25-.728-.748v-5.395c0-.682-.112-1.237-.335-1.663a2.627 2.627 0 00-.866-.995 3.235 3.235 0 00-1.201-.482 7.115 7.115 0 00-1.34-.128c-.59 0-1.128.066-1.613.197a3.625 3.625 0 00-1.27.61c-.361.276-.647.63-.857 1.063-.21.433-.335.945-.374 1.536h1.24c.027-.827.29-1.427.788-1.801.499-.375 1.142-.562 1.93-.562.367 0 .711.03 1.033.089.322.06.604.167.847.325.242.157.433.37.57.64.138.269.207.613.207 1.033 0 .276-.036.5-.108.67a.957.957 0 01-.305.403 1.201 1.201 0 01-.492.207c-.197.04-.427.072-.69.099-.669.078-1.328.16-1.978.246a7.131 7.131 0 00-1.752.443c-.519.21-.935.515-1.25.915-.316.4-.473.955-.473 1.664 0 .512.089.955.266 1.329.177.374.42.682.728.925.309.243.67.42 1.083.532.414.111.857.167 1.329.167zm.098-1.024a2.66 2.66 0 01-.846-.138 2.192 2.192 0 01-.729-.403 2.03 2.03 0 01-.502-.63 1.806 1.806 0 01-.187-.837c0-.499.148-.883.443-1.152.296-.269.673-.476 1.132-.62.46-.144.968-.253 1.526-.325.558-.072 1.1-.154 1.624-.246.171-.026.368-.072.591-.138.223-.065.374-.17.453-.315h.04v1.615c0 .498-.096.945-.286 1.338-.19.394-.446.729-.768 1.005a3.342 3.342 0 01-1.132.63 4.267 4.267 0 01-1.359.216zm10.199.847c.184 0 .367-.007.551-.02.184-.013.368-.02.551-.02v-1.043a9.62 9.62 0 01-1.063.059c-.446-.026-.725-.154-.836-.384-.112-.23-.168-.548-.168-.955v-6.851h2.067v-1.044h-2.067v-3.051h-1.24v3.051h-1.772v1.044h1.772v6.95c-.013.866.144 1.46.472 1.781.328.322.906.483 1.733.483zm6.438.177a4.07 4.07 0 002.077-.541 3.52 3.52 0 001.427-1.566h.04v1.831h1.142V62.083h-1.24v5.336c0 .512-.06 1.014-.178 1.506a4.123 4.123 0 01-.551 1.31c-.25.38-.564.685-.945.915-.38.23-.84.344-1.378.344-.985 0-1.677-.236-2.077-.709-.4-.472-.614-1.168-.64-2.087v-6.615h-1.24v6.596c0 .604.065 1.142.196 1.614.132.473.338.873.62 1.201.283.328.65.581 1.103.758.453.177 1 .266 1.644.266zm8.269-.276v-5.414c0-.538.092-1.034.276-1.486a3.42 3.42 0 01.777-1.172c.335-.328.732-.58 1.191-.758.46-.177.972-.252 1.536-.226v-1.24c-.919-.04-1.71.163-2.372.61-.663.446-1.152 1.083-1.467 1.91h-.04v-2.383h-1.141v10.16h1.24zm9.037.276c1.286 0 2.28-.315 2.983-.945.702-.63 1.184-1.523 1.447-2.678h-1.24c-.198.788-.552 1.418-1.064 1.89-.512.473-1.22.71-2.126.71-.59 0-1.096-.126-1.516-.375a3.438 3.438 0 01-1.044-.945 3.814 3.814 0 01-.6-1.29 5.504 5.504 0 01-.187-1.388h7.816a8.035 8.035 0 00-.197-2.096 5.345 5.345 0 00-.778-1.831 4.155 4.155 0 00-1.407-1.29c-.578-.328-1.273-.492-2.087-.492-.8 0-1.493.154-2.077.463a4.103 4.103 0 00-1.428 1.22 5.287 5.287 0 00-.817 1.723 7.787 7.787 0 000 4.026c.177.65.45 1.22.817 1.713.368.492.844.88 1.428 1.162.584.282 1.276.423 2.077.423zm3.229-6.064h-6.576c.052-.46.16-.909.325-1.349.164-.44.384-.827.66-1.161.275-.335.61-.604 1.003-.807.394-.204.847-.306 1.359-.306.499 0 .945.102 1.339.306.393.203.728.472 1.004.807.275.334.489.718.64 1.152.15.433.233.885.246 1.358zM38.451 86.084l1.005-2.595h3.8l1.017 2.595h.853l-3.273-8.347h-.889l-3.354 8.347h.841zm4.536-3.273h-3.285l1.672-4.279 1.613 4.279zm6.44 3.436a3.67 3.67 0 001.34-.233 3.08 3.08 0 001.046-.667c.296-.288.537-.639.724-1.052.187-.413.308-.876.363-1.39h-.795a3.533 3.533 0 01-.269 1.045c-.14.324-.323.606-.55.848a2.492 2.492 0 01-.806.573c-.312.14-.662.21-1.052.21-.553 0-1.029-.105-1.426-.315a2.826 2.826 0 01-.976-.836 3.594 3.594 0 01-.561-1.18 5.037 5.037 0 010-2.684c.12-.436.307-.828.56-1.175.254-.346.58-.625.977-.835.397-.21.873-.316 1.426-.316.304 0 .594.045.87.134.277.09.53.22.76.392.23.171.425.384.585.637.16.253.275.54.345.86h.795a2.851 2.851 0 00-.392-1.158 3.031 3.031 0 00-.771-.848 3.368 3.368 0 00-1.029-.52 3.914 3.914 0 00-1.163-.175c-.655 0-1.23.119-1.724.356a3.548 3.548 0 00-1.234.96 4.114 4.114 0 00-.736 1.384 5.479 5.479 0 00-.246 1.649c0 .576.082 1.126.246 1.648.164.522.41.982.736 1.38a3.58 3.58 0 001.234.952c.495.238 1.07.356 1.724.356zm8.23 0a3.67 3.67 0 001.339-.233 3.08 3.08 0 001.046-.667c.296-.288.538-.639.725-1.052.187-.413.308-.876.362-1.39h-.794a3.533 3.533 0 01-.27 1.045c-.14.324-.323.606-.549.848a2.492 2.492 0 01-.806.573c-.312.14-.663.21-1.052.21-.554 0-1.03-.105-1.427-.315a2.826 2.826 0 01-.976-.836 3.594 3.594 0 01-.56-1.18 5.037 5.037 0 010-2.684c.12-.436.307-.828.56-1.175.254-.346.579-.625.976-.835.398-.21.873-.316 1.427-.316.303 0 .594.045.87.134.277.09.53.22.76.392.23.171.425.384.585.637.16.253.274.54.345.86h.795a2.851 2.851 0 00-.392-1.158 3.031 3.031 0 00-.772-.848 3.368 3.368 0 00-1.028-.52 3.914 3.914 0 00-1.163-.175c-.655 0-1.23.119-1.725.356a3.548 3.548 0 00-1.233.96 4.114 4.114 0 00-.736 1.384 5.479 5.479 0 00-.246 1.649c0 .576.082 1.126.246 1.648.163.522.409.982.736 1.38a3.58 3.58 0 001.233.952c.495.238 1.07.356 1.725.356zm10.51-.163v-.678H63.14v-3.297h4.653v-.678H63.14v-3.016h4.968v-.678h-5.763v8.347h5.822zm4.021.163c.491 0 .912-.044 1.263-.134.35-.09.644-.206.882-.35.238-.145.425-.307.561-.486.137-.179.242-.356.316-.532.074-.175.12-.34.14-.496.02-.156.03-.281.03-.375 0-.342-.057-.635-.17-.876a1.776 1.776 0 00-.468-.614 2.766 2.766 0 00-.69-.42 5.848 5.848 0 00-.835-.287l-2.034-.503a3.066 3.066 0 01-.485-.152 1.452 1.452 0 01-.404-.245 1.075 1.075 0 01-.274-.369 1.208 1.208 0 01-.1-.508c0-.312.059-.573.176-.783.116-.21.27-.38.461-.509.191-.128.413-.222.667-.28.253-.059.516-.088.789-.088.296 0 .578.04.847.123a2.2 2.2 0 01.713.362c.207.16.374.359.503.596.129.238.2.517.216.836h.795c0-.429-.084-.805-.251-1.128a2.433 2.433 0 00-.672-.812 2.906 2.906 0 00-.982-.491A4.196 4.196 0 0072 77.562c-.585 0-1.064.084-1.438.251-.374.168-.668.372-.882.614-.215.242-.36.499-.439.772-.078.272-.117.51-.117.713 0 .327.053.604.158.83.105.226.244.417.415.572.172.156.372.28.602.374.23.094.466.172.707.234l1.859.456c.195.047.394.107.596.181.203.074.388.17.555.287.168.117.304.26.41.432.105.172.157.374.157.608 0 .304-.074.563-.222.778-.148.214-.333.39-.555.526a2.483 2.483 0 01-.719.298 3.042 3.042 0 01-.713.093c-.382 0-.74-.037-1.075-.11a2.412 2.412 0 01-.871-.37 1.763 1.763 0 01-.579-.689c-.14-.288-.206-.647-.199-1.075h-.795c-.023.514.045.954.205 1.32.16.367.388.667.684.9.296.235.654.408 1.075.521.421.113.877.17 1.368.17zm7.365 0c.49 0 .911-.044 1.262-.134.35-.09.645-.206.883-.35.237-.145.424-.307.56-.486.137-.179.242-.356.316-.532.074-.175.121-.34.14-.496.02-.156.03-.281.03-.375 0-.342-.057-.635-.17-.876a1.776 1.776 0 00-.467-.614 2.766 2.766 0 00-.69-.42 5.848 5.848 0 00-.836-.287l-2.034-.503a3.066 3.066 0 01-.485-.152 1.452 1.452 0 01-.403-.245 1.075 1.075 0 01-.275-.369 1.208 1.208 0 01-.1-.508c0-.312.06-.573.176-.783.117-.21.27-.38.462-.509.19-.128.413-.222.666-.28.253-.059.516-.088.79-.088.295 0 .578.04.847.123a2.2 2.2 0 01.713.362c.206.16.374.359.503.596.128.238.2.517.216.836h.795c0-.429-.084-.805-.252-1.128a2.433 2.433 0 00-.672-.812 2.906 2.906 0 00-.982-.491 4.196 4.196 0 00-1.18-.164c-.585 0-1.064.084-1.438.251-.374.168-.669.372-.883.614-.214.242-.36.499-.438.772-.078.272-.117.51-.117.713 0 .327.052.604.158.83.105.226.243.417.415.572.171.156.372.28.602.374.23.094.465.172.707.234l1.859.456c.194.047.393.107.596.181.202.074.388.17.555.287.168.117.304.26.41.432.104.172.157.374.157.608 0 .304-.074.563-.222.778-.148.214-.333.39-.555.526a2.483 2.483 0 01-.72.298 3.042 3.042 0 01-.712.093c-.382 0-.74-.037-1.076-.11a2.412 2.412 0 01-.87-.37 1.763 1.763 0 01-.58-.689c-.14-.288-.206-.647-.198-1.075h-.795c-.023.514.045.954.205 1.32.16.367.387.667.683.9.297.235.655.408 1.076.521.42.113.877.17 1.368.17zM87.27 81.085v-2.378h.014l.908 2.378h.413l.909-2.378h.014v2.378h.554v-3.042h-.849l-.827 2.156-.834-2.156h-.857v3.042h.554zm-2.105 0v-2.562h.93v-.48h-2.451v.48h.93v2.562h.59z" fill="#FFF" fill-rule="nonzero"/></g></svg>