<svg width="150" height="145" xmlns="http://www.w3.org/2000/svg"><g fill="none" fill-rule="evenodd"><path fill="#D3C5B8" d="M0 .392h150v144.37H0z"/><path d="M56.6 79.802V73.52h5.113c.634-.026 1.133.08 1.496.317.363.238.64.552.832.942.192.39.317.832.377 1.327.059.496.102.994.128 1.496.014.146.027.318.04.516.013.198.03.4.05.604.02.205.052.403.099.595.046.191.109.353.188.485h1.486c-.145-.172-.26-.413-.347-.723a6.425 6.425 0 01-.188-.991c-.04-.35-.066-.697-.08-1.04a52.479 52.479 0 00-.039-.872 7.036 7.036 0 00-.168-1.18 2.811 2.811 0 00-.416-.96 2.31 2.31 0 00-.744-.684c-.303-.178-.686-.3-1.149-.367v-.04c.912-.184 1.599-.607 2.061-1.268.462-.66.694-1.44.694-2.338 0-.634-.116-1.185-.347-1.654a3.196 3.196 0 00-.932-1.15 3.996 3.996 0 00-1.367-.664 6.141 6.141 0 00-1.654-.218h-6.48v14.149H56.6zm5.033-7.43H56.6v-5.57h5.033c1.03 0 1.797.252 2.3.754.501.502.752 1.189.752 2.06 0 .437-.082.823-.248 1.16a2.669 2.669 0 01-.663.862c-.278.238-.602.42-.971.545-.37.125-.76.188-1.17.188zm8.284 7.43V65.653h-1.348v14.149h1.348zm7.886.277c.833 0 1.546-.075 2.14-.227.595-.152 1.094-.35 1.496-.595.403-.244.72-.518.952-.822.23-.304.41-.605.535-.902.125-.297.204-.578.237-.842.034-.264.05-.476.05-.634 0-.581-.096-1.077-.287-1.486a3.011 3.011 0 00-.793-1.04 4.69 4.69 0 00-1.17-.714 9.913 9.913 0 00-1.416-.486L76.1 71.48a5.198 5.198 0 01-.822-.257 2.46 2.46 0 01-.684-.416 1.822 1.822 0 01-.466-.625 2.048 2.048 0 01-.168-.862c0-.528.099-.97.297-1.327.198-.357.46-.644.783-.862a3.35 3.35 0 011.13-.476c.429-.099.875-.148 1.337-.148.502 0 .98.069 1.437.208a3.73 3.73 0 011.208.614c.35.27.635.608.853 1.01.218.403.34.876.366 1.417h1.348c0-.726-.142-1.364-.426-1.912a4.125 4.125 0 00-1.14-1.377 4.927 4.927 0 00-1.664-.832 7.113 7.113 0 00-2.002-.278c-.99 0-1.803.142-2.437.426-.634.284-1.133.631-1.496 1.04a3.36 3.36 0 00-.743 1.308c-.132.463-.199.866-.199 1.21 0 .554.09 1.023.268 1.406.178.383.413.707.703.971.291.264.631.476 1.021.634.39.159.79.29 1.199.397l3.15.772c.33.08.668.182 1.011.308.344.125.657.287.941.485.284.198.516.443.694.733.178.29.268.634.268 1.03 0 .516-.126.955-.377 1.318a3.11 3.11 0 01-.941.892c-.377.231-.783.4-1.219.505a5.156 5.156 0 01-1.209.159 8.439 8.439 0 01-1.823-.188 4.088 4.088 0 01-1.476-.624 2.99 2.99 0 01-.98-1.17c-.239-.488-.351-1.096-.338-1.823h-1.347c-.04.872.076 1.619.346 2.24.271.62.658 1.129 1.16 1.525.502.397 1.11.69 1.823.882a8.917 8.917 0 002.318.287zm17.419-.277v-1.15H86.7v-5.587h7.886v-1.15h-7.886v-5.112h8.421v-1.15h-9.769v14.149h9.869z" fill="#FFF" fill-rule="nonzero"/></g></svg>