<svg width="150" height="145" xmlns="http://www.w3.org/2000/svg"><g fill="none" fill-rule="evenodd"><path fill="#393B41" d="M0 0h150v144.369H0z"/><path d="M58.369 70.195v-1.147h-8.502v-5.576h7.87v-1.147h-7.87v-5.1h8.403v-1.147h-9.747v14.117h9.846zm2.906 0V56.078H60.03v14.117h1.245zm3.658-12.12v-1.997h-1.246v1.996h1.246zm0 12.12V59.992h-1.246v10.203h1.246zm5.338.098c.185 0 .37-.006.554-.02.185-.013.37-.02.554-.02v-1.047a9.66 9.66 0 01-1.068.06c-.448-.027-.728-.156-.84-.386-.112-.23-.168-.55-.168-.96v-6.88h2.076v-1.048h-2.076v-3.064h-1.246v3.064h-1.78v1.048h1.78v6.98c-.013.87.145 1.466.474 1.789.33.323.91.484 1.74.484zm7 .178c1.291 0 2.29-.316 2.995-.949.705-.632 1.19-1.529 1.453-2.689h-1.245c-.198.791-.554 1.424-1.068 1.898-.514.475-1.226.712-2.135.712-.594 0-1.101-.125-1.523-.375a3.452 3.452 0 01-1.048-.95 3.83 3.83 0 01-.603-1.295 5.528 5.528 0 01-.188-1.393h7.85a8.07 8.07 0 00-.198-2.106 5.367 5.367 0 00-.781-1.839 4.173 4.173 0 00-1.414-1.295c-.58-.33-1.278-.494-2.095-.494-.804 0-1.5.155-2.086.464a4.12 4.12 0 00-1.434 1.226 5.31 5.31 0 00-.82 1.73 7.82 7.82 0 000 4.043c.178.653.451 1.226.82 1.72.37.495.847.884 1.434 1.167.586.284 1.282.425 2.086.425zm3.242-6.09H73.91c.053-.46.162-.912.327-1.354.164-.441.385-.83.662-1.166a3.184 3.184 0 011.008-.81c.396-.205.85-.307 1.365-.307.5 0 .949.102 1.344.306.395.204.732.475 1.008.81.277.337.491.722.643 1.157a4.5 4.5 0 01.247 1.365zM48.183 84.129l1.01-2.606h3.815l1.021 2.606h.857l-3.287-8.382h-.892l-3.37 8.382h.846zm4.555-3.287h-3.3l1.68-4.297 1.62 4.297zm6.468 3.451c.493 0 .941-.078 1.344-.235.403-.156.753-.38 1.05-.669.298-.29.54-.642.729-1.056.188-.415.309-.88.364-1.397h-.799c-.039.375-.129.726-.27 1.05-.14.325-.324.609-.551.851a2.502 2.502 0 01-.81.576c-.313.14-.666.211-1.057.211-.556 0-1.033-.106-1.432-.317a2.838 2.838 0 01-.98-.84 3.609 3.609 0 01-.564-1.185 5.059 5.059 0 010-2.694c.121-.439.31-.832.564-1.18.254-.348.58-.628.98-.84.399-.21.876-.316 1.432-.316.305 0 .597.045.875.135.277.09.532.22.763.393.23.172.426.385.587.64.16.254.276.542.346.863h.798a2.863 2.863 0 00-.393-1.163 3.044 3.044 0 00-.775-.85 3.382 3.382 0 00-1.033-.523 3.931 3.931 0 00-1.168-.176c-.657 0-1.235.12-1.732.358-.496.238-.91.56-1.238.962a4.132 4.132 0 00-.74 1.392 5.502 5.502 0 00-.246 1.655c0 .579.082 1.13.246 1.655.165.524.411.986.74 1.385.329.4.742.718 1.238.957.497.239 1.075.358 1.732.358zm8.265 0c.493 0 .94-.078 1.344-.235.403-.156.753-.38 1.05-.669.298-.29.54-.642.728-1.056.188-.415.31-.88.364-1.397h-.798c-.04.375-.13.726-.27 1.05-.14.325-.325.609-.552.851a2.502 2.502 0 01-.81.576c-.313.14-.665.211-1.056.211-.556 0-1.033-.106-1.433-.317a2.838 2.838 0 01-.98-.84 3.609 3.609 0 01-.563-1.185 5.059 5.059 0 010-2.694c.121-.439.309-.832.563-1.18.255-.348.581-.628.98-.84.4-.21.877-.316 1.433-.316.305 0 .596.045.874.135.278.09.532.22.763.393.231.172.427.385.587.64.16.254.276.542.347.863h.798a2.863 2.863 0 00-.393-1.163 3.044 3.044 0 00-.775-.85 3.382 3.382 0 00-1.033-.523 3.931 3.931 0 00-1.168-.176c-.658 0-1.235.12-1.732.358-.497.238-.91.56-1.238.962a4.132 4.132 0 00-.74 1.392 5.502 5.502 0 00-.247 1.655c0 .579.083 1.13.247 1.655.164.524.41.986.74 1.385.328.4.741.718 1.238.957s1.074.358 1.732.358zm10.553-.164v-.681h-5.048v-3.31h4.673v-.682h-4.673v-3.028h4.99v-.681h-5.788v8.382h5.846zm4.039.164a5.18 5.18 0 001.268-.135 3.27 3.27 0 00.886-.352c.239-.145.426-.307.563-.487.137-.18.243-.358.317-.534.075-.177.122-.343.141-.5.02-.156.03-.281.03-.375 0-.344-.057-.638-.17-.88a1.784 1.784 0 00-.47-.617c-.2-.168-.43-.309-.693-.422a5.873 5.873 0 00-.84-.288l-2.042-.505a3.08 3.08 0 01-.487-.152 1.458 1.458 0 01-.405-.247 1.08 1.08 0 01-.276-.37 1.213 1.213 0 01-.1-.51c0-.313.059-.576.176-.787.118-.211.272-.381.464-.51.192-.13.415-.224.67-.282.254-.06.518-.088.792-.088.297 0 .58.04.85.123.27.082.51.203.717.364.207.16.376.36.505.598.129.24.201.519.217.84h.798c0-.43-.084-.808-.252-1.133a2.444 2.444 0 00-.675-.816 2.919 2.919 0 00-.986-.493 4.214 4.214 0 00-1.186-.164c-.587 0-1.068.084-1.444.252-.376.168-.671.374-.886.616a1.99 1.99 0 00-.44.775 2.66 2.66 0 00-.118.716c0 .329.053.607.158.834.106.227.245.419.417.575.172.157.374.282.605.376.23.094.467.172.71.235l1.867.457c.195.047.395.108.598.182.204.075.39.17.558.288.168.117.305.262.41.434.106.172.16.376.16.61 0 .306-.075.566-.224.781a1.842 1.842 0 01-.557.529 2.493 2.493 0 01-.722.299 3.054 3.054 0 01-.716.094 5 5 0 01-1.08-.112 2.422 2.422 0 01-.875-.37 1.771 1.771 0 01-.581-.692c-.141-.29-.208-.65-.2-1.08h-.798c-.023.517.045.959.205 1.327.16.367.39.669.687.903.298.235.658.41 1.08.523.423.113.88.17 1.374.17zm7.396 0a5.18 5.18 0 001.267-.135 3.27 3.27 0 00.887-.352c.238-.145.426-.307.563-.487.137-.18.243-.358.317-.534.075-.177.122-.343.141-.5.02-.156.03-.281.03-.375 0-.344-.057-.638-.17-.88a1.784 1.784 0 00-.47-.617c-.2-.168-.43-.309-.693-.422a5.873 5.873 0 00-.84-.288l-2.042-.505a3.08 3.08 0 01-.487-.152 1.458 1.458 0 01-.405-.247 1.08 1.08 0 01-.276-.37 1.213 1.213 0 01-.1-.51c0-.313.059-.576.176-.787.118-.211.272-.381.464-.51.192-.13.415-.224.67-.282.253-.06.518-.088.791-.088.298 0 .582.04.852.123.27.082.508.203.716.364.207.16.375.36.504.598.13.24.202.519.218.84h.798c0-.43-.084-.808-.252-1.133a2.444 2.444 0 00-.675-.816 2.919 2.919 0 00-.987-.493 4.214 4.214 0 00-1.185-.164c-.587 0-1.069.084-1.444.252-.376.168-.671.374-.887.616a1.99 1.99 0 00-.44.775 2.66 2.66 0 00-.117.716c0 .329.053.607.158.834.106.227.245.419.417.575.172.157.374.282.605.376.23.094.467.172.71.235l1.866.457c.196.047.396.108.6.182.203.075.389.17.557.288.168.117.305.262.41.434.106.172.16.376.16.61 0 .306-.075.566-.224.781a1.842 1.842 0 01-.558.529 2.493 2.493 0 01-.721.299 3.054 3.054 0 01-.717.094 5 5 0 01-1.08-.112 2.422 2.422 0 01-.874-.37 1.771 1.771 0 01-.581-.692c-.141-.29-.208-.65-.2-1.08h-.798c-.024.517.045.959.205 1.327.16.367.39.669.687.903.297.235.657.41 1.08.523.423.113.88.17 1.374.17zM97.208 79.125v-2.387h.015l.912 2.387h.415l.912-2.387h.015v2.387h.556v-3.054h-.853l-.83 2.165-.838-2.165h-.86v3.054h.556zm-2.113 0v-2.572h.934v-.482h-2.462v.482h.935v2.572h.593z" fill="#FFF" fill-rule="nonzero"/></g></svg>