<svg width="175" height="186" xmlns="http://www.w3.org/2000/svg" xmlns:xlink="http://www.w3.org/1999/xlink"><defs><path id="a" d="M0 0h31v35.3H0z"/></defs><g fill="none" fill-rule="evenodd"><path d="M79 62l-.4.3v2l-.2.2-66.3 55.7-.9-1-3 2.5a23.9 23.9 0 0 0-5 5.8c-.8 1.4-2 3.7-2.2 5.3.9-1 2-2 3.1-2.7 1-.6 2-1 3.1-1.5 1-.5 2.2-1 3-1.6l21-11.7-.2-.4h-.2l-1.3-2.2 14-8.5-.3-.6L57.8 96l1.7 3-.2.1.7 1.4.6-.3L60 98l8-1.8v-.6l.1-.2c.2-1 .3-1.5 1.4-1.8 1.6-.3 5.2-.3 7-.1 1.1.1 1.3.3 1.6 1.3v.2l.2.6c.1.4.4.4.4.4h1.8L79 84.2V62zM94 25" fill="#FFF"/><path d="M63 99.6l5-1.1.2-1.5-1 .2-4.2 2.4zM108.4 169L89 151v.3l17.2 15.7 2.2 2zM66.3 167.9l18.2-16.6v-.3L65 169l1.3-1.1zM89.5 162.1l29.5 20v-1.8L89 153a190.8 190.8 0 0 0 0 13.5l.4.3V162zM94 96l1.7.1s.2 0 .3-.3c.2-1 .4-2 1.6-2.2a41 41 0 0 1 7 0c1.4.2 1.6 1.3 1.8 2.6l8 2-.5 2.2h.3l.3.2.7-1.3-.3-.1 1.8-3 14.6 7.4-.4.7 14.2 8.4-1.5 2.4h-.1l-.3.3 21.2 11.8 2.4 1.2c1.3.6 2.7 1.2 3.7 2 1.2.8 2.1 1.6 3 2.5-.3-1.8-1.5-4-2-4.8a25.7 25.7 0 0 0-5-6l-3.3-2.8-.9 1-.3-.3-66-55.6-.1-1.8-.5-.6v22L94 96z" fill="#FFF"/><path d="M106 97l.1 1.4 5.1 1.3-4.2-2.5-1-.2zM94.2 72V60.3l.1-32.2h-1.7a.6.6 0 0 1-.5-.5l-.2-1v-.5a.8.8 0 0 1-.4-.5l-.3-1c-.2-.2-.2-.5 0-.8v-.1c-.4 0-.6-.3-.7-.3-.6-1-1.6-1.7-2.6-2-.3 0-.6-.3-.6-.7v-5h.8l.1.1c.2 0 .3.3.3.5h.1l.8.1h.1l.3-.2.2.2c1 .7 1.8 1.7 2.6 3 0 .2.3.5.1.9l-.2.6h.3c.3 0 .7.2.8.6v.2L92.4 13l-.5-1.5C89.8 4.3 88.3.8 87.1 1c-1.8.3-3.5 6.5-4.2 9.1l-.5 1.7L80.6 22l.2-.5c.2-.4.5-.7.9-.7h.3l-.3-.6c0-.3 0-.6.2-.8a9.6 9.6 0 0 1 2.6-3l.2-.2.3.1.1.1.8-.1.4-.5h.8v5c0 .3-.3.6-.6.7-1 .2-2 1-2.6 1.8 0 .1-.3.4-.6.4v.9l-.4 1c0 .1-.2.4-.5.5.1.2.2.3.1.5v.1l-.2.8c0 .4-.2.6-.5.6h-1.6L80 60.3H80v9.7L81 91l.7 4.7h.3s.4-.3.4-.8h.9c.6 4 1 10.3 1 16.3l-.2 5.3c-.1 8.8-.3 17.8 1 25.2v-.6l.2-3.7c0-5 .2-10 .4-13.6.2-5.4 1.1-5.5 1.5-5.5l.5.1c.8.8 1 4.2 1 5.3l.1 2.4.3 11.2.2 3.5v.4c1.3-7.5 1.2-16.6 1-25.4v-4.6c-.1-6 .2-12.2.9-16.4l1 .1c0 .5.2.7.3.8h.4l.6-6 .7-17.7zM80 25v0M55 182.3L84.6 162v5l.6-.3a302.2 302.2 0 0 1 0-13.6L55 180.5v1.8zM83 23h.1z" fill="#FFF"/><path d="M106 122.4v-.4V122.4M77.3 133.1v-.1l-.3.1h.3zM68 111v0M78 131zM70.7 133a22.8 22.8 0 0 1-.1 0l.1.3h.2l-.2-.2M106 113.5l.2-7V105l-.1 6.3-.1 2.2M84.7 143.8l-.7-.8.7 6a111.1 111.1 0 0 1 0-5.2M166.8 120.9l-70.1-59c-.6-.5-1.2-1.2-1.7-1.9v1.5l.5.6v-.3h1v.7l66 55.4.3.3.3.3-.2.3 3.3 2.8c1.5 1.3 3.6 3.6 5 6 .4.9 1.7 3 1.9 4.8a16.5 16.5 0 0 0-6.6-4.5l-2.4-1.1-21.2-11.9-.3.5-.4-.3-13.2-7.3-.4-.3-.3-.1-.5-.2-13-6.2h-.1l-.4-.2-.4-.2.2-.5-.2-.1h-.4v.4h-.5l-.5-.2v-.1l-1.2-.7-5-1.2v1l7.2 1.7 14.5 6.8 35.6 19.9 2.5 1.2c1.2.6 2.5 1.2 3.5 1.9 1.5 1 2.5 2 3.5 3.3l.6.7.3-1c.5-1.8-1-4.6-2-6.5a26.7 26.7 0 0 0-5.2-6.3M96.4 132.2a39 39 0 0 1-.4-1.2l.5 1.5h.2c-.2 0-.2-.2-.3-.3" fill="#393B41"/><g transform="translate(89 150)"><mask id="b" fill="#fff"><use xlink:href="#a"/></mask><path d="M.2 1.3l19.4 18 10.3 9h.5v2.3L30 30V32l.4.3v2h-1v-.3L1 17.4H.5v-.8l-.5-.3v1l31 18v-5.8c0-.6-.3-1.3-.8-1.7L.2 0v1.3" fill="#393B41" mask="url(#b)"/></g><path d="M85.2 166.4l-.6.3v.8H84l-28.4 16.4v.3h-1v-2l.3-.1v-1.8l-.4.3v-2.1h.5l10.4-9.2 19.5-18V150l-30 27.8c-.6.5-1 1.3-1 2v5.6l31.2-18v-1M67.9 98.3l-5 1-1.3.7v.2h-.4l-.5.2-.1-.5-.6.3.2.3-.4.2-.4.2-13.3 6.2-.3.1.2.2-.5.2-13.5 7.5-.4.3-.3-.5-21 11.7-3 1.5-3.2 1.6c-1 .7-2.2 1.7-3 2.7.2-1.6 1.3-3.9 2.2-5.3a24 24 0 0 1 5-5.8l3-2.5-.3-.3.3-.3.4-.3 66-55.7v-.4h.9l.3-.2v-1.4h1v.2-.1L80 28l-.3-.2-.2-.4.2-1.5.2-1.1c0-.3.1-.4.2-.5v-.1a.7.7 0 0 1 0-.5l.4-1.7 1.7-10.3.5-1.6c.8-2.7 2.5-8.8 4.3-9.1 1.1-.3 2.7 3.3 4.7 10.4l.4 1.6 1.4 8.6c.3.8.5 1.3.6 2.1l-.1.6c.1 0 .3.2.3.5a33.4 33.4 0 0 0 .3 2.7c0 .2 0 .3-.2.4l-.2.1-.1 32.2v-.4h.9l.1-34.3-2-12.7-.5-1.6C91.1 5.6 89.2-.4 86.8 0c-2.2.4-3.6 5-5 9.8-.2.7-.3 1.3-.5 1.6L79.1 25 79 60c-.5.7-1 1.3-1.6 1.8L7.6 120.5a25 25 0 0 0-5.1 6c-.8 1.3-3 5.3-2.4 7.2l.2 1 .6-.8a17.2 17.2 0 0 1 6.7-4.9l3.2-1.6L46 107.7l15.1-7 6.6-1.5v-1M89 143.6a38.9 38.9 0 0 1 0 3.6l.5-4.2-.5.6z" fill="#393B41"/><path d="M92.1 97.2a1 1 0 0 1-.6-.2c-.5 4-.8 9.5-.7 14.7v4.7c.2 8.6.4 17.6-.8 25l5-5.3v-4.8l.6-.9v-.2c-.3-1.3-.5-2.7-.7-4.7l-.4-9v-2.7c-.2-4.2 0-12 .7-16.6H92z" fill="#FFF"/><path d="M96 131.1l-.4-1.4v.3l-.5.9v4.8l-5 5.3c1-7.5 1-16.4.8-25v-4.7c-.1-5.2.1-10.7.6-14.7l.6.2h3.1l.2-.9v-.3c0 .2-.2.2-.2.2h-1.7l-.1.5h-1l.1-.5h-.4s-.4-.3-.4-.7l-.9-.1a109.4 109.4 0 0 0-.9 21c.2 8.8.3 17.9-.9 25.4l.1 2 .6-.6L96 136v-5z" fill="#393B41"/><path d="M79 106l.1 8.2v2.5a72 72 0 0 1-1.1 13.4v.3l.6.9v5l5 5.2c-1.2-7.3-1-16-.9-24.5l.1-5.3c0-5.2-.2-10.7-.7-14.7a1 1 0 0 1-.6.2h-3-.1c.4 2.4.5 5.6.6 8.7z" fill="#FFF"/><path d="M85 143.5V142c-1.3-7.4-1-16.5-1-25.3l.2-5.3c0-6-.3-12.2-1-16.3h-1c0 .5-.2.8-.3.8h-.3v.5h-.8l-.1-.5h-1.8s-.3 0-.4-.4v.4l.3 1H82l.6-.2c.5 4 .8 9.5.7 14.7v5.3c-.2 8.5-.4 17.2.7 24.5l-5-5.3v-5l-.5-.8v-.3L78 131v5l6.2 6.6.7.8z" fill="#393B41"/><path d="M96.5 124.8c.3 3.4.8 5 1.4 6.8 1 .2 4.5.2 5.4.1.7-1.6 1.3-4 1.7-6.9a75.7 75.7 0 0 0 .8-13.5c.1-4.6.2-9 0-12.5v-.2l-.2-2.3c-.2-1.6-.3-2-1-2.1-1.9-.2-5.4-.3-6.8-.1-.5 0-.6.5-.8 1.4v.5c-1 4.4-1.1 12.9-1 17.2l.1 2.7c0 2.5.1 6 .4 9" fill="#FFF"/><path d="M96 113.1a91.2 91.2 0 0 1 1-17.7c.1-.9.3-1.3.7-1.4 1.4-.1 5 0 6.8.1.7.1.8.5 1 2v.1l.2 2.3v.3c.3 3.5.2 7.9 0 12.4v3.6c-.2 3.7-.2 7.2-.7 10-.5 2.9-1 5.3-1.7 6.8-1 .2-4.5.1-5.5 0a25 25 0 0 1-1.4-6.8l-.3-9v-2.7zm10.7-14.6v-.3l-.2-1.5-.6-.1.2-1 .3.1c-.1-1.3-.4-2.3-1.8-2.5a41 41 0 0 0-7-.1c-1.2.1-1.4 1.3-1.5 2.2l-.1.4-.2.9a96.6 96.6 0 0 0-.7 19.2c0 2.5.1 6 .4 9a29.5 29.5 0 0 0 1.5 7.3l.3.3a72.2 72.2 0 0 0 4.3.2c2.3 0 2.4-.1 2.5-.4a35.2 35.2 0 0 0 2.2-11c.2-2 .2-4.2.3-6.4v-1.2-2.3a301.7 301.7 0 0 0 .1-12.1v-.7z" fill="#393B41"/><path fill="#FFF" d="M118.1 178h.5l-10.3-9-2.3-2z"/><path d="M119.3 181v-2.3h-1l-12.1-11L89 152v1.2l29.8 27.4.5.4z" fill="#393B41"/><path fill="#FFF" d="M118.5 183l-28-19v3.7H90l28.5 16.5z"/><path fill="#393B41" d="M90 166.6v.8h.9v-3.6l28 19v1.5h1v-2l-.4-.3L90 162z"/><path fill="#FFF" d="M66.8 168l-1.4 1.2-10.4 9.2h.4z"/><path d="M56 179h-1v2l.4-.2 30-27.6v-1-.2l-18.1 16.6L55.9 179z" fill="#393B41"/><path fill="#FFF" d="M84 164l-28 19.3v1.1L84.4 168H84z"/><path fill="#393B41" d="M55.3 182.4l-.3.2v1.9h.9V183.1l28-19.3v4h1V162z"/><path fill="#FFF" d="M97 64l65.4 55 .6-.6L97 63z"/><path fill="#393B41" d="M162 119.8l.4.3 1-1 .2-.3-.3-.3-.4-.3-.6.6-65.3-55V62h-1v2.2z"/><path fill="#FFF" d="M142.8 113.3l.1.1.5-.7-12.9-7.7-.5.8h.1l12.7 7.6zM129 108zM141.8 115.2l.5-.7-12.6-7.5-.7 1.2 13.2 7.3z"/><path fill="#393B41" d="M143.6 114.8l1.6-2.4L131 104l-1 1.6.5.4v-.1l.4-.8 13 7.6-.6.8-.1-.1.5.3-.3.4-.2.4-.5-.3-.5.8.4.3.4.2.3-.4.2-.4zM129.4 107.5l-.6-.4-.1-.1-.7 1.3.3.1.4.3z"/><path fill="#FFF" d="M128.7 105h.2l.8-1.4-12.9-6.6-.8 1.4 12.7 6.5zM128.5 106.4l-12.6-6.4-.9 1.7 13.1 6.3-.4-.2z"/><path fill="#393B41" d="M129.1 106.4l.2.1.2-.3.2-.4 1-1.6.4-.7-14.6-7.5-1.8 3 .2.1-.7 1.3-.2.5.4.2.4.2 1-1.7-.6-.4.2-.4.2-.4.4.2.9-1.4 12.9 6.7-.8 1.4-.2-.1.5.3-.2.4-.2.4-.6-.3-.7 1.3.4.3.4.2v-.1z"/><path fill="#FFF" d="M112.8 98.4L107 97l4.2 2.4 1.2.7z"/><path fill="#393B41" d="M106.5 96h-.3l-.2 1h.6l1 .3 5.8 1.4-.4 1.7v.2h.5l.4.2.1-.5.5-2.3zM128.7 106.9l.2-.4.2-.5-.5-.2-12.7-6.6-.5-.2-.2.4-.2.4.6.4 12.5 6.4zM129.5 106l-.3.4-.2.3v.1l.6.3 12.6 7.5.5.3.2-.4.3-.4-.5-.3-12.7-7.5-.5-.3z"/><path fill="#FFF" d="M12.6 119.3l65.4-55V63l-66 55.7zM11 119z"/><path fill="#393B41" d="M78.5 64.2l.1-.1v-2l-.4-.1h-.5v1.6l-65.4 55-.6-.5-.3.3-.4.3.2.2 1 1.1z"/><path fill="#FFF" d="M44.2 105.9l.1-.1-.5-.8-12.8 7.7.4.7 12.8-7.5zM44.6 107L32 114.4l.5.9-.4.2 13.6-7.5-.4.2z"/><path fill="#393B41" d="M44.6 106.3h-.1L43 104 29 112.5l1.4 2.3.2-.1.2.4.3.5.4-.3.4-.2-.5-.9-.6.4-.5-.9.4-.2-.4-.7L43 105l.5.8.4-.2.2.4.2.4-.4.3.6 1.3.5-.3.4-.2-.1-.2h-.2z"/><path fill="#FFF" d="M58.6 100L46 106.4l.6 1.2-.4.2 13.2-6.1zM57.9 97L45 103.6l.8 1.4 12.9-6.6z"/><path fill="#393B41" d="M59.3 99l-1.7-3-14.6 7.5.4.6 1.3 2.4h.1l.7 1.1h.1l.3-.2.4-.2-.6-1.2-.5.3-.2-.5-.2-.4.3-.1-.8-1.4 12.9-6.6.8 1.3.4-.2.4.9-.5.3.8 1.6.5-.2.4-.2-.2-.3L59 99z"/><path fill="#FFF" d="M61 98.4l.3 1.6 1.3-.7 4.2-2.3z"/><path d="M60.5 100.1v.5l.5-.1.5-.1v-.2l-.4-1.6 5.8-1.4 1-.2v-1L60 97.9l.5 2.2zM59 99.8l-.4-.8-.4.2-12.9 6.6-.3.2.2.4.2.4.5-.2 12.6-6.5zM45.1 106.8l-.2-.4-.2-.4-.5.3-12.8 7.5-.4.2.5.8.6-.3 12.6-7.4z" fill="#393B41"/><path d="M80.1 26.4l-.1 1h.8l.2-.5-.8-.9v.4M83 23l.3.2zM86.5 21.4V18h-.1a4 4 0 0 0-1 .3H85a9.2 9.2 0 0 0-2 2.5l.8 2.3c.8-.8 1.8-1.5 2.7-1.7M81 23.8l1 1 .3-.6V24l-.8-2.1-.5 1.8" fill="#FFF"/><path d="M83.9 23.3l-.4-.2V23l.4.3zm-2 4h-1l.2-1v-.4l.8.9v.5zm.9-2.9l-.3.7-1-1 .5-1.9.8 2.1v.1zm.3-4.3c.6-1 1.2-1.9 2-2.4H85.3c.3-.2.6-.2 1-.3h.1v3.4c-1 .3-2 .9-2.7 1.7l-.8-2.3V20zm-2.5 8.2H82c.3 0 .5-.2.6-.5l.2-.9-.1-.6c.2 0 .4-.3.4-.5l.4-1c.1-.2.1-.6 0-.8v-.1c.4 0 .6-.3.6-.4.7-.9 1.7-1.6 2.7-1.8.3 0 .6-.4.6-.8V16h-.8c-.3.1-.3.3-.4.5l-.8.1h-.2l-.2-.2-.2.2c-1 .7-1.8 1.6-2.6 3-.2.2-.3.5-.2.8l.2.7-.3-.1c-.3 0-.7.3-.8.7a34.5 34.5 0 0 0-.7 2.2l.1.5v.1l-.3.5-.1 1.2-.2 1.5c0 .2 0 .3.2.4l.3.1z" fill="#393B41"/><path d="M93.8 26.4V26l-.8.8.1.6h.8v-1M90.7 23.1l.8-2.3v-.1c-.6-1-1.3-1.8-2-2.4H89.2l-1-.3H88v3.4c1 .3 2 .9 2.7 1.7M93.3 23.8l-.5-1.8-.8 2v.2l.3.7 1-1z" fill="#FFF"/><path d="M92.6 27.4l-.1-.6.7-.8.1.4.1 1h-.8zm-4.6-10h.1c.4.1.7.1 1 .3h.4a9.3 9.3 0 0 1 2 2.5l-.9 2.4a5.5 5.5 0 0 0-2.7-1.8v-3.4zm3.7 7l.8-2.1.4 1.8-1 1-.2-.6v-.1zm.7-3.3h-.2l.2-.6c.1-.4 0-.7-.2-.9a9.5 9.5 0 0 0-2.5-3l-.3-.1h-.2l-.2.2a7 7 0 0 0-.7-.2h-.1c0-.2-.1-.4-.3-.5H87v5c0 .3.3.6.6.7 1 .2 2 1 2.6 1.9 0 0 .3.4.6.3v.1c-.1.3 0 .6 0 .8l.4 1c0 .2.2.4.4.5v.6l.1.9c0 .3.3.5.6.5H94l.2-.1.2-.5c0-.3 0-.9-.2-1.5l-.1-1c0-.4-.2-.5-.3-.6V24a11.7 11.7 0 0 0-.5-2.3c-.2-.4-.5-.6-.9-.6z" fill="#393B41"/><path d="M69.1 110.1v2.1c.1 4.7.2 9 .7 12.6.5 3.5 1.3 5.9 1.8 7 .9 0 4.5 0 5.4-.2.7-2 1.3-4.8 1.5-6.8.3-2.8.3-6.2.3-8.6v-2.5c0-2.7 0-5.5-.2-8.3a59.4 59.4 0 0 0-1-10.5v-.2c-.2-.5-.2-.5-.8-.6-1.7-.2-5.2-.1-6.7.1-.5.1-.5.1-.7 1v.2c-.5 3.4-.4 8.3-.3 13.5v1.2z" fill="#FFF"/><path d="M69.4 95.3v-.1c.1-1 .1-1 .6-1 1.6-.3 5-.3 6.8-.2.6.1.6.1.7.6v.3l.3.9c.5 2.4.7 6 .8 9.5l.1 8.3v2.5c0 2.5 0 5.8-.2 8.7-.3 2-.8 4.7-1.5 6.8h-5.5c-.4-1-1.2-3.4-1.8-6.9-.5-3.5-.5-7.9-.6-12.5V108.8c-.2-5.2-.3-10 .3-13.5m9.2 34.2l.8-4.6c.3-3 .3-6.3.3-8.8v-2.5c0-2.7 0-5.5-.2-8.3 0-3.2-.2-6.3-.6-8.7 0-.4 0-.7-.2-1v-.4l-.2-.6v-.2c-.4-1-.5-1.2-1.6-1.3-1.8-.2-5.4-.1-7 .2-1.2.2-1.3.8-1.5 1.8a23.8 23.8 0 0 0-.3 4.2c-.2 2.8 0 6.1 0 9.5v4c.1 4.4.2 8.6.7 12a35.8 35.8 0 0 0 2 7.5v.2l2 .1h.7a22 22 0 0 0 4.2-.3v-.2a20 20 0 0 0 .9-2.6" fill="#393B41"/><path fill="#FFF" d="M81 90.9L80 70v13.7z"/><path fill="#393B41" d="M80 84.6V61h-1V84.6l1.7 11.8v.6h.5l.5-.1v-.5l-.7-4.7z"/><path fill="#FFF" d="M93.7 83.6V72L93 89.7z"/><path fill="#393B41" d="M94.9 60h-.5v23.7l-.7 6.1-.7 6v.4l1 .1v-.5l1.3-12V60z"/><path d="M88.7 145.5a60 60 0 0 0-.2-4l-.2-3.7-.3-11-.1-2.6a15 15 0 0 0-.6-4.2c-.2.5-.5 1.8-.6 4.4a372.3 372.3 0 0 0-.5 17.3L86 146l.1 6 .2 6.9v12.4c.2 2.7.6 5.6 1 7.3.3-1.4.8-3.7 1-7.4a428.7 428.7 0 0 1 .4-25.6" fill="#FFF"/><path d="M88.5 153a201.9 201.9 0 0 0-.1 9.7c0 3.2 0 6.1-.2 8.6-.2 3.7-.7 6-1 7.4a47 47 0 0 1-.9-7.3V159L86 152l-.2-6 .2-4.2.2-3.7c0-5 .2-10 .4-13.6 0-2.6.4-3.9.6-4.4.2.6.5 2 .5 4.2l.1 2.5.3 11.1.2 3.6.3 4.1c0 2.5 0 5-.2 7.4m1-9.2v-2l-.1-.3-.2-3.6-.3-11.1-.1-2.5c0-1-.2-4.5-1-5.2a.7.7 0 0 0-.6-.2c-.3 0-1.2.1-1.5 5.6-.2 3.6-.3 8.6-.3 13.5l-.2 3.8a103.3 103.3 0 0 0 0 9.8v7.3a306.6 306.6 0 0 0 .2 12.4c.1 3.6 1 8.5 1.4 9l.2.3.7-.1v-.3l.2-.5a41.8 41.8 0 0 0 1.4-13v-4-3.8l.2-5.7v-.2-1-.3a250.6 250.6 0 0 0 0-7.9" fill="#393B41"/></g></svg>