<svg width="96" height="109" xmlns="http://www.w3.org/2000/svg">
      <path d="M48 3.003c1.2 0 2.5 3.903 3.6 9.508.4 2.002.6 5.205.6 7.708v14.913s.1.6.5 1.101c4.6 4.004 37.2 31.83 38.3 32.73 1.5 1.301 1.9 1.902 1.9 5.405L71.5 62.157l-8.3-4.004-4.3-1.1v.4c0 1.401-.3 12.311-.5 14.513-.2 1.501-.5 3.103-1 3.804l-3.6.3-.2 1.501-4.5 4.905s0 1.701-.1 3.903c0 0 16.7 15.815 17.1 16.115.3.3.4 1 .4 1.401 0 .6-.1 2.102-.1 2.102L48.8 95.888v.9c0 2.903-.5 5.906-.8 5.906-.3 0-.8-3.003-.8-5.905v-.901l-17.5 10.21s-.1-1.502-.1-1.902c0-.601 0-1.302.4-1.602.4-.4 17.1-16.115 17.1-16.115 0-2.202-.1-3.903-.1-3.903l-4.5-4.905-.2-1.501-3.3-.4c-.5-.701-1.2-2.303-1.3-3.804-.2-2.102-.5-13.012-.5-14.513v-.4l-4.4 1.2-8.3 4.004L3 74.268c0-3.403.4-4.104 1.9-5.405 1.1-.9 33.9-28.926 38.3-32.73.4-.4.5-1 .5-1V20.117c0-2.502.3-5.705.6-7.707 1.2-5.505 2.5-9.408 3.7-9.408zM48 0c-3.1 0-4.9 3.203-6.6 11.91-.4 2.103-.7 5.506-.7 8.208v14.113C36.1 38.235 4 65.661 3 66.561c-2.3 2.002-3 3.603-3 7.707 0 1.101.6 2.002 1.5 2.603.5.3 1 .4 1.5.4s1-.1 1.5-.4L25.9 64.86l7.9-3.804.4-.1c.1 3.904.3 9.709.5 11.31.2 2.002 1.1 4.004 1.8 5.105.5.7 1.3 1.201 2.2 1.301l1 .1c.1.3.3.6.5.801l3.8 4.104v1.401c-5.9 5.605-15.8 14.914-16.1 15.214-1.3 1.201-1.3 3.003-1.3 3.803 0 .4.1 1.602.1 2.002 0 1.001.6 2.002 1.6 2.503.4.2.9.4 1.4.4.5 0 1-.1 1.5-.4l13.3-7.707v.3c.2 1.401.7 4.404 3.5 4.404s3.3-3.003 3.5-4.404v-.3l13.3 7.707c.5.3 1 .4 1.5.4s1-.1 1.4-.4c.9-.5 1.5-1.502 1.6-2.503 0-.2.1-1.601.1-2.202 0-.7 0-2.402-1.3-3.603-.3-.3-10.2-9.609-16.1-15.214v-1.401l3.8-4.104c.2-.2.4-.5.5-.7l1.3-.1c.9-.1 1.7-.601 2.2-1.302 1-1.501 1.4-3.904 1.5-5.205.2-1.601.4-7.507.5-11.31l.4.1 7.9 3.804 21.4 12.01c.5.3 1 .4 1.5.4s1-.1 1.5-.4c.9-.5 1.5-1.5 1.5-2.602 0-4.104-.6-5.605-3-7.707-1-.9-31.7-27.125-37.8-32.33V20.118c0-2.702-.3-6.105-.7-8.207C52.9 3.203 51.1 0 48 0z"
          fill="currentColor"
          fill-rule="nonzero"
      />
    </svg>
