<svg xmlns="http://www.w3.org/2000/svg" width="62" height="59"><path d="M1.35 33.603h21.538v5.617c0 .23.122.444.321.56l5.083 2.978v4.11l-8.434.882a1.365 1.365 0 0 0-1.03 1.408l.18 2.142.005.113c0 .25.091.547.207.744.406.581.95.822 2.13 1.056.344.068 1.252.17 2.587.292a216.872 216.872 0 0 0 2.528.218l1.132.093.928.077.258.895.532 1.848c.195.627.687 1.014 1.234 1.014h.09c.589 0 1.068-.34 1.238-.848l.907-2.822.899-.074c.682-.057 1.538-.134 2.576-.232l.403-.038c.613-.058 3.057-.296 3.605-.347 1.179-.239 1.707-.474 2.014-.969.164-.27.256-.567.256-.818l.004-.113.179-2.12c.045-.671-.396-1.28-1.03-1.43l-8.979-.977v-4.135l5.54-2.993a.65.65 0 0 0 .34-.56l.093-5.476 21.966-.09v-3.737a.65.65 0 0 0-.463-.623l-24.834-7.476-.025-.976c-.06-2.308-.09-4.45-.09-6.425 0-2.109-.435-5.12-1.147-7.863-.679-3.456-1.72-5.158-3.181-5.158h-.18c-1.45 0-2.463 1.604-3.38 5.238-.653 2.505-1.038 5.51-1.038 7.783 0 1.976-.03 4.117-.09 6.425l-.026.971L1.81 29.242a.65.65 0 0 0-.46.621v3.74z" stroke="currentColor" stroke-width="2.7" fill="none" fill-rule="evenodd"/></svg>
