<svg width="172" height="195" xmlns="http://www.w3.org/2000/svg"><g transform="translate(1.3 .6)" stroke="#393B41" fill="none" fill-rule="evenodd"><path d="M84.7 0c-2.6 0-5.2 8-7.9 24.3a100 100 0 0 0-1.2 16V109c0 4 .2 7.8.6 11.7l6 50.2.2 2c.7 4 1.5 6 2.3 6M84.7 0c2.6 0 5.2 8 7.9 24.3a100 100 0 0 1 1.2 16V109c0 4-.2 7.8-.6 11.7l-6 50.2-.2 2c-.7 4-1.5 6-2.3 6M72.8 112.5h2.8M93.7 112.5h2.8M71 138l1 4.8h6.7M98.4 138l-1 4.8h-6.7"/><ellipse cx="84.7" cy="165.9" rx="2" ry="25.5"/><path d="M75.6 86.3l-66 19.9a2 2 0 0 0-1.3 1.2l-2.3 6-6 6.7v3l10-4.6 53.7-1.8"/><path d="M13.6 118.3v-3L34 113v4.6M34.1 115.1l29.6-2M94.1 86.3l66 19.9c.6.2 1 .6 1.3 1.2l2.3 6 6 6.7v3l-10-4.6-53.7-1.8"/><path d="M156.1 118.3v-3l-20.5-2.2v4.6M135.6 115.1l-29.6-2M83.5 187.4L56.4 193v-7.7L82 170.7"/><path d="M56.4 188.1l3.2-1.2v2.3l23.6-7.3M77.2 173.3v-8.7l3-12.2M85.7 187.4l27.1 5.6v-7.7l-25.7-14.6"/><path d="M112.8 188.1l-3.2-1.2v2.3L86 182M92.3 173.3v-8.7l-3-12.2M75.6 49.3H79c.6 0 1-.5 1-1V43c0-.6-.4-1-1-1h-3.5M80.8 6.6h7.8M77.1 37h.7c2-5.3 4-8 6-8v-7c-4 0-6.7 6.4-6.7 15zM92.3 37h-.7c-2-5.3-3.9-8-5.9-8v-7c3.9 0 6.6 6.4 6.6 15z"/><g><path d="M65.2 111c1.2-.4 2.3-.6 3-.6.7 0 1.8.2 3 .5a2 2 0 0 1 1.5 2v19c0 .3 0 .7-.2 1l-1.3 4.9a3 3 0 0 1-3 2.2h-.1a3 3 0 0 1-2.9-2.2l-1.3-4.9a4 4 0 0 1-.2-1v-19a2 2 0 0 1 1.5-2zM64.4 134.2H72"/></g><g><path d="M98.2 111c1.2-.4 2.3-.6 3-.6.7 0 1.8.2 3 .5a2 2 0 0 1 1.5 2v19c0 .3 0 .7-.2 1l-1.3 4.9a3 3 0 0 1-3 2.2h-.1a3 3 0 0 1-2.9-2.2l-1.3-4.9a4 4 0 0 1-.2-1v-19a2 2 0 0 1 1.5-2zM97.4 134.2h7.6"/></g></g></svg>