<svg width="195" height="185" xmlns="http://www.w3.org/2000/svg" xmlns:xlink="http://www.w3.org/1999/xlink"><defs><path id="a" d="M0 0h.5v1H0z"/><path id="b" d="M0 0h44.6v29.3H0z"/></defs><g fill="none" fill-rule="evenodd"><path d="M80.8 63.2a37.4 37.4 0 0 0-15.8-.6l.3 1.2a38.7 38.7 0 0 0 15.5-.6" fill="#FFF"/><path d="M65.3 62.6a37.4 37.4 0 0 1 15.8.6 38.7 38.7 0 0 1-15.5.6v1c1.9.3 4.2.5 6.7.5 1 0 9.9 0 9.9-2.1S73.3 61 72.3 61c-2.8 0-5.5.2-7.3.6l.3 1" fill="#393B41"/><path d="M40 63.2a38.6 38.6 0 0 0 15.5.6l.3-1.2a37.3 37.3 0 0 0-15.8.6" fill="#FFF"/><path d="M55.6 63.8a38.6 38.6 0 0 1-15.5-.6 37.3 37.3 0 0 1 15.8-.6c0-.4.2-.7.3-1-1.8-.4-4.5-.6-7.3-.6-1 0-9.9 0-9.9 2.2 0 2 8.9 2.1 9.9 2.1a41 41 0 0 0 6.6-.5l.1-1" fill="#393B41"/><path d="M58.7 109.5h2c2.5 0 4.5-2 4.7-4.5l-11.4.3a4.7 4.7 0 0 0 4.7 4.2M65.2 66h-10a4.7 4.7 0 0 0-3.2 4.5v9.8L68.3 77l.2-6.4c0-2.1-1.4-3.9-3.3-4.5M54 104.2l11.8-.2z" fill="#FFF"/><path fill="#393B41" d="M66 104h1zM65.3 66H65c1.9.6 3.2 2.4 3.2 4.5l-.2 6.4 1-.2.2-6.2c0-2.6-1.6-4.8-4-5.5v1zM53 104h1zM65.4 105a4.7 4.7 0 0 1-4.7 4.5h-2a4.7 4.7 0 0 1-4.7-4.2h-1c.3 3 2.7 5.2 5.7 5.2h2c3 0 5.6-2.4 5.7-5.5h-1zM52 80.3v-9.8c0-2.1 1.4-3.9 3.2-4.5H55v-.5-.5c-2.3.7-4 3-4 5.5v10l1-.2"/><path d="M60.3 59c-2.3 0-4.1 2.7-4.3 6.2h8.5c-.2-3.5-2-6.2-4.2-6.2" fill="#FFF"/><path d="M60.3 59c2.2 0 4 2.7 4.2 6.2H56c.2-3.5 2-6.2 4.3-6.2zM55 66.2h10.5v-.5-.5-.2a10.8 10.8 0 0 0-.7-3.2c-.9-2.3-2.6-3.8-4.5-3.8-2 0-3.7 1.5-4.6 3.8A9.4 9.4 0 0 0 55 65v1.2z" fill="#393B41"/><path d="M154.8 63.2a37.4 37.4 0 0 0-15.8-.6l.3 1.2a38.6 38.6 0 0 0 15.5-.6" fill="#FFF"/><path d="M139.3 62.6a37.4 37.4 0 0 1 15.8.6 38.6 38.6 0 0 1-15.5.6v1c1.9.3 4.2.5 6.7.5 1 0 9.9 0 9.9-2.1s-8.9-2.2-9.9-2.2c-2.8 0-5.5.2-7.3.6l.3 1" fill="#393B41"/><path d="M113 63.2a38.7 38.7 0 0 0 15.5.6l.3-1.2a37.3 37.3 0 0 0-15.8.6" fill="#FFF"/><path d="M128.6 63.8a38.7 38.7 0 0 1-15.5-.6 37.3 37.3 0 0 1 15.8-.6c0-.4.2-.7.3-1-1.8-.4-4.5-.6-7.3-.6-1 0-9.9 0-9.9 2.2 0 2 8.9 2.1 9.9 2.1a41 41 0 0 0 6.6-.5l.1-1" fill="#393B41"/><path fill="#FFF" d="M140.8 100.8L127 100zM132.8 109.8h2c2.4 0 4.5-2 4.6-4.5L128 105c0 2.6 2.1 4.8 4.8 4.8M139.2 66h-10a4.7 4.7 0 0 0-3.2 4.5v6.4l16.2 3.3.3-9.7c0-2.1-1.4-3.9-3.3-4.5"/><path d="M139.3 66h-.3c1.9.6 3.2 2.4 3.2 4.5l-.3 9.7 1 .2.3-10c0-2.5-1.6-4.7-4-5.4v1zM127 100h-1zM139.5 105.3a4.7 4.7 0 0 1-4.8 4.5h-2a4.8 4.8 0 0 1-4.7-4.8h-1v.1c0 3.1 2.6 5.7 5.8 5.7h2c3 0 5.5-2.4 5.7-5.5h-1zM141 101h-1zM126 76.9v-6.4c0-2.1 1.4-3.9 3.2-4.5h-.2v-.5-.5c-2.3.7-4 3-4 5.5v6.2l1 .2" fill="#393B41"/><path d="M134.3 59c-2.3 0-4.1 2.7-4.3 6.2h8.5c-.2-3.5-2-6.2-4.2-6.2" fill="#FFF"/><path d="M134.3 59c2.2 0 4 2.7 4.2 6.2H130c.2-3.5 2-6.2 4.3-6.2zm-5.3 7.2h10.5v-.5-.5-.2a11.1 11.1 0 0 0-.7-3.2c-.9-2.3-2.6-3.8-4.5-3.8-2 0-3.7 1.5-4.6 3.8a9.4 9.4 0 0 0-.7 3.2v1.2z" fill="#393B41"/><path d="M141.3 100.7l-1-.1-13.9-.8h-1L111 99v4.1l7.7.2h1l42.9 1.2-.1-2.7-21.2-1.1zM106.8 106.6h.4c-.2 0-.4 0-.5.3l.1-.3zm1 13a1119.8 1119.8 0 0 0 .2-13l.1-3.3V53.5c-.2.3-.5.5-.8.6h-.1c-.6 0-1.1-.6-1.5-1.7-.5-1.5-.7-2.4-.7-2.9l-.1-.4c-.2-.5-.1-1.6.5-2.1.5-.4 2-2.1 2.1-2.5.2-.4.4-.6.6-.6v-.5l-.2.3a12 12 0 0 1-2.1 2.2c-.3.2-.6.3-1 .3h-.3c-.3-.1-.6-.3-.7-.7-.6-1.3-2.4-3.5-5-3.9-1.2-.2-1.4-1-1.4-1.6v-6.8c0-.5.2-.9.5-1.2.3-.1.7-.3 1.3-.2 4.7 1.1 7.7 2.9 8.9 5.2v-7.5c0-10.8-5.1-28.5-11-28.5H97C91 1 86 18.7 86 29.5v7.4c1.3-2.3 4.2-4 8.8-5 .7-.2 1 0 1.3.1.3.3.5.7.5 1.2V40c0 .6-.2 1.4-1.4 1.6-2.6.4-4.3 2.6-5 4a1.1 1.1 0 0 1-1 .6c-.3 0-.7-.1-1-.3l-2-2.2-.2-.2v.4c.2 0 .4.2.5.6.1.4 1.7 2 2.2 2.5.6.5.6 1.6.5 2.1l-.1.4c0 .5-.2 1.4-.8 3-.3 1-.8 1.6-1.4 1.6h-.2c-.3 0-.5-.2-.7-.5v49.7l.1 3.3v5.4l.2 7.6c1.3 12.4 4 21.5 8.2 35.3l.7-.3-.3-4.3c-.3-7-.7-15.1-.7-19 0-1.9.7-9 1.3-16 .6-6 1.2-11.6 1.2-13h.9c0 1.4.5 7 1 12.8.7 6.9 1.4 14 1.4 15.9 0 3.6-.4 15-.8 23.2v.5l.4.1.7-2.2c3.7-12.5 6.3-21.3 7.5-33zM192.8 102.5h-.5l-10-.6-16.3 2.7 28 .7v-5.1l-.8-.2h-.4v2.5zM7.4 102l-5 .3h-.1v-1L1 100v5l29.9-.7v-3.9z" fill="#FFF"/><path d="M3.3 91c-.9.2-2.3 1-2.3 3v4.5h2.4v2.8l4-.2 24.5-1.8v1.5l52-2.9a.5.5 0 0 1 .4.5v4.6h1V74l-82 17M109 103h1v-4.6l.1-.3.4-.2 51.9 2.9v-.7-.7l23.5 1.6 5-.9v-1.5h2.4V94c0-2.1-1.4-3-2.3-3L109 74v29z" fill="#FFF"/><path fill="#FFF" d="M54.3 104l11.8-.2h1l16.5-.4V99l-47.1 2.6-4.4.2-.1 2.7 21.3-.5z"/><path d="M83.5 104.5l-.2-.5v-.1l-16.4.3h-1l-11.8.3h-1l-21.3.4v.5h-1v-.5l-29.9.8v-5.1H.6l-.1-.4-.1-.5 2.2-.4a.5.5 0 0 1 .5.4v2.7h-.9v.5h.2l5-.3 23.5-1.5v-.5h1v.4-1.1l-24.6 1.7-4 .3V99H1v-4.5c0-2.1 1.4-2.9 2.2-3l82-17V74h1V54.3c-.6-.7-.8-2.2-.8-3.5v-5c0-.3 0-1 .5-1.2h.3v-.4c-.6-.9-.7-1.9-.7-3.7 0-1 .2-2 .7-2.9v-7.4c0-10.8 5.1-28.5 11-28.5h.2c5.8 0 11 17.7 11 28.5v7.5c.4.9.6 1.8.6 2.8 0 1.8-.1 2.7-.7 3.6v.5h.2c.6.1.6.9.6 1.2v5c0 1.3-.3 2.7-.8 3.4V74h1v.5c7.8 1.7 80.8 16.9 82 17 .8.2 2.3 1 2.3 3.1v4.5h-2.4v1.5h.2v-1a.5.5 0 0 1 .6-.5l2.2.6-.1.5-.2.4-1-.3h-.1l.8.2v5.2l-28.1-.7-1.8.3h-1v-.4l-42.8-1-1-.1-7.7-.2v.4l-.2.5 15.8.4h1l11.4.3h1l54.3 1.5V94.6c0-2.4-1.6-3.7-3-4A18467.7 18467.7 0 0 1 125.8 77l-1-.2c-8-1.7-14-3-15.5-3.2V30.2c0-10.4-5-29.4-12-29.4h-.1c-7 0-12 19-12 29.4v43.4l-15.7 3.3c-.3 0-.7 0-1 .2l-16.3 3.3-1 .2c-22.3 4.7-47.5 10-48.1 10-1.5.3-3 1.6-3 4l-.1 12 53.3-1.1h1l11.4-.3h1l18.6-.4v-.3h-1.8zM100 155.2" fill="#393B41"/><path d="M192.5 100v2s0 .2-.2.3l-.3.1h.5V100zM108.1 104l-.1 3.3h.1V104zM109 103.5v-.5zM109 104h1.7-1.7zM86 120h-1c.6 12.4 7 30.8 8.5 35.7l.8-.4c-4-13.8-7-23-8.2-35.3M163.5 100.2l22.7 1.4h.3L163 100v.5l.1-.2.4-.1M86.2 119.8L86 112l-.1-8.6h-1v-.5h-1v.5H83l.2.5H85V119.7h1.2M103.7 143a.5.5 0 0 0 .8.4l-1.4 1.7.2-.8.4-1.3zm4.5-23a166.6 166.6 0 0 1-8.2 35.2l.8.4c1.6-4.9 8-23.3 8.5-35.6h-1zM111 103.5h-.8v-.5h-1v.5h-1v3.2a783.5 783.5 0 0 0-.2 13h1l.2-15.8h1.7l.3-.4h-.1zM83 104z" fill="#393B41"/><path d="M98.2 153c.3-8.1.7-18.3.7-21.6 0-1.9-.7-9.3-1.3-15.8L97 109l-.7 6.8c-.6 6.6-1.3 14-1.3 16 0 3.8.4 11.8.7 18.8l.1 2.2.6-.6.6-.2c.5 0 .9.3 1.2 1" fill="#FFF"/><path d="M99.8 131.6c0-2-.7-9-1.3-15.8-.6-6-1-11.5-1-12.8h-1c0 1.3-.6 7-1.2 13-.6 6.9-1.3 14-1.3 16 0 3.8.4 11.8.7 18.9l.3 4.3h.2c.1-1 .3-1.6.6-2.1l-.1-2.3c-.4-7-.8-15-.8-18.8 0-2 .8-9.4 1.4-16l.6-6.8.6 6.7c.7 6.5 1.4 13.8 1.4 15.7 0 3.3-.4 13.5-.7 21.6.2.5.4 1.1.5 2h.3v-.4c.4-8.3.8-19.6.8-23.2" fill="#393B41"/><path d="M99.6 33h-.5l-.1.5v6.8c0 .4.1.6.6.6 3.7.6 5.5 4.1 5.7 4.5v.1l.6-.1c.4-.3 1.3-1.2 1.9-2 .5-.7.7-1.4.7-3.3 0-3.4-2.8-5.6-8.9-7" fill="#FFF"/><path d="M107.7 43.4c-.6.8-1.4 1.6-1.9 2h-.5c-.3-.4-2-4-5.7-4.5-.5 0-.7-.2-.7-.6v-6.8c0-.3.1-.4.2-.5h.5c6 1.4 8.8 3.6 8.8 7 0 2-.1 2.7-.7 3.4M99.8 32c-.7-.2-1 0-1.3.2-.3.2-.5.6-.5 1.2v6.8c0 .5.2 1.4 1.4 1.5 2.6.4 4.4 2.7 5 4a1.1 1.1 0 0 0 1 .6c.3 0 .7 0 1-.3a12.1 12.1 0 0 0 2.3-2.5c.5-.8.6-1.8.6-3.6 0-1-.2-2-.6-2.8-1.2-2.3-4.2-4-8.9-5.1" fill="#393B41"/><path d="M106.2 48.1c-.2.2-.2.9-.2 1.2l.1.5c.1.5.2 1.3.7 2.7.4 1 .6 1 .6 1 .2 0 .8-1 .8-3V46l-2 2.1" fill="#FFF"/><path d="M108.1 50.2c0 2-.5 3-.7 3 0 0-.3 0-.6-1a13.4 13.4 0 0 1-.8-3.2c-.1-.3 0-1 .2-1.2l2-2v4.4zm-.4-5.6c-.1.4-1.6 2-2.1 2.5-.7.5-.7 1.6-.5 2.2v.3c.1.6.2 1.4.8 3 .4 1 .9 1.6 1.4 1.6h.2c.3 0 .6-.3.8-.6.5-.7.8-2.1.8-3.4v-5c0-.3 0-1-.6-1.2h-.2c-.2 0-.4.2-.6.6z" fill="#393B41"/><path d="M88.6 45.4c.2.1.4.2.5.1.3-.5 2-4 5.7-4.6.5 0 .7-.2.7-.6v-6.8c0-.2 0-.4-.2-.4l-.2-.1h-.3c-6 1.5-8.8 3.7-8.8 7 0 2 .1 2.7.7 3.4.6.8 1.5 1.7 1.9 2" fill="#FFF"/><path d="M94.8 33h.5l.1.5v6.8c0 .4-.1.5-.6.6-3.7.5-5.5 4-5.7 4.5h-.6c-.4-.4-1.3-1.2-1.9-2-.5-.7-.7-1.4-.7-3.4 0-3.4 2.8-5.6 8.9-7M88 46c.3.2.6.3 1 .3h.2c.4-.1.6-.3.8-.6.6-1.3 2.3-3.6 5-4 1.2-.1 1.4-1 1.4-1.5v-6.8c0-.5-.2-1-.6-1.2-.2-.2-.6-.4-1.3-.2-4.6 1-7.5 2.7-8.8 5a6 6 0 0 0-.7 3c0 1.7.1 2.7.7 3.6l.2.3c.7.9 1.6 1.8 2 2.1" fill="#393B41"/><path d="M86.8 53.5s.2 0 .5-1a13.3 13.3 0 0 0 .8-3.2c.1-.3 0-1-.2-1.2L86 46v4.4c0 2 .6 3 .8 3.1" fill="#FFF"/><path d="M86 45.7l1.9 2.1c.2.2.3.9.2 1.2l-.1.5c0 .5-.2 1.3-.7 2.7-.3 1-.6 1-.6 1-.2 0-.8-1-.8-3v-4.5zm.7 8.5c.6 0 1-.6 1.5-1.7.5-1.5.6-2.4.7-2.9v-.3c.2-.6.2-1.7-.4-2.2a16 16 0 0 1-2.2-2.5c-.1-.3-.3-.5-.5-.6h-.2c-.6.1-.6.9-.6 1.2v5c0 1.3.3 2.8.8 3.5.2.3.5.4.7.5h.2zM98 180.5v-.5.5zM108 104h1V74h-1v.4zM86 74h-1v30h1V74.4zM98 179.6v.1-3.7 3.6zM97.6 152a1 1 0 0 0-.6.2l.6-.2c.9 0 1.4.9 1.7 2.9 0-.8-.2-1.5-.5-2-.3-.6-.7-.9-1.2-.9" fill="#393B41"/><path d="M141.7 176h-.7v3.2c0 .2-.2.6-.6.8-.1.1-.3.2-.5.1L102 169l-.1 3.6 18.5 4.9c.3 0 .4.3.4.5l-.3 1 21.1 3.9.4-6c0-.3-.2-.8-.4-.8M87.3 175.4L77 179l15.6-2.8-.1-2.2zM102 174v2.2l15.6 2.8-10.3-3.6zM74.5 177.5l18.6-5-.2-3.5a32656.7 32656.7 0 0 0-38.3 11c-.3-.2-.5-.6-.5-.8V176h-.8c-.2 0-.3.6-.3.9l.3 5.9 21.1-3.8-.2-1c0-.3 0-.6.3-.6M2.3 100l-1.3.3 1.3 1.3z" fill="#FFF"/><path d="M54 174.9c.3 0 .5.2.5.4v3.5l38.1-11.3h.4c.2.2.2.3.2.5v.7l.3 7.2 2.6-.5c-.1-1-1-10.9-1-14l.1-5.4L53 174.9h1zM164 101l.1 4.2 1.8-.4 16.2-2.7zM186 101l5.6.3V100h-.2l-5 .9zM192 100.3l.4-.1h.2l-.6-.2zM98 175.4l2.5.5.3-7.2v-.8a.5.5 0 0 1 .6-.4l38.2 11.3v-3.5c0-.2.2-.5.4-.5h1L98.8 156c.2 1.3.2 3 .2 5.1 0 3.4-.9 13-1 14.3" fill="#FFF"/><path d="M84.3 98.1L84 98l-52 2.8v-.6h-.9v4.3l-.1.4h1v-3.1l4.4-.2L83.5 99v4.5h1v-5c0-.2 0-.3-.2-.4" fill="#393B41"/><g transform="translate(98 154.8)"><mask id="c" fill="#fff"><use xlink:href="#b"/></mask><path d="M43.3 28.3l-21-3.8.2-1c0-.3-.1-.6-.4-.6l-18.5-5 .1-3.5a34777.5 34777.5 0 0 1 38.3 11c.4-.2.5-.6.5-.8v-3.1h.8c.2 0 .3.5.3.9.1.8-.1 4-.3 5.9zm-22-4L19 24 3.5 21.1V19l5.2 1.3 12.7 3.4-.1.6zM44 21c.2 0 .4-.2.4-.4 0-.3 0-.9-.6-1.2L2.3.7 1.4.3 1.1.2.7 0l.1 1.1L43 19.9h-1c-.2 0-.4.3-.4.5V24L3.4 12.6h-.1a.5.5 0 0 0-.5.4v.8l-.3 7.1-2.5-.4v1l43.7 7.8a.5.5 0 0 0 .5-.4c0-.2.5-5.4.4-6.6 0-.3-.1-1-.5-1.4z" fill="#393B41" mask="url(#c)"/></g><path d="M77.6 179l-2.3.3-.1-.6 12.6-3.4L93 174l.1 2.1-15.5 2.8zm-3.5-.6l.3 1.1-21.1 3.8c-.2-2-.4-5.1-.3-6 0-.2 0-.8.3-.8h.7v3c0 .3.2.8.6 1h.5l37.8-11 .1 3.5-18.5 4.9c-.3 0-.4.3-.4.5zm22.5-2.9l-2.5.5-.3-7.2v-.8a.5.5 0 0 0-.6-.4L55 178.9v-3.5c0-.2-.2-.4-.5-.4h-1l42.3-19 .1-1a45.3 45.3 0 0 1-.9.4l-.9.4-41.4 18.5c-.7.3-.7 1-.6 1.2 0 .2.2.4.4.4-.4.4-.5 1.1-.5 1.4a84.5 84.5 0 0 0 .6 7h.3l43.7-7.8v-1zM1.8 100v2.1h1v-2.6l-.2-.4a.5.5 0 0 0-.4 0l-2.2.3v.5l.2.5h.3l1.3-.4zM185.6 101l-22.7-1.3-.4.1v.2l-.1.2v.6L110.5 98l-.4.1-.1.4v5h.9V99l14.4.8h1l14 .8h1l16.7 1 4.4.2.1 2.6v.5h1l-.2-4.2 18.2 1 10.1.7.4-.1.1-.4v-2.2l.6.2 1 .2.1-.4.2-.5-2.2-.6-.5.1-.1.4v2.3l-5.6-.3zM107.4 107h-.3l-.1.3c0-.2.2-.3.4-.3M104.4 143.4a.5.5 0 0 1-.8-.4l-.4 1.4-.2.7 1.4-1.7zM118.3 132.3l.1-.3c0 .2-.2.3-.4.3h.3zM76 132l.1.3h.3a.5.5 0 0 1-.4-.3M96 180v.5h.5a.5.5 0 0 1-.5-.5M98.5 180c0 .3-.2.5-.5.5h.5v-.5z" fill="#393B41"/><path d="M97 175.5v4-4.1c0-.1-1-10.9-1-14 0-5.6.3-8.5 1-8.5.2 0 1.1.6 1.1 8.2 0 3.4-1 14.2-1 14.4m1 4.5v-4.5-.1c0-1.3 1-11 1-14.3a53.3 53.3 0 0 0-.4-6.2c-.3-2-.9-2.9-1.7-2.9a1 1 0 0 0-.6.2c-.2.1-.4.3-.5.6-.3.5-.5 1.2-.6 2l-.1 1.1c-.2 1.6-.2 3.4-.2 5.5 0 3 .9 13 1 14v4.6c0 .2.2.4.5.4h1c.3 0 .5-.2.5-.4" fill="#393B41"/></g></svg>