<svg width="198" height="207" xmlns="http://www.w3.org/2000/svg"><g fill="none" fill-rule="evenodd"><path d="M108.6 22.8c0-9.9-7.7-21.9-9.2-22.3-1.5.4-9.2 12.4-9.2 22.3v81.5c0 8.2 2.2 55.9 9.2 69v.2-.1c7-13.2 9.2-61 9.2-69.1V22.8z" fill="#FEFEFE"/><path d="M108.6 22.8c0-9.9-7.7-21.9-9.2-22.3-1.5.4-9.2 12.4-9.2 22.3v81.5c0 8.2 2.2 55.9 9.2 69v.2-.1c7-13.2 9.2-61 9.2-69.1V22.8z" stroke="#393B41"/><path d="M107 19.8c-.6-1.4-1.2-2.6-2-3.7l.7-.7c.6 1.3 1 2.8 1.4 4.4h-.1z" fill="#FEFEFE"/><path d="M105.9 14.5l-1.6 1.6c1 1.1 1.7 2.6 2.3 4.2h1c-.3-2.1-.9-4.1-1.7-5.8" fill="#393B41"/><path d="M91.8 19.8a19 19 0 0 1 1.5-4.7l.8.8c-.9 1-1.6 2.4-2.2 4h-.1z" fill="#FEFEFE"/><path d="M93.1 14.2a19 19 0 0 0-1.9 6.1h1c.7-1.8 1.5-3.3 2.6-4.4L93 14.2z" fill="#393B41"/><path d="M94 13.6c1.4-2 3-3.3 4.7-3.6v3c-1.3.2-2.4.8-3.5 1.7l-1.1-1z" fill="#FEFEFE"/><path d="M99.2 9.5c-2.3.1-4.3 1.7-5.8 4.2l1.8 1.7a6.1 6.1 0 0 1 4-2v-4zm-1 1.2v2c-1 .1-2 .6-3 1.4l-.5-.5c1-1.5 2.2-2.5 3.5-3z" fill="#393B41"/><path d="M104 15c-1.2-1-2.4-1.7-3.6-2v-3c1.7.4 3.3 1.8 4.6 4l-1 1z" fill="#FEFEFE"/><path d="M99.9 9.5v4c1.4.1 2.8.9 4 2.2l1.7-1.7c-1.5-2.6-3.5-4.3-5.7-4.5m1 1.2c1.2.5 2.4 1.6 3.4 3.1l-.4.5c-1-.8-2-1.4-3-1.7v-1.9" fill="#393B41"/><path d="M99.4 187.6l-37.6 18.8v-8.5c0-2.6 2.5-6 6.9-9.1C73 185.6 99.4 163 99.4 163v24.5z" fill="#FEFEFE"/><path d="M99.4 187.6l-37.6 18.8v-8.5c0-2.6 2.5-6 6.9-9.1C73 185.6 99.4 163 99.4 163v24.5z" stroke="#393B41"/><path stroke="#393B41" d="M69.5 202.6V197l30-16.7"/><path d="M99.4 187.6l37.6 18.8v-8.5c0-2.6-2.5-6-6.8-9.1-4.3-3.2-30.8-25.7-30.8-25.7v24.5z" fill="#FEFEFE"/><path d="M99.4 187.6l37.6 18.8v-8.5c0-2.6-2.5-6-6.8-9.1-4.3-3.2-30.8-25.7-30.8-25.7v24.5z" stroke="#393B41"/><path stroke="#393B41" d="M129.4 202.6V197l-30-16.7"/><path d="M99.4 131.4s-1.9 30.2-1.9 45.2c0 8.1.9 15.5 2 15.5 1 0 1.9-7.4 1.9-15.5 0-15-2-45.2-2-45.2" fill="#FEFEFE"/><path d="M99.4 131.4s-1.9 30.2-1.9 45.2c0 8.1.9 15.5 2 15.5 1 0 1.9-7.4 1.9-15.5 0-15-2-45.2-2-45.2z" stroke="#393B41"/><path d="M69.7 114.6s1-4.6 1-6.9c0-1.2-.5-2.3-1-2.3-.6 0-1 1-1 2.3 0 2.3 1 7 1 7" fill="#FEFEFE"/><path d="M69.7 114.6s1-4.6 1-6.9c0-1.2-.5-2.3-1-2.3-.6 0-1 1-1 2.3 0 2.3 1 7 1 7z" stroke="#393B41" stroke-width="1.1" stroke-linecap="round" stroke-linejoin="round"/><path d="M51.3 120.2s1-4.6 1-6.9c0-1.2-.4-2.3-1-2.3-.5 0-1 1.1-1 2.3 0 2.3 1 7 1 7" fill="#FEFEFE"/><path d="M51.3 120.2s1-4.6 1-6.9c0-1.2-.4-2.3-1-2.3-.5 0-1 1.1-1 2.3 0 2.3 1 7 1 7z" stroke="#393B41" stroke-width="1.1" stroke-linecap="round" stroke-linejoin="round"/><path d="M30.3 129.8s1-4.6 1-7c0-1.2-.5-2.3-1-2.3-.6 0-1 1.1-1 2.4 0 2.3 1 6.9 1 6.9" fill="#FEFEFE"/><path d="M30.3 129.8s1-4.6 1-7c0-1.2-.5-2.3-1-2.3-.6 0-1 1.1-1 2.4 0 2.3 1 6.9 1 6.9z" stroke="#393B41" stroke-width="1.1" stroke-linecap="round" stroke-linejoin="round"/><path fill="#FEFEFE" d="M90.2 64.4L7.5 127.1l-6 12.6v2.9l6.2-7 43.6-21.9 18.4-5.3 20.5-1.8z"/><path stroke="#393B41" d="M90.2 64.4L7.5 127.1l-6 12.6v2.9l6.2-7 43.6-21.9 18.4-5.3 20.5-1.8zM7.5 127v8.7M90.2 69.3L7.5 128.6"/><path stroke="#393B41" d="M9.9 134.5v-2.4l41.4-24 18.4-7 20.5-2.2M30.3 120.3v3.9M51.3 108v5.8M69.7 101v7.4M25.3 115.8l-1.1-1.4"/><path d="M129.1 114.6s-1-4.6-1-6.9c0-1.2.5-2.3 1-2.3.6 0 1 1 1 2.3 0 2.3-1 7-1 7" fill="#FEFEFE"/><path d="M129.1 114.6s-1-4.6-1-6.9c0-1.2.5-2.3 1-2.3.6 0 1 1 1 2.3 0 2.3-1 7-1 7z" stroke="#393B41" stroke-width="1.1" stroke-linecap="round" stroke-linejoin="round"/><path d="M147.5 120.2s-1-4.6-1-6.9c0-1.2.4-2.3 1-2.3.5 0 1 1.1 1 2.3 0 2.3-1 7-1 7" fill="#FEFEFE"/><path d="M147.5 120.2s-1-4.6-1-6.9c0-1.2.4-2.3 1-2.3.5 0 1 1.1 1 2.3 0 2.3-1 7-1 7z" stroke="#393B41" stroke-width="1.1" stroke-linecap="round" stroke-linejoin="round"/><path d="M168.5 129.8s-1-4.6-1-7c0-1.2.5-2.3 1-2.3.6 0 1 1.1 1 2.4 0 2.3-1 6.9-1 6.9" fill="#FEFEFE"/><path d="M168.5 129.8s-1-4.6-1-7c0-1.2.5-2.3 1-2.3.6 0 1 1.1 1 2.4 0 2.3-1 6.9-1 6.9z" stroke="#393B41" stroke-width="1.1" stroke-linecap="round" stroke-linejoin="round"/><path fill="#FEFEFE" d="M108.6 64.4l82.7 62.7 6 12.6v2.9l-6.2-7-43.6-21.9-18.4-5.3-20.5-1.8z"/><path stroke="#393B41" d="M108.6 64.4l82.7 62.7 6 12.6v2.9l-6.2-7-43.6-21.9-18.4-5.3-20.5-1.8zM191.3 127v8.7M108.6 69.3l82.7 59.3"/><path stroke="#393B41" d="M188.9 134.5v-2.4l-41.4-24-18.4-7-20.5-2.2M168.5 120.3v3.9M147.5 108v5.8M129.1 101v7.4M173.5 115.8l1.1-1.4"/><path d="M94.5 156l-7.5-5.6 4-28.2H92c1 0 1.7-1 1.7-1" fill="#FEFEFE"/><path d="M94.5 156l-7.5-5.6 4-28.2H92c1 0 1.7-1 1.7-1" stroke="#393B41" stroke-linecap="round"/><path d="M89.2 117.5h-9.8s-1.7.8-1.7 3.3v8.7c0 5 1.3 22.4 4.3 24 .5.3 1.3.3 2.3.3 1 0 1.8 0 2.2-.3 3-1.6 4.4-19 4.4-24v-8.7c0-2.5-1.7-3.3-1.7-3.3" fill="#FEFEFE"/><path d="M89.2 117.5h-9.8s-1.7.8-1.7 3.3v8.7c0 5 1.3 22.4 4.3 24 .5.3 1.3.3 2.3.3 1 0 1.8 0 2.2-.3 3-1.6 4.4-19 4.4-24v-8.7c0-2.5-1.7-3.3-1.7-3.3zM77.7 120.8h13.2" stroke="#393B41"/><path d="M104.2 156l7.5-5.6-4-28.2h-1.1c-1 0-1.7-1-1.7-1" fill="#FEFEFE"/><path d="M104.2 156l7.5-5.6-4-28.2h-1.1c-1 0-1.7-1-1.7-1" stroke="#393B41" stroke-linecap="round"/><path d="M109.5 117.5h9.8s1.7.8 1.7 3.3v8.7c0 5-1.3 22.4-4.4 24-.4.3-1.2.3-2.2.3-1 0-1.8 0-2.3-.3-3-1.6-4.3-19-4.3-24v-8.7c0-2.5 1.7-3.3 1.7-3.3" fill="#FEFEFE"/><path d="M109.5 117.5h9.8s1.7.8 1.7 3.3v8.7c0 5-1.3 22.4-4.4 24-.4.3-1.2.3-2.2.3-1 0-1.8 0-2.3-.3-3-1.6-4.3-19-4.3-24v-8.7c0-2.5 1.7-3.3 1.7-3.3zM121 120.8h-13.2" stroke="#393B41"/></g></svg>