<svg xmlns="http://www.w3.org/2000/svg" width="158" height="158"><g fill="none" fill-rule="evenodd"><path d="M3.5 98.8v.2l-2 10c-.2 1 .4 2.1 1.4 2.5h.2l.2.2H4c.8 0 1.5-.4 1.8-1h.1l2.6-3.6.4-.2L18 103l15.6-6 16.3-3h9.6v10.3a37 37 0 0 0 2.7 9.9c.4 1 1.3 1.5 2.3 1.5H68l.5.6c1.2 1.8 2.4 2.6 3.7 2.6h1.5v12.7l-.7.4a75 75 0 0 1-9 5.3l-12.7 6.4c-1.4.8-2.3 2-2.8 3.7-.3 1-.4 2-.4 3l-.2 3.6c0 .9.4 1.6 1 2a2.4 2.4 0 0 0 1.6.5h.4l27.8-11 .6.3 27.5 10.6h.2l.4.1c.5 0 1-.2 1.5-.5.6-.4 1-1.1 1-2l-.2-3.6c0-1-.1-2-.5-3a6.4 6.4 0 0 0-2.8-3.7l-12.8-6.4a138 138 0 0 1-9-5.3l-.7-.4V119h1.4c.8-.1 2.2-1 4-2.9l.5-.4h3.9c1 0 2-.7 2.4-1.8.8-2.8 1.5-6 2-9.6V94h11l16.3 3 15.7 5.6.1.1c4.5 2.5 7.3 4 8 4.1l.5.2.3.4 2.3 3.2c.4.6 1.1 1 1.9 1l.9-.3c1-.5 1.6-1.5 1.3-2.6l-2-10v-.1c0-.5-.2-.8-.4-1.4a10.8 10.8 0 0 0-4.9-5.6 2522 2522 0 0 1-61-31.7l-.8-.4v-1a7782.5 7782.5 0 0 0 .5-30.6 49.2 49.2 0 0 0-7-25.3 2.3 2.3 0 0 0-2-1.1c-.9 0-1.6.4-2 1v.2l-.2.2a49.5 49.5 0 0 0-6.9 25 684.7 684.7 0 0 0 .3 20.4l.2 10.1v1l-.7.4c-4.2 2.4-14.3 7.8-28.7 15.4l-.7.4A5785.7 5785.7 0 0 1 8.9 91.8a10.8 10.8 0 0 0-5 5.7l-.4 1.3z" stroke="currentColor" stroke-width="3"/><g stroke="currentColor" stroke-linecap="round" stroke-linejoin="round" stroke-width="3"><path d="M18.5 100v8M34 94.5v8M50 91.5v8"/></g><g stroke="currentColor" stroke-linecap="round" stroke-linejoin="round" stroke-width="3"><path d="M140.5 99v8M125 94v8M109 91.5v8"/></g><path d="M79 158c1.1 0 2-2 2-9.5 0-5-.7-10.8-2-17.5-1.3 6.7-2 12.5-2 17.5 0 7.5.9 9.5 2 9.5z" fill="currentColor"/><path d="M59.5 93.8v-4.6c0-1.1.9-2 2-2h8.8a2 2 0 0 1 2 2v2.6M98 93.8v-4.6a2 2 0 0 0-2-2h-9a2 2 0 0 0-2 2v2.6" stroke="currentColor" stroke-width="3"/></g></svg>
