<svg width="202" height="219" xmlns="http://www.w3.org/2000/svg"><g fill-rule="nonzero" stroke="#393B41" fill="none"><path d="M88.3 51.1v93.6A191 191 0 0 0 101 207a183.6 183.6 0 0 0 12.7-62.2V51.2C111.5 17.5 107.2.5 101.4.5c-5.7 0-10.3 17-13.1 50.6z"/><path d="M94 184.1l-36.6 26v7.5l43.6-11.9"/><path d="M63.1 215.9v-5.3l2.7-1v2.3l33-11.5M80.3 211.5v-1.8l19.4-5.7M108 184.1l36.6 26v7.5L101 205.7"/><path d="M138.9 215.9v-5.3l-2.7-1v2.3l-33-11.5M121.7 211.5v-1.8l-19.4-5.7"/><path d="M101 167.4c-1.4 0-2.2 4.6-2.2 15.6 0 6.3.6 30.2 2.2 30.2s2.2-22.8 2.2-29.7c0-15-1.8-16.1-2.3-16.1M60.8 88h1.9v6.7h3.4c4.2 0 7.5-3.4 7.5-7.5V66.9c0-1.4-1-2.5-2.5-2.5h-9a2.5 2.5 0 0 0-2.5 2.5v15.8c0 1.8.4 3.7 1.2 5.3z" fill="#FFF"/><path d="M59.8 66.3h13.6" stroke-linecap="square"/><path d="M37.6 126.4c.8-1.7 1.3-3.7 1.3-6 0-3.2-.6-5.9-1.3-5.9-.8 0-1.4 2.7-1.4 6 0 2.2.5 4.2 1.4 6zM56 121.1c1-1.7 1.4-3.7 1.4-5.9 0-3.3-.6-6-1.3-6-.8 0-1.4 2.7-1.4 6 0 2.2.5 4.2 1.4 6z" fill="#FFF"/><path d="M87.8 113.7H69.3L1.4 134.4v-7c-.3-2.7 1.2-4.8 4.4-6.3 3.3-1.4 23.7-12.6 61.3-33.4l20.7-15.5" fill="#FFF"/><path d="M68.8 106.3v13.5a1.8 1.8 0 0 1-3.5 0v-8.3" fill="#FFF"/><path d="M3.2 124.7l66-34.4L87.9 78"/><path d="M64.5 101.1l2.2-1c1.3-.5 2-1.8 2-3.1V74.9a2.1 2.1 0 1 0-4.2 0V101z" fill="#FFF"/><path d="M9.4 131.7v-4.4l18.5-6.2v5.3M29.6 125.6v-1l30.9-10v1.7"/><g><path d="M141.2 88h-1.9v6.7h-3.4a7.5 7.5 0 0 1-7.5-7.5V66.9c0-1.4 1-2.5 2.5-2.5h9c1.3 0 2.5 1.1 2.5 2.5v15.8a13 13 0 0 1-1.2 5.3z" fill="#FFF"/><path d="M142.2 66.3h-13.6" stroke-linecap="square"/><path d="M164.4 126.4c-.8-1.7-1.3-3.7-1.3-6 0-3.2.6-5.9 1.3-5.9.8 0 1.4 2.7 1.4 6 0 2.2-.5 4.2-1.4 6zM146 121.1c-1-1.7-1.4-3.7-1.4-5.9 0-3.3.6-6 1.3-6 .8 0 1.4 2.7 1.4 6 0 2.2-.5 4.2-1.4 6z" fill="#FFF"/><path d="M114.2 113.7h18.5l67.9 20.7v-7c.3-2.7-1.2-4.8-4.4-6.3-3.3-1.4-23.7-12.6-61.3-33.4l-20.7-15.5" fill="#FFF"/><path d="M133.2 106.3v13.5a1.8 1.8 0 0 0 3.5 0v-8.3" fill="#FFF"/><path d="M198.8 124.7l-66-34.4L114.1 78"/><path d="M137.5 101.1l-2.2-1c-1.3-.5-2-1.8-2-3.1V74.9a2.1 2.1 0 1 1 4.2 0V101z" fill="#FFF"/><path d="M192.6 131.7v-4.4l-18.5-6.2v5.3M172.4 125.6v-1l-30.9-10v1.7"/></g><path d="M91.7 22l1.4-.4.9-2.7-1.8-1.3M93 16.7l1.4 1.4.9-1.8-.5-2.2zM95.7 13.2l.5 2.2 4.4-2.6V10z"/><g><path d="M110.7 22l-1.3-.4-1-2.7 1.9-1.3M109.4 16.7l-1.4 1.4-.8-1.8.4-2.2zM106.7 13.2l-.4 2.2-4.4-2.6V10z"/></g></g></svg>