<svg width="240" height="44" fill="none" xmlns="http://www.w3.org/2000/svg">
  <g clip-path="url(#clip0)">
    <path d="M3.227.72l7.29 14.387L17.81.72h3.227l-8.964 17.384H8.845L0 .72h3.227zM25.34 18.104V.72h2.988v17.384h-2.988zm27.25-5.155c0 3.357-3.227 5.635-9.203 5.635a15.508 15.508 0 01-10.398-3.597l1.912-2.158a12.097 12.097 0 008.606 3.117c3.825 0 5.976-1.079 5.976-2.877 0-1.799-2.151-2.278-6.574-2.638-4.78-.36-9.322-1.439-9.322-5.035C33.586 1.799 37.53 0 42.55 0c3.27-.136 6.484.882 9.084 2.877L49.72 4.916a11.463 11.463 0 00-7.171-2.398c-2.75 0-5.976.6-5.976 2.638 0 1.798 2.868 2.158 6.693 2.518 5.617.6 9.323 1.678 9.323 5.275zm21.156-9.591h-7.888v14.866h-2.989V3.358H54.98V.72h18.765v2.638zm15.777 10.55H78.406l-2.151 4.196h-3.227L82.47.72h3.227l9.442 17.384h-3.227l-2.39-4.196zm-1.315-2.518l-4.303-8.032-4.302 8.032h8.605zm38.247 2.878c-1.554 2.517-5.02 4.436-9.801 4.436-6.812 0-10.996-3.477-10.996-9.232 0-5.755 4.064-9.232 10.877-9.232a11.748 11.748 0 014.851.78 11.78 11.78 0 014.113 2.697l-2.39 1.799a7.869 7.869 0 00-6.455-2.638c-4.9 0-7.888 2.278-7.888 6.594 0 4.316 3.108 6.594 8.008 6.594 3.107 0 5.498-.84 6.813-2.757V11.27h-7.291V8.753h10.159v5.515zm21.036 1.199v2.637h-15.777V.72h2.988v14.747h12.789zm2.271-5.995c0-5.755 4.064-9.232 10.757-9.232s10.757 3.477 10.757 9.232c0 5.755-4.064 9.232-10.757 9.232s-10.757-3.477-10.757-9.232zm18.526 0c0-4.196-2.988-6.594-7.769-6.594-4.781 0-7.769 2.398-7.769 6.594s2.988 6.594 7.769 6.594c4.781 0 7.769-2.398 7.769-6.594zm27.49 3.956c0 3.118-2.51 4.796-6.693 4.796h-12.431V.72h11.714c3.824 0 6.334 1.559 6.334 4.436a3.742 3.742 0 01-1.041 2.825 3.72 3.72 0 01-2.784 1.131c2.869.12 4.901 1.439 4.901 4.316zm-16.136-5.395h8.367c2.39 0 3.944-.48 3.944-2.397 0-1.919-1.554-2.398-3.944-2.398h-8.367v4.795zm13.028 5.036c0-1.919-1.553-2.638-4.183-2.638h-8.964v5.155h8.964c2.63.12 4.183-.599 4.183-2.517zm21.992.839h-11.115l-2.152 4.196h-3.227L207.61.72h3.227l9.442 17.384h-3.466l-2.152-4.196zm-1.314-2.518l-4.303-8.032-4.303 8.032h8.606zM240 15.467v2.637h-15.777V.72h2.988v14.747H240z" fill="#000"/>
    <path d="M239.761 33.57s0 .959-10.159.959c-64.423 0-107.092-1.559-108.885 8.272a1.62 1.62 0 01-.597 1.08L120 44l-.119-.12a1.944 1.944 0 01-.598-1.079C117.61 32.97 74.94 34.53 10.518 34.53c-10.279 0-10.16-.96-10.16-.96s108.885-1.438 112.59-1.198c6.215.36 7.052 3.956 7.052 3.956s.837-3.597 7.052-3.956c3.825-.24 112.709 1.198 112.709 1.198z" fill="#971C0C"/>
  </g>
  <defs>
    <clipPath id="clip0">
      <path fill="#fff" d="M0 0h240v44H0z"/>
    </clipPath>
  </defs>
</svg>
